<?xml version="1.0" encoding="UTF-8"?><svg xmlns="http://www.w3.org/2000/svg" viewBox="0 0 208.88 88.24"><defs><style>.d{opacity:.5;}.e,.f,.g{fill:#fff;fill-rule:evenodd;}.f{stroke-width:.26px;}.f,.g{stroke:#fff;stroke-miterlimit:3.86;}.g{stroke-width:.26px;}</style></defs><g id="a"/><g id="b"><g id="c"><g class="d"><g><path class="g" d="M11.17,.99c.28-.27,.56-.54,.84-.81,.46,.42,.93,.84,1.39,1.26,.27-.26,.53-.53,.79-.8,.42,.4,.84,.79,1.26,1.19,.25-.26,.5-.53,.75-.8l1.15,1.13c.21,1.03,.4,2.06,.57,3.1-1.95-.24-3.89-.52-5.82-.83-.28-1.15-.59-2.29-.93-3.43Z"/><path class="g" d="M22.43,2.86c.22-.26,.45-.53,.67-.79,.29,.32,.58,.64,.88,.96,.22-.26,.44-.53,.66-.79,.28,.31,.55,.62,.83,.93,.22-.26,.44-.53,.65-.8,.26,.3,.53,.61,.79,.91,.07,.93,.13,1.86,.19,2.79-1.44-.08-2.88-.18-4.32-.31-.11-.97-.22-1.94-.35-2.9Z"/><path class="g" d="M31.09,3.47c.22-.27,.45-.54,.67-.82,.23,.28,.46,.56,.7,.84,.23-.27,.46-.55,.68-.83,.23,.28,.45,.55,.68,.83,.23-.28,.46-.56,.69-.84,.22,.27,.45,.55,.67,.82-.02,.91-.04,1.83-.06,2.74-1.32,.02-2.64,.02-3.97,0-.02-.91-.04-1.83-.06-2.74Z"/><path class="g" d="M39.36,3.28c.26-.3,.53-.6,.79-.91,.22,.27,.44,.53,.66,.8,.28-.31,.55-.62,.83-.93,.22,.27,.44,.53,.66,.79,.29-.32,.58-.64,.87-.96,.22,.27,.44,.53,.67,.79-.13,.97-.25,1.93-.35,2.9-1.44,.13-2.88,.23-4.32,.31,.06-.93,.12-1.86,.19-2.79Z"/><path class="g" d="M48.92,2.15c.38-.37,.77-.75,1.15-1.13,.25,.27,.5,.54,.75,.8,.42-.4,.84-.79,1.26-1.19,.26,.27,.52,.54,.79,.8,.46-.42,.93-.84,1.39-1.26,.28,.27,.55,.54,.84,.81-.34,1.13-.65,2.28-.93,3.43-1.94,.31-3.88,.59-5.82,.83,.17-1.04,.36-2.07,.57-3.1Z"/><path class="g" d="M38.92,11.36c-1.39,.03-2.78,.06-4.17,.07-.03-.85-.75-1.71-1.62-1.71s-1.6,.86-1.62,1.71c-.09,0-.19,0-.28,0-1.39-.01-2.79-.04-4.18-.07-.07-.91-.9-1.77-1.81-1.82-.9-.04-1.71,.8-1.7,1.7-.11,0-.21,0-.32-.01-1.65-.07-3.3-.15-4.96-.25-.15-1.13-1.37-1.99-2.42-2.08-1.01-.09-2.24,.63-2.16,1.78-.15,0-.29-.02-.44-.03-.2-1.66-.49-3.3-.84-4.93,13.87,1.88,27.62,1.88,41.48,0-.35,1.63-.64,3.28-.84,4.93-.15,.01-.3,.02-.44,.03,.08-1.15-1.15-1.87-2.16-1.78-1.05,.09-2.28,.95-2.43,2.08-.12,0-.24,.01-.37,.02-1.64,.09-3.27,.17-4.91,.24,0-.9-.8-1.74-1.7-1.7-.9,.04-1.75,.91-1.81,1.82-.1,0-.2,0-.3,0Z"/><path class="g" d="M35.02,16.24h-4.04c-.03-.84-.78-1.63-1.62-1.64-.84,0-1.61,.8-1.64,1.64h-4.67c-.04-.95-.98-1.71-1.88-1.73-.92-.02-1.9,.76-1.95,1.73h-5.63c0-1.5-.08-2.99-.22-4.48,13.19,.74,26.37,.74,39.56,0-.14,1.49-.22,2.99-.22,4.48h-5.64c-.04-.97-1.02-1.75-1.95-1.73-.9,.01-1.84,.78-1.88,1.73h-4.67c-.03-.84-.79-1.64-1.64-1.64-.84,0-1.59,.8-1.62,1.64h-.28Z"/></g><path class="f" d="M34.13,33.61s2.99,0,3.99,1.99v-5.98c-1,1.99-3.99,1.99-3.99,1.99,0,0,0-2.99,1.99-3.99h-5.98c2,1,2,3.99,2,3.99,0,0-2.99,0-3.99-1.99v5.98c1-1.99,3.99-1.99,3.99-1.99,0,0,0,2.99-2,3.99h5.98c-1.99-1-1.99-3.99-1.99-3.99Zm-5.98,36.85v-4.98c0-2.75,2.22-4.98,4.98-4.98s4.98,2.23,4.98,4.98v4.98h9.98v-23.84l-1.11-1.08-1.11,1.11-1.11-1.11-1.11,1.11-1.11-1.11-1.11,1.08v8.88h-3.33v-13.74l-1.25-1.22-1.25,1.25-1.25-1.25-1.25,1.25-1.25-1.25-1.25,1.25-1.25-1.25-1.25,1.25v13.71h-3.32v-8.88l-1.1-1.08-1.11,1.11-1.11-1.11-1.11,1.11-1.11-1.11-1.11,1.08v23.84h9.98ZM.18,55.1L33.14,22.15l32.95,32.95-32.95,32.95L.18,55.1Z"/><path class="f" d="M21.51,48.02c.61,0,1.1,.52,1.1,1.17v1.32h-2.22v-1.32c0-.65,.51-1.17,1.12-1.17Z"/><path class="f" d="M33.15,44.29c.91,0,1.65,.78,1.65,1.75v1.99h-3.32v-1.99c0-.97,.76-1.75,1.67-1.75Z"/><path class="f" d="M44.76,48.02c-.61,0-1.1,.52-1.1,1.17v1.32h2.21v-1.32c0-.65-.51-1.17-1.12-1.17Z"/><g><path class="e" d="M80.76,71.73c.62,.99,1.62,1.49,3,1.49,1.07,0,1.94-.46,2.63-1.37,.69-.92,1.04-2.24,1.04-3.96s-.35-3.02-1.06-3.85c-.71-.84-1.59-1.26-2.63-1.26-1.16,0-2.11,.44-2.83,1.33-.72,.89-1.08,2.2-1.08,3.92,0,1.47,.31,2.7,.94,3.69Zm5.18-10.29c.41,.26,.87,.71,1.4,1.35v-6.94h2.22v18.9h-2.08v-1.91c-.54,.85-1.18,1.46-1.91,1.83-.74,.38-1.58,.56-2.53,.56-1.53,0-2.86-.64-3.97-1.92-1.12-1.29-1.68-3-1.68-5.14,0-2,.51-3.73,1.53-5.19,1.03-1.47,2.49-2.21,4.38-2.21,1.05,0,1.93,.22,2.64,.67Z"/><path class="e" d="M101.52,61.4c.91,.45,1.61,1.04,2.09,1.77,.46,.69,.77,1.5,.92,2.42,.14,.63,.21,1.64,.21,3.03h-10.06c.04,1.39,.37,2.51,.99,3.36,.62,.84,1.57,1.26,2.86,1.26,1.21,0,2.17-.4,2.88-1.19,.41-.46,.7-1,.87-1.6h2.27c-.06,.5-.26,1.07-.6,1.69-.33,.62-.71,1.12-1.13,1.51-.7,.68-1.57,1.15-2.6,1.38-.56,.14-1.18,.2-1.88,.2-1.71,0-3.16-.62-4.35-1.86-1.19-1.25-1.78-2.99-1.78-5.23s.6-4,1.79-5.37c1.2-1.38,2.76-2.06,4.69-2.06,.97,0,1.92,.23,2.83,.69Zm.85,5.38c-.09-1-.31-1.8-.65-2.4-.63-1.11-1.69-1.67-3.17-1.67-1.06,0-1.95,.38-2.67,1.15-.72,.76-1.1,1.73-1.14,2.91h7.63Z"/><path class="e" d="M116.84,68.66c.06,1.07,.31,1.94,.76,2.6,.85,1.25,2.34,1.87,4.47,1.87,.96,0,1.83-.14,2.62-.41,1.52-.53,2.28-1.48,2.28-2.85,0-1.03-.32-1.76-.96-2.19-.65-.43-1.67-.8-3.05-1.12l-2.55-.58c-1.67-.38-2.85-.79-3.54-1.24-1.2-.79-1.79-1.96-1.79-3.53,0-1.69,.59-3.08,1.76-4.17,1.17-1.09,2.83-1.63,4.97-1.63,1.97,0,3.65,.48,5.03,1.44,1.38,.95,2.08,2.47,2.08,4.56h-2.4c-.13-1.01-.4-1.78-.82-2.32-.78-.98-2.1-1.47-3.96-1.47-1.5,0-2.59,.32-3.24,.95-.66,.63-.99,1.37-.99,2.21,0,.92,.38,1.6,1.15,2.03,.5,.27,1.65,.62,3.42,1.03l2.64,.6c1.27,.29,2.26,.69,2.95,1.19,1.2,.88,1.79,2.16,1.79,3.83,0,2.08-.76,3.58-2.28,4.47-1.51,.9-3.27,1.35-5.28,1.35-2.34,0-4.17-.6-5.5-1.79-1.32-1.19-1.97-2.8-1.95-4.83h2.4Z"/><path class="e" d="M132.38,61.08h2.35v13.67h-2.35v-13.67Zm0-5.17h2.35v2.62h-2.35v-2.62Z"/><path class="e" d="M138.67,57.18h2.33v3.83h2.19v1.88h-2.19v8.96c0,.48,.16,.8,.49,.96,.18,.09,.48,.14,.9,.14h.36c.13,0,.28-.02,.45-.04v1.82c-.27,.08-.54,.13-.83,.17-.28,.03-.59,.05-.92,.05-1.08,0-1.81-.27-2.19-.82-.38-.55-.58-1.27-.58-2.15v-9.09h-1.86v-1.88h1.86v-3.83Z"/><path class="e" d="M153.17,61.56c.44,.3,.88,.73,1.33,1.31v-1.73h2.13v12.49c0,1.74-.26,3.12-.77,4.13-.96,1.86-2.76,2.79-5.42,2.79-1.48,0-2.72-.33-3.73-1-1.01-.66-1.57-1.69-1.69-3.1h2.35c.11,.62,.33,1.09,.67,1.42,.52,.51,1.34,.77,2.46,.77,1.77,0,2.93-.62,3.47-1.87,.32-.73,.47-2.05,.45-3.94-.46,.7-1.02,1.22-1.67,1.56-.65,.34-1.51,.51-2.58,.51-1.49,0-2.79-.53-3.91-1.58-1.11-1.06-1.67-2.81-1.67-5.24,0-2.3,.56-4.09,1.68-5.38,1.13-1.29,2.49-1.94,4.08-1.94,1.08,0,2.02,.26,2.82,.79Zm.28,2.47c-.7-.82-1.59-1.23-2.68-1.23-1.62,0-2.73,.76-3.33,2.28-.32,.81-.47,1.88-.47,3.19,0,1.55,.31,2.73,.94,3.54,.63,.8,1.48,1.21,2.54,1.21,1.66,0,2.82-.75,3.5-2.24,.38-.85,.56-1.83,.56-2.96,0-1.7-.35-2.96-1.05-3.78Z"/><path class="e" d="M168.66,61.4c.91,.45,1.61,1.04,2.09,1.77,.46,.69,.77,1.5,.92,2.42,.14,.63,.21,1.64,.21,3.03h-10.06c.04,1.39,.37,2.51,.99,3.36,.62,.84,1.57,1.26,2.86,1.26,1.21,0,2.17-.4,2.88-1.19,.41-.46,.7-1,.87-1.6h2.27c-.06,.5-.26,1.07-.6,1.69-.33,.62-.71,1.12-1.13,1.51-.7,.68-1.57,1.15-2.6,1.38-.56,.14-1.18,.2-1.88,.2-1.71,0-3.16-.62-4.35-1.86-1.19-1.25-1.78-2.99-1.78-5.23s.6-4,1.79-5.37c1.2-1.38,2.76-2.06,4.69-2.06,.97,0,1.92,.23,2.83,.69Zm.85,5.38c-.09-1-.31-1.8-.65-2.4-.63-1.11-1.69-1.67-3.17-1.67-1.06,0-1.95,.38-2.67,1.15-.72,.76-1.1,1.73-1.14,2.91h7.63Z"/><path class="e" d="M176.08,70.43c.07,.77,.26,1.36,.58,1.77,.58,.74,1.59,1.12,3.03,1.12,.85,0,1.61-.18,2.26-.55,.65-.38,.97-.95,.97-1.73,0-.59-.26-1.04-.78-1.35-.33-.19-.99-.41-1.97-.65l-1.83-.46c-1.17-.29-2.03-.62-2.59-.97-.99-.62-1.49-1.49-1.49-2.59,0-1.3,.47-2.35,1.4-3.15,.94-.8,2.2-1.2,3.78-1.2,2.07,0,3.56,.61,4.47,1.82,.57,.77,.85,1.6,.83,2.49h-2.18c-.04-.52-.23-1-.55-1.42-.53-.61-1.45-.91-2.76-.91-.87,0-1.53,.17-1.99,.5-.45,.33-.67,.77-.67,1.32,0,.6,.29,1.08,.88,1.44,.34,.21,.85,.4,1.51,.56l1.53,.37c1.66,.4,2.77,.79,3.33,1.17,.9,.59,1.35,1.52,1.35,2.78s-.47,2.28-1.4,3.17c-.92,.89-2.33,1.33-4.23,1.33-2.04,0-3.49-.46-4.35-1.38-.85-.93-1.3-2.08-1.36-3.45h2.22Z"/><path class="e" d="M88.34,40.77l-2.86-8.32-3.04,8.32h5.9Zm-4.19-11.12h2.88l6.83,18.83h-2.79l-1.91-5.64h-7.45l-2.04,5.64h-2.62l7.09-18.83Z"/><path class="e" d="M98.19,32.32h-2.31v-2.67h2.31v2.67Zm-4.49,19.64c1.03-.03,1.65-.13,1.86-.28,.21-.15,.32-.61,.32-1.4v-15.46h2.31v15.7c0,1-.16,1.75-.49,2.24-.54,.84-1.56,1.26-3.06,1.26-.11,0-.23,0-.36-.01-.12,0-.31-.03-.58-.05v-2Z"/><path class="e" d="M104.02,34.75v9.12c0,.7,.11,1.27,.33,1.72,.41,.82,1.17,1.23,2.29,1.23,1.61,0,2.7-.72,3.28-2.15,.32-.77,.47-1.82,.47-3.17v-6.74h2.31v13.73h-2.18l.03-2.03c-.3,.52-.67,.96-1.12,1.32-.88,.72-1.95,1.08-3.21,1.08-1.96,0-3.29-.65-4-1.96-.38-.7-.58-1.64-.58-2.81v-9.33h2.36Z"/><path class="e" d="M116.32,34.75h2.19v1.95c.65-.8,1.34-1.38,2.06-1.73,.73-.35,1.53-.52,2.42-.53,1.95,0,3.26,.68,3.95,2.04,.38,.74,.56,1.81,.56,3.19v8.81h-2.35v-8.65c0-.84-.12-1.51-.37-2.03-.41-.85-1.15-1.28-2.23-1.28-.55,0-1,.06-1.35,.17-.63,.19-1.19,.56-1.67,1.13-.38,.45-.64,.92-.76,1.41-.11,.48-.17,1.17-.17,2.06v7.19h-2.31v-13.73Z"/><path class="e" d="M131.38,30.92h2.33v3.83h2.19v1.88h-2.19v8.96c0,.48,.16,.8,.49,.96,.18,.09,.48,.14,.9,.14h.36c.13,0,.28-.02,.45-.04v1.82c-.26,.08-.54,.13-.83,.17-.28,.03-.59,.05-.92,.05-1.08,0-1.81-.27-2.19-.82-.38-.55-.58-1.27-.58-2.15v-9.09h-1.86v-1.88h1.86v-3.83Z"/><path class="e" d="M140.71,46.41c.49,.38,1.06,.58,1.73,.58,.81,0,1.6-.19,2.36-.56,1.28-.62,1.92-1.65,1.92-3.06v-1.86c-.28,.18-.65,.33-1.09,.45-.44,.12-.88,.21-1.31,.26l-1.4,.18c-.84,.11-1.47,.29-1.88,.53-.71,.4-1.06,1.04-1.06,1.92,0,.67,.24,1.19,.73,1.58Zm4.86-6.24c.53-.07,.88-.29,1.06-.67,.1-.21,.15-.5,.15-.88,0-.79-.28-1.35-.85-1.71-.56-.36-1.35-.54-2.4-.54-1.21,0-2.06,.33-2.56,.97-.28,.36-.47,.89-.55,1.6h-2.15c.04-1.69,.59-2.87,1.64-3.53,1.06-.67,2.29-1,3.68-1,1.62,0,2.93,.31,3.94,.92,1,.62,1.5,1.57,1.5,2.87v7.91c0,.24,.05,.43,.14,.58,.1,.14,.31,.22,.63,.22,.1,0,.22,0,.35-.01,.13-.02,.27-.04,.41-.06v1.7c-.36,.1-.63,.17-.82,.19-.19,.03-.44,.04-.77,.04-.79,0-1.37-.28-1.73-.85-.19-.3-.32-.72-.4-1.27-.47,.62-1.15,1.15-2.03,1.6-.88,.45-1.85,.68-2.91,.68-1.27,0-2.32-.38-3.13-1.15-.8-.78-1.21-1.75-1.21-2.91,0-1.27,.4-2.26,1.19-2.96,.79-.7,1.84-1.13,3.13-1.29l3.68-.46Z"/><path class="e" d="M152.81,34.75h2.28v1.95c.55-.68,1.04-1.17,1.49-1.47,.76-.52,1.62-.78,2.59-.78,1.09,0,1.97,.27,2.64,.81,.38,.31,.72,.76,1.03,1.36,.51-.74,1.12-1.28,1.81-1.63,.69-.36,1.47-.54,2.33-.54,1.85,0,3.1,.67,3.77,2,.36,.72,.54,1.68,.54,2.9v9.14h-2.4v-9.54c0-.91-.23-1.54-.69-1.88-.45-.34-1.01-.51-1.67-.51-.91,0-1.69,.3-2.35,.91-.65,.61-.97,1.62-.97,3.04v7.99h-2.35v-8.96c0-.93-.11-1.61-.33-2.04-.35-.64-1-.96-1.96-.96-.87,0-1.67,.34-2.38,1.01-.71,.68-1.06,1.9-1.06,3.67v7.28h-2.31v-13.73Z"/><path class="e" d="M183.24,35.14c.92,.45,1.61,1.04,2.09,1.77,.46,.69,.77,1.5,.92,2.42,.14,.63,.21,1.64,.21,3.03h-10.06c.04,1.39,.37,2.51,.99,3.36,.62,.84,1.57,1.26,2.86,1.26,1.21,0,2.17-.4,2.88-1.19,.41-.46,.7-1,.87-1.6h2.27c-.06,.5-.26,1.07-.6,1.69-.33,.62-.71,1.12-1.13,1.51-.7,.68-1.57,1.15-2.6,1.38-.56,.14-1.18,.21-1.88,.21-1.71,0-3.16-.62-4.35-1.86-1.19-1.25-1.78-2.99-1.78-5.23s.6-4,1.79-5.37c1.2-1.38,2.76-2.06,4.69-2.06,.97,0,1.92,.23,2.83,.69Zm.85,5.38c-.09-1-.31-1.8-.65-2.4-.63-1.11-1.69-1.67-3.17-1.67-1.06,0-1.95,.38-2.67,1.15-.72,.76-1.1,1.73-1.14,2.91h7.63Z"/><path class="e" d="M189.29,34.75h2.19v1.95c.65-.8,1.34-1.38,2.06-1.73,.73-.35,1.53-.52,2.42-.53,1.95,0,3.26,.68,3.95,2.04,.38,.74,.56,1.81,.56,3.19v8.81h-2.35v-8.65c0-.84-.12-1.51-.37-2.03-.41-.85-1.15-1.28-2.23-1.28-.55,0-1,.06-1.35,.17-.63,.19-1.19,.56-1.67,1.13-.38,.45-.64,.92-.76,1.41-.11,.48-.17,1.17-.17,2.06v7.19h-2.31v-13.73Z"/><path class="e" d="M204.35,30.92h2.33v3.83h2.19v1.88h-2.19v8.96c0,.48,.16,.8,.49,.96,.18,.09,.48,.14,.9,.14h.36c.13,0,.28-.02,.45-.04v1.82c-.26,.08-.54,.13-.83,.17-.28,.03-.59,.05-.92,.05-1.08,0-1.81-.27-2.19-.82-.38-.55-.58-1.27-.58-2.15v-9.09h-1.86v-1.88h1.86v-3.83Z"/></g></g></g></g></svg>