<?xml version="1.0" encoding="UTF-8"?><svg xmlns="http://www.w3.org/2000/svg" viewBox="0 0 283.93 75.72"><defs><style>.d{fill:#fff;stroke:#fff;stroke-miterlimit:10;stroke-width:.46px;}.e{opacity:.5;}</style></defs><g id="a"/><g id="b"><g id="c"><g class="e"><path class="d" d="M154.37,30.22c-.15-.02-.3-.04-.46-.04h-14.88c-.16,0-.31,.01-.46,.03-4.32,.35-7.73,3.98-7.73,8.39,0,.11,0,.23,.02,.34,.18,4.41,3.75,7.95,8.17,8.08h19.93c1.74-.08,3.13-1.52,3.13-3.29v-15.24c0-.12,0-.24-.02-.35-.19-4.23-3.51-7.66-7.7-8.01-.15-.02-.3-.04-.46-.04h-18.17c-1.82,0-3.3,1.48-3.3,3.3s1.48,3.3,3.3,3.3h17.92c1.01,0,1.84,.82,1.84,1.83v1.86c-.37-.08-.74-.14-1.13-.17m-16.93,8.39c0-1.01,.82-1.83,1.83-1.83h14.39c1.01,0,1.84,.82,1.84,1.83v1.83h-16.23c-1.01,0-1.83-.82-1.83-1.83"/><path class="d" d="M191.67,46.99c1.82,0,3.3-1.48,3.3-3.3v-13.93h0c-.18-5.36-4.6-9.67-10.01-9.67h-9.49c-5.52,0-10.01,4.49-10.01,10.01v13.47c0,1.82,1.48,3.3,3.3,3.3s3.3-1.48,3.3-3.3v-13.47c0-1.89,1.53-3.42,3.42-3.42h9.49c1.89,0,3.42,1.53,3.42,3.42v13.58c0,1.82,1.48,3.3,3.3,3.3"/><path class="d" d="M283.65,29.26c-.44-5.12-4.74-9.15-9.97-9.15h-9.5c-2.58,0-4.93,.99-6.71,2.61-1.78-1.61-4.13-2.61-6.72-2.61h-9.49c-5.52,0-10.01,4.49-10.01,10.01v13.47c0,1.82,1.47,3.3,3.3,3.3s3.29-1.48,3.29-3.3v-13.47c0-1.89,1.54-3.42,3.42-3.42h9.49c1.89,0,3.42,1.53,3.42,3.42v13.58h0c.06,1.77,1.51,3.19,3.29,3.19s3.23-1.42,3.29-3.19h0v-13.58c0-1.89,1.53-3.42,3.42-3.42h9.5c1.89,0,3.42,1.53,3.42,3.42v13.58c0,1.82,1.48,3.3,3.3,3.3s3.3-1.48,3.3-3.3v-13.93c0-.17-.02-.34-.04-.51"/><path class="d" d="M227.88,43.74c0-1.82-1.48-3.3-3.3-3.3h-16.22c-1.89,0-3.42-1.53-3.42-3.42v-.27h19.65c1.82-.01,3.29-1.49,3.29-3.31,0-.1,0-.2-.02-.3v-3.3h-.01c-.14-5.4-4.57-9.75-10-9.75h-9.5c-5.52,0-10.01,4.49-10.01,10.01v6.91c0,5.52,4.49,10.01,10.01,10.01h16.22c1.82,0,3.3-1.47,3.3-3.3m-19.52-17.05h9.5c1.89,0,3.42,1.53,3.42,3.42v.04h-16.34v-.04c0-1.89,1.53-3.42,3.42-3.42"/><path class="d" d="M101.81,33.24c-.33,0-.64,0-.97,.03v-.03C100.84,15.01,83.97,.23,63.18,.23,45.46,.23,30.61,10.95,26.58,25.38c4.67,.39,8.69,3.09,10.9,6.96-3.84-2.68-8.51-4.25-13.55-4.25C10.84,28.08,.23,38.7,.23,51.79s10.61,23.7,23.7,23.7c9.34,0,17.41-5.4,21.27-13.24,5.34,2.54,11.46,3.99,17.97,3.99,13.29,0,24.97-6.03,31.67-15.15-1.17,3.3-3.18,6.27-5.82,8.72,3,3.75,7.61,6.15,12.78,6.15,9.03,0,16.36-7.33,16.36-16.37s-7.32-16.36-16.36-16.36M32.78,69.49c-7.67,0-13.89-6.22-13.89-13.89s6.22-13.89,13.89-13.89,13.89,6.22,13.89,13.89-6.21,13.89-13.89,13.89m42.31-13.89c-14.1,0-25.53-10.01-25.53-22.37s11.43-22.37,25.53-22.37,25.53,10.02,25.53,22.37-11.43,22.37-25.53,22.37m42.35-3.37c0,5.29-4.3,9.59-9.59,9.59s-9.59-4.3-9.59-9.59,4.29-9.6,9.59-9.6,9.59,4.29,9.59,9.6"/><path class="d" d="M180.4,63.06h-6.31c-.78,0-1.42-.63-1.42-1.41v-1.36c.21,.04,.43,.06,.65,.07h5.55c.75,0,1.36-.61,1.36-1.36s-.61-1.36-1.36-1.36h-5.5c-.38,0-.7-.31-.7-.7v-.91c0-.75-.61-1.36-1.36-1.36s-1.36,.61-1.36,1.36v5.63c0,2.28,1.86,4.14,4.14,4.14h6.31c.75,0,1.36-.61,1.36-1.36s-.61-1.36-1.36-1.36"/><path class="d" d="M213.12,57.38h6.39c.75,0,1.36-.61,1.36-1.36s-.61-1.37-1.36-1.37h-6.53s-.1,.01-.14,.01c-2.15,.15-3.85,1.94-3.85,4.12v2.86c0,2.28,1.86,4.14,4.14,4.14h6.39c.75,0,1.36-.61,1.36-1.36s-.61-1.36-1.36-1.36h-6.39c-.78,0-1.42-.63-1.42-1.42v-2.86c0-.78,.64-1.41,1.42-1.41"/><path class="d" d="M139.97,54.66h-5.06c-2.28,0-4.14,1.86-4.14,4.14v5.63c0,.75,.61,1.36,1.36,1.36s1.36-.61,1.36-1.36v-5.63c0-.78,.63-1.41,1.41-1.41h5.06c.75,0,1.36-.61,1.36-1.36s-.61-1.36-1.36-1.36"/><path class="d" d="M245.38,54.66h-5.06c-2.28,0-4.14,1.86-4.14,4.14v5.63c0,.75,.61,1.36,1.36,1.36s1.36-.61,1.36-1.36v-5.63c0-.78,.63-1.41,1.41-1.41h5.06c.75,0,1.36-.61,1.36-1.36s-.61-1.36-1.36-1.36"/><path class="d" d="M153.11,61.53c.75,0,1.36-.61,1.36-1.36,0-.02,0-.04,0-.06v-1.43h0c-.06-2.23-1.89-4.03-4.14-4.03h-3.93c-2.28,0-4.14,1.86-4.14,4.14v2.86c0,2.28,1.86,4.14,4.14,4.14h6.71c.75,0,1.36-.61,1.36-1.36s-.61-1.36-1.36-1.36h-6.71c-.78,0-1.41-.63-1.41-1.41v-.11h8.12Zm-6.71-4.16h3.93c.78,0,1.41,.64,1.41,1.41v.02h-6.76v-.02c0-.78,.63-1.41,1.41-1.41"/><path class="d" d="M164.05,54.65h-3.93c-2.28,0-4.14,1.86-4.14,4.14v5.63c0,.75,.61,1.36,1.36,1.36s1.36-.61,1.36-1.36v-5.63c0-.78,.63-1.41,1.41-1.41h3.93c.78,0,1.41,.63,1.41,1.41v5.63c0,.75,.61,1.36,1.36,1.36s1.36-.61,1.36-1.36v-5.78s0-.1-.02-.14c-.15-2.15-1.94-3.85-4.12-3.85"/><path class="d" d="M198.3,54.66s-.07,0-.1,0h-7.51c-.75,0-1.36,.61-1.36,1.36s.61,1.36,1.36,1.36h7.41c.42,0,.76,.34,.76,.76v.77c-.18-.04-.36-.07-.55-.08-.04,0-.07,0-.1,0h-6.15s-.07,0-.1,0c-1.83,.1-3.29,1.62-3.29,3.47s1.51,3.43,3.38,3.48h8.24c.72-.04,1.29-.63,1.29-1.36v-6.3h0c-.01-1.85-1.46-3.35-3.28-3.46m-6.91,7.64c0-.42,.34-.76,.76-.76h5.95c.42,0,.76,.34,.76,.76v.76h-6.71c-.42,0-.76-.34-.76-.76"/><path class="d" d="M231.27,54.66s-.07,0-.1,0h-7.51c-.75,0-1.36,.61-1.36,1.36s.61,1.36,1.36,1.36h7.41c.42,0,.76,.34,.76,.76v.77c-.18-.04-.36-.07-.55-.08-.04,0-.07,0-.1,0h-6.15s-.07,0-.1,0c-1.83,.1-3.29,1.62-3.29,3.47s1.51,3.43,3.39,3.48h8.24c.72-.04,1.29-.63,1.29-1.36v-6.3h0c-.01-1.85-1.46-3.35-3.28-3.46m-6.91,7.64c0-.42,.34-.76,.76-.76h5.95c.42,0,.76,.34,.76,.76v.76h-6.71c-.42,0-.76-.34-.76-.76"/></g></g></g></svg>