<?xml version="1.0" encoding="UTF-8"?>
<svg xmlns="http://www.w3.org/2000/svg" xmlns:xlink="http://www.w3.org/1999/xlink" viewBox="0 0 1920 1080.5" shape-rendering="geometricPrecision" text-rendering="geometricPrecision">
  <style>
    svg {
      transform: rotate(90deg);
    }
    
    path {
      --d: 5000ms;

      fill: #fff;
      transform-origin: center;
    }

    #leftBotCircle {
      animation: up_down var(--d) linear infinite normal forwards;
    }

    #leftTopCircle {
      animation: up_down var(--d) ease infinite normal forwards;
      animation-delay: 1000ms;

    }

    #leftBotSquare {
      animation: up_down var(--d) ease infinite normal forwards;
      animation-delay: 500ms;
    }

    #rightBotSquare {
      animation: up_down var(--d) ease infinite normal forwards;
      animation-delay: 250ms;
    }

    #rightTopSquare {
      animation: up_down var(--d) ease infinite normal forwards;
      animation-delay: 750ms;
    }

    #rightTopCircle {
      animation: up_down var(--d) ease infinite normal forwards;
      animation-delay: 1250ms;
    }

    #leftTopArrow {
      animation: twist var(--d) ease infinite normal forwards;
    }

    #leftBotArrow {
      animation: twist var(--d) ease infinite normal forwards;
      animation-direction: reverse;
    }

    #rightTopArrow {
      animation: twist var(--d) ease infinite normal forwards;
      animation-direction: reverse;
    }

    #rightBotArrow {
      animation: twist var(--d) ease infinite normal forwards;
    }

    @keyframes up_down {

      0%,
      100% {
        transform: translate(0, 0)
      }

      50% {
        transform: translate(0, 2%)
      }
    }

    @keyframes twist {

      0%,
      100% {
        transform: rotate(0deg)
      }

      50% {
        transform: rotate(2deg)
      }
    }
  </style>
  <path id="leftTopCircle" d="M189.82,427.8c18.88,0,34.19-15.3,34.19-34.19s-15.31-34.19-34.19-34.19-34.19,15.31-34.19,34.19s15.31,34.19,34.19,34.19Z" opacity="0.5"></path>
  <path id="leftBotCircle" d="M32.3,902.37c51.08,0,92.5-41.4,92.5-92.5s-41.42-92.5-92.5-92.5-92.5,41.43-92.5,92.5s41.42,92.5,92.5,92.5Z" opacity="0.5"></path>
  <path id="leftTopArrow" d="M375.5,301.54c-.03.78-.36,1.5-.9,2.04-.55.54-1.27.86-2.04.89h-56.36c-.78,0-1.52-.3-2.08-.85-.55-.56-.86-1.3-.86-2.09v-87.4c.02-.39-.03-.78-.18-1.14-.14-.37-.36-.69-.63-.98-.27-.28-.61-.49-.98-.63s-.75-.2-1.15-.19h-87.39c-.78,0-1.52-.3-2.08-.85-.55-.56-.86-1.3-.86-2.09v-56.35c-.02-.39.04-.78.18-1.14.14-.37.36-.69.63-.98.27-.27.61-.49.98-.63s.76-.2,1.14-.19h149.62c.78,0,1.52.3,2.08.86.55.56.86,1.3.86,2.07v149.65h.02Z" opacity="0.9"></path>
  <path id="leftBotArrow" d="M347.13,966.88c.11.5.03,1.01-.23,1.44-.25.43-.66.76-1.14.91l-35.72,9.57c-.49.13-1.02.07-1.46-.19s-.77-.68-.9-1.18l-14.84-55.38c-.05-.25-.15-.49-.31-.7-.15-.21-.34-.38-.56-.51s-.47-.21-.73-.23-.51,0-.76.08L235.1,935.53c-.49.13-1.02.07-1.46-.19s-.77-.68-.9-1.18l-9.57-35.71c-.08-.24-.1-.5-.08-.75.02-.26.11-.5.23-.73.13-.22.3-.42.51-.56.21-.15.45-.25.69-.31l94.82-25.41c.49-.13,1.02-.07,1.46.19s.77.68.9,1.17l25.41,94.82h.01Z" opacity="0.5"></path>
  <path id="rightTopArrow" d="M1472.5,494.38c-.07-.23-.23-.42-.43-.54-.21-.12-.46-.16-.7-.1l-17.05,4.57c-.24.06-.44.22-.56.43s-.16.46-.09.7l7.09,26.45c.03.12.05.24.04.36s-.05.24-.12.35c-.05.11-.15.2-.24.27s-.21.12-.34.15l-26.45,7.09c-.24.06-.44.22-.56.43s-.16.46-.09.7l4.57,17.05c.03.12.08.23.15.33s.16.18.27.24.23.1.35.11.24,0,.36-.03l45.29-12.14c.24-.06.44-.21.56-.43.12-.21.16-.46.09-.7l-12.13-45.29v0Z" opacity="0.5"></path>
  <path id="rightBotArrow" d="M1945.13,822.09c.11.5.03,1.01-.23,1.44-.25.43-.66.76-1.14.91l-35.71,9.57c-.5.13-1.02.07-1.46-.19s-.76-.68-.9-1.18l-14.84-55.38c-.05-.25-.16-.49-.31-.7s-.35-.38-.56-.51c-.23-.13-.47-.21-.72-.23-.27-.02-.52,0-.76.08l-55.39,14.84c-.48.13-1.02.07-1.46-.19s-.76-.68-.9-1.18l-9.57-35.71c-.07-.24-.09-.5-.08-.75.03-.26.11-.5.24-.73.12-.22.29-.42.51-.56.21-.15.44-.25.7-.31l94.82-25.41c.48-.13,1.02-.07,1.46.19s.76.68.9,1.16l25.4,94.82h.01Z" opacity="0.5"></path>
  <path id="rightBotSquare" d="M1736.72,842.72c-6.35-6.6-18.97-7.01-35.19-7.38h-.36c-16.22.37-28.84.77-35.19,7.38-6.72,6.53-7.16,19.21-7.52,35.5.19,16.3,1.18,28.61,7.52,35.36c6.35,6.75,18.97,7.19,35.19,7.56h.38c16.21-.37,28.84-.81,35.19-7.56c6.34-6.75,7.33-19.06,7.52-35.36-.36-16.3-.8-28.98-7.52-35.5h-.01Z" opacity="0.9"></path>
  <path id="leftBotSquare" d="M200.5,679.38c-3.07-3.2-9.19-3.39-17.04-3.57h-.18c-7.85.18-13.97.38-17.04,3.57-3.25,3.16-3.47,9.3-3.65,17.2.09,7.89.57,13.86,3.65,17.13c3.07,3.27,9.19,3.48,17.05,3.66h.17c7.86-.18,13.97-.39,17.05-3.66s3.56-9.23,3.65-17.13c-.18-7.89-.39-14.04-3.65-17.2v0Z" opacity="0.5"></path>
  <path id="rightTopSquare" d="M1453.36,215.08c-4.34-10.39-18.63-16.45-37.07-24.08-.08-.03-.15-.05-.21-.08-.07-.03-.13-.05-.2-.08-18.77-6.78-33.42-11.92-43.62-7.17-10.6,4.5-16.73,18.85-24.39,37.37-7.02,18.77-11.35,33.32-7.07,43.88c4.28,10.55,18.56,16.67,37,24.29l.42.16c18.75,6.78,33.42,11.88,43.7,6.96c10.28-4.91,16.88-18.6,24.33-37.2c6.81-18.85,11.94-33.58,7.13-44.05h-.01Z" opacity="0.5"></path>
  <path id="rightTopCircle" d="M1917.86,211.96c34.43,0,62.34-27.9,62.34-62.34s-27.91-62.34-62.34-62.34-62.34,27.92-62.34,62.34s27.91,62.34,62.34,62.34Z" opacity="0.9"></path>
</svg>
