<?xml version="1.0" encoding="UTF-8"?><svg xmlns="http://www.w3.org/2000/svg" viewBox="0 0 334.59 57.18"><defs><style>.d{fill:#fff;stroke:#fff;stroke-miterlimit:10;stroke-width:.46px;}.e{opacity:.5;}</style></defs><g id="a"/><g id="b"><g id="c"><g class="e"><path class="d" d="M170.49,.23h-19.74V56.95h19.74c9.93,0,18.01-8.08,18.01-18.01,0-3.66-1.17-7.33-3.3-10.35,2.13-3.02,3.3-6.69,3.3-10.35,0-9.93-8.08-18.01-18.01-18.01Zm-3.42,33.57v-10.42l12.01,5.21-12.01,5.21Zm-3.25-15.31v20.3l18.81-8.2c1.69,2.45,2.61,5.41,2.61,8.35,0,8.14-6.62,14.76-14.76,14.76h-16.5V3.48h16.5c8.14,0,14.76,6.62,14.76,14.76,0,2.95-.93,5.91-2.62,8.36l-18.81-8.11Z"/><path class="d" d="M13.11,32.76c-.28-.39-.65-.72-1.11-.98-.46-.27-1.02-.61-1.67-.72h0c.92-.21,1.64-.78,2.15-1.47,.51-.7,.77-1.64,.77-2.79,0-1.03-.19-1.86-.57-2.47-.38-.61-.86-1.08-1.42-1.4-.56-.32-1.18-.53-1.82-.62-.65-.09-1.26-.14-1.82-.14H.27l.49,3.09v15.77H7.5c.59,0,1.26-.05,2-.16,.74-.11,1.44-.35,2.1-.71,.65-.36,1.21-.91,1.65-1.62,.44-.71,.67-1.69,.67-2.92,0-.53-.07-1.05-.19-1.54-.13-.49-.34-.93-.62-1.32ZM4.14,24.62h2.99c.32,0,.63,.05,.94,.14,.31,.09,.58,.24,.81,.44,.23,.2,.42,.46,.56,.79,.14,.33,.22,.73,.22,1.19,0,.59-.08,1.07-.24,1.44-.16,.37-.37,.67-.61,.88-.25,.22-.53,.37-.83,.45-.3,.08-.59,.13-.86,.13h-2.97v-5.45Zm5.87,12.38c-.19,.42-.45,.75-.75,.98-.3,.23-.64,.39-.99,.48-.35,.08-.69,.12-1.01,.12h-3.12v-6.19h3.17c.38,0,.76,.05,1.11,.15,.35,.1,.68,.27,.95,.5,.28,.23,.51,.54,.68,.92,.17,.38,.25,.85,.25,1.4,0,.66-.1,1.21-.29,1.62Z"/><polygon class="d" points="38.48 38.42 38.48 22.17 35.02 22.17 35.03 25.26 35.03 41.03 46.31 41.03 46.31 37.84 43.2 38.42 38.48 38.42"/><polygon class="d" points="52.25 38.42 52.25 22.17 48.8 22.17 48.8 25.26 48.8 41.03 60.08 41.03 60.08 37.84 56.97 38.42 52.25 38.42"/><polygon class="d" points="91.65 25.26 94.68 24.71 97.33 24.71 97.33 41.03 100.78 41.03 100.78 24.71 103.45 24.71 106.46 25.26 106.46 22.17 91.65 22.17 91.65 25.26"/><polygon class="d" points="112.72 38.46 112.72 32.57 119.07 32.57 119.07 29.95 112.72 29.95 112.72 24.77 118.3 24.78 121.32 25.15 121.34 22.19 108.78 22.19 109.27 25.27 109.28 41.04 121.39 41.04 121.39 38.17 118.31 38.46 112.72 38.46"/><polygon class="d" points="66.05 38.45 66.05 32.56 72.39 32.56 72.39 29.94 66.05 29.94 66.05 24.76 71.62 24.77 74.64 25.14 74.66 22.17 62.1 22.17 62.6 25.26 62.6 41.03 74.71 41.03 74.71 38.16 71.63 38.45 66.05 38.45"/><path class="d" d="M133.09,32.93c.45-.12,.9-.33,1.32-.6,.43-.28,.82-.63,1.15-1.07,.34-.43,.62-.95,.83-1.54,.21-.59,.32-1.26,.32-2.01,0-1.27-.2-2.28-.61-3-.4-.73-.91-1.28-1.5-1.66-.6-.37-1.24-.62-1.91-.72-.68-.11-1.3-.16-1.85-.16h-7.23l.49,3.09v15.77h3.45v-7.39h2.15l.02,.04,4.6,7.35h3.76l-5.08-8.06,.1-.03Zm-3.39-1.75h-2.2v-6.57h2.62c.32,0,.65,.04,.99,.12,.35,.08,.67,.24,.97,.48,.3,.23,.54,.56,.73,.98,.18,.42,.28,.95,.28,1.59,0,1.05-.28,1.88-.84,2.48-.56,.6-1.41,.91-2.55,.91Z"/><path class="d" d="M22.47,22.18l-7.04,18.86h3.11l1.47-4.13c.04-.12,.11-.23,.21-.31,.98-.84,2.28-1.07,3.82-1.07s2.79,.13,3.9,1.15c.09,.08,.15,.18,.19,.29l1.51,4.08h2.85l-6.62-18.86h-3.4Zm1.58,10.62c-.95,0-1.89,.15-2.77,.43l2.65-7.56,2.8,7.53c-.86-.26-1.76-.4-2.68-.4Z"/><path class="d" d="M207.3,22.17l-7.04,18.86h3.11l1.47-4.13c.04-.12,.11-.23,.21-.31,.98-.84,2.28-1.07,3.82-1.07s2.79,.13,3.9,1.15c.09,.08,.15,.18,.19,.29l1.51,4.08h2.85l-6.62-18.86h-3.4Zm1.58,10.62c-.95,0-1.89,.15-2.77,.43l2.66-7.56,2.8,7.53c-.86-.26-1.76-.4-2.68-.4Z"/><path class="d" d="M296.27,22.17l-7.04,18.86h3.11l1.47-4.13c.04-.12,.11-.23,.21-.31,.98-.84,2.28-1.07,3.82-1.07s2.79,.13,3.9,1.15c.09,.08,.15,.18,.19,.29l1.51,4.08h2.85l-6.62-18.86h-3.4Zm1.58,10.62c-.95,0-1.89,.15-2.77,.43l2.66-7.56,2.8,7.53c-.86-.26-1.76-.4-2.68-.4Z"/><path class="d" d="M334.08,34.33c-.18-.5-.49-.98-.92-1.41-.43-.44-1-.87-1.7-1.29-.7-.42-1.59-.88-2.63-1.37-.64-.29-1.2-.57-1.66-.83-.46-.26-.85-.53-1.14-.8-.29-.27-.52-.55-.66-.85-.14-.3-.22-.64-.22-1.01,0-.71,.24-1.27,.72-1.68,.47-.4,1.2-.6,2.17-.6,.33,0,.7,.03,1.11,.1,.41,.06,.78,.17,1.12,.32h.02l2.56,1.61c.23-.42,.3-.56,.46-1.03,.17-.48,.28-1.08,.35-1.79-.44-.28-.89-.53-1.32-.74-.45-.22-.92-.41-1.4-.55-.48-.14-.99-.25-1.51-.32-.52-.07-1.1-.11-1.72-.11-.81,0-1.61,.08-2.35,.24-.74,.16-1.41,.43-1.97,.8-.56,.37-1.02,.87-1.37,1.49-.35,.62-.52,1.4-.52,2.33,0,.73,.13,1.37,.4,1.92,.27,.55,.64,1.04,1.11,1.47,.47,.43,1.03,.82,1.65,1.16,.63,.34,1.32,.69,2.06,1.03,.64,.31,1.21,.59,1.7,.84,.49,.26,.91,.53,1.25,.81,.34,.29,.61,.61,.79,.95,.18,.35,.27,.75,.27,1.19,0,.54-.1,.98-.29,1.32-.2,.34-.46,.61-.79,.8-.33,.19-.71,.33-1.13,.4-.87,.15-1.82,.14-2.69-.01-.47-.08-.87-.2-1.2-.35l-.02-.02-2.61-1.67c-.58,.99-.71,1.69-.76,2.8,.82,.56,1.8,1.02,2.89,1.36,1.11,.35,2.32,.53,3.57,.53,.68,0,1.42-.08,2.21-.23,.78-.15,1.51-.43,2.17-.82,.66-.39,1.22-.93,1.65-1.62,.43-.68,.65-1.57,.65-2.63,0-.64-.09-1.22-.28-1.73Z"/><path class="d" d="M88.75,32.89c-.43-.44-1-.87-1.7-1.29-.7-.42-1.59-.88-2.63-1.37-.64-.29-1.2-.57-1.66-.83-.46-.26-.85-.53-1.14-.8-.29-.27-.52-.55-.66-.85-.14-.3-.22-.64-.22-1.01,0-.71,.24-1.27,.72-1.68,.47-.4,1.2-.6,2.17-.6,.33,0,.7,.03,1.11,.1,.41,.06,.78,.17,1.12,.32h.02l2.56,1.61c.23-.42,.3-.56,.46-1.03,.17-.48,.28-1.08,.35-1.79-.44-.28-.89-.53-1.32-.75-.45-.22-.92-.41-1.4-.55-.48-.14-.99-.25-1.51-.32-.52-.07-1.1-.11-1.72-.11-.81,0-1.61,.08-2.35,.24-.74,.16-1.41,.43-1.97,.8-.56,.37-1.02,.87-1.37,1.49-.35,.62-.52,1.4-.52,2.33,0,.73,.13,1.37,.4,1.92,.27,.55,.64,1.04,1.11,1.47,.47,.43,1.03,.82,1.65,1.16,.63,.34,1.32,.69,2.06,1.03,.64,.31,1.21,.59,1.7,.84,.49,.26,.91,.53,1.25,.81,.34,.29,.61,.61,.79,.95,.18,.35,.27,.75,.27,1.19,0,.54-.1,.98-.29,1.32-.2,.34-.46,.61-.79,.8-.33,.19-.71,.33-1.13,.4-.87,.15-1.82,.14-2.69-.01-.47-.08-.87-.2-1.2-.35l-.02-.02-2.61-1.67c-.58,.99-.71,1.69-.76,2.8,.82,.56,1.8,1.02,2.89,1.36,1.11,.35,2.32,.53,3.57,.53,.68,0,1.42-.08,2.21-.23,.78-.15,1.51-.43,2.17-.82,.66-.39,1.22-.93,1.65-1.62,.43-.68,.65-1.57,.65-2.63,0-.64-.09-1.22-.28-1.73-.18-.5-.49-.98-.92-1.41Z"/><path class="d" d="M219.86,40.99v-15.68l-.49-3.15h6.63c1.24,0,2.4,.15,3.5,.46,1.09,.3,2.04,.82,2.84,1.53,.8,.72,1.43,1.65,1.89,2.81,.46,1.16,.7,2.6,.7,4.32s-.24,3.17-.73,4.4c-.49,1.23-1.16,2.24-2.01,3.03-.85,.79-1.83,1.37-2.95,1.74-1.12,.37-2.31,.55-3.58,.55h-5.8Zm5.8-2.66c.33,0,.68-.03,1.08-.09s.79-.18,1.2-.36c.41-.18,.81-.43,1.2-.76,.39-.32,.74-.75,1.04-1.27,.3-.52,.55-1.16,.73-1.92s.28-1.66,.28-2.7c0-1.22-.13-2.25-.4-3.07-.27-.82-.65-1.48-1.14-1.97-.49-.49-1.07-.85-1.74-1.05-.67-.21-1.39-.31-2.18-.31h-2.3v13.5h2.23Z"/><path class="d" d="M242.95,40.99l-6.68-18.83h3.79l4.06,12.32,.49,2.04h.1l.51-2.04,3.13-9.6,.27-2.72h4.15l-6.57,18.83h-3.25Z"/><path class="d" d="M262.5,41.26c-1.39,0-2.6-.22-3.64-.66-1.04-.44-1.92-1.08-2.62-1.91-.7-.83-1.23-1.85-1.58-3.04-.35-1.19-.53-2.55-.53-4.08s.18-2.86,.53-4.06c.35-1.2,.88-2.22,1.58-3.05,.7-.83,1.57-1.47,2.62-1.91,1.04-.44,2.26-.66,3.64-.66s2.6,.22,3.64,.66c1.04,.44,1.92,1.08,2.62,1.91,.7,.83,1.23,1.85,1.59,3.05,.36,1.2,.54,2.56,.54,4.06s-.18,2.88-.54,4.08-.89,2.21-1.59,3.04c-.7,.83-1.57,1.47-2.62,1.91-1.04,.44-2.26,.66-3.64,.66Zm0-2.66c.85,0,1.57-.18,2.15-.54s1.06-.85,1.43-1.48c.37-.63,.63-1.37,.79-2.22,.16-.85,.24-1.78,.24-2.78s-.08-1.91-.24-2.77c-.16-.86-.43-1.6-.79-2.23-.37-.63-.84-1.12-1.43-1.48-.59-.36-1.3-.54-2.15-.54s-1.57,.18-2.15,.54c-.59,.36-1.06,.85-1.43,1.48-.37,.63-.63,1.37-.79,2.23-.16,.86-.24,1.78-.24,2.77s.08,1.93,.24,2.78c.16,.85,.43,1.59,.79,2.22,.37,.63,.84,1.12,1.43,1.48s1.3,.54,2.15,.54Z"/><polygon class="d" points="304.64 25.24 307.67 24.68 310.32 24.68 310.32 41.01 313.77 41.01 313.77 24.68 316.44 24.69 319.45 25.24 319.45 22.15 304.64 22.15 304.64 25.24"/><path class="d" d="M287.59,37.41c-.21-.47-.26-.62-.5-1,0,0-2.33,1.58-2.42,1.62-.09,.04-.23,.1-.34,.13-.82,.29-1.59,.44-2.32,.44s-1.38-.13-1.98-.39-1.13-.67-1.57-1.23-.78-1.27-1.03-2.14c-.24-.87-.37-1.92-.37-3.14,0-1.06,.1-2.03,.31-2.9,.2-.87,.51-1.62,.9-2.24,.4-.62,.9-1.1,1.49-1.44,.6-.34,1.29-.51,2.09-.51,.38,0,.76,.04,1.16,.12,.39,.08,.73,.18,1,.3h.02v.02h0l2.7,1.58c.23-.42,.28-.59,.47-1.11,.19-.52,.31-1.17,.34-1.92-.76-.5-1.66-.92-2.67-1.27-.08-.03-.17-.04-.26-.07h0c-.35-.09-.71-.17-1.1-.24-.56-.09-1.19-.13-1.9-.13-1.26,0-2.39,.21-3.41,.63-1.02,.42-1.89,1.05-2.62,1.88s-1.29,1.86-1.69,3.08c-.4,1.22-.6,2.62-.6,4.2,0,1.38,.13,2.57,.38,3.58,.25,1,.59,1.86,1.02,2.57,.42,.71,.91,1.29,1.47,1.73,.55,.45,1.14,.8,1.76,1.05,.62,.25,1.24,.42,1.86,.51,.62,.09,1.21,.13,1.79,.13,1.34,0,2.53-.2,3.59-.61,.12-.04,.23-.09,.34-.14,.03,0,.05-.02,.08-.03,.92-.38,1.72-.82,2.4-1.32-.08-.69-.22-1.28-.43-1.75Z"/></g></g></g></svg>