<?xml version="1.0" encoding="UTF-8"?><svg xmlns="http://www.w3.org/2000/svg" viewBox="0 0 361.02 33.17"><defs><style>.d{fill:#fff;}.e{opacity:.5;}</style></defs><g id="a"/><g id="b"><g id="c"><g class="e"><g><path class="d" d="M20.86,26.86c0,.82-.11,1.53-.32,2.13-.21,.6-.51,1.12-.9,1.55-.38,.44-.84,.79-1.38,1.06-.53,.27-1.12,.48-1.77,.64-.64,.16-1.33,.27-2.07,.33-.73,.06-1.5,.09-2.28,.09H0V11.63H11.87c.6,0,1.2,.03,1.81,.08,.6,.05,1.18,.15,1.74,.28,.56,.14,1.07,.33,1.55,.57,.48,.25,.89,.57,1.24,.96,.35,.4,.63,.88,.83,1.44,.2,.56,.3,1.22,.3,1.99,0,.69-.09,1.28-.25,1.78-.17,.5-.42,.93-.77,1.28-.34,.36-.78,.65-1.31,.88-.53,.23-1.16,.41-1.87,.54,1.02,.07,1.89,.25,2.62,.52,.73,.27,1.32,.64,1.78,1.1,.46,.46,.8,1.01,1.01,1.64,.21,.64,.32,1.36,.32,2.15Zm-3.33-9.87c0-.3-.02-.59-.06-.89-.04-.3-.13-.58-.27-.85-.14-.27-.35-.52-.62-.76-.27-.23-.64-.44-1.11-.6-.47-.17-1.05-.3-1.73-.4-.69-.1-1.52-.15-2.49-.15H1.92v7.35H11.24c1.38,0,2.48-.1,3.31-.3,.82-.2,1.46-.47,1.91-.8,.44-.34,.73-.73,.87-1.18,.14-.45,.2-.93,.2-1.42Zm1.31,9.84c0-.8-.14-1.47-.41-2.04-.28-.56-.7-1.02-1.27-1.38-.57-.36-1.31-.62-2.2-.79-.9-.17-1.97-.25-3.2-.25H1.92v8.56H12.02c1.28,0,2.35-.07,3.22-.22,.87-.15,1.58-.39,2.12-.72,.53-.33,.92-.76,1.15-1.28,.23-.52,.34-1.15,.34-1.88Z"/><path class="d" d="M27.95,25.39c0,.95,.08,1.76,.23,2.45,.15,.68,.48,1.25,.96,1.69,.49,.44,1.2,.76,2.12,.97,.93,.21,2.15,.31,3.68,.31h9.51v1.85h-9.89c-1.68,0-3.07-.14-4.17-.41-1.1-.27-1.97-.69-2.61-1.26-.65-.57-1.1-1.28-1.36-2.15-.26-.87-.38-1.9-.38-3.09V11.63h1.91v13.76Z"/><path class="d" d="M50.15,11.63v13.88c0,1.17,.14,2.14,.44,2.89,.31,.76,.75,1.35,1.32,1.78,.58,.43,1.28,.74,2.1,.9,.82,.17,1.75,.25,2.77,.25,1.2,0,2.37-.15,3.51-.44,1.14-.29,2.22-.66,3.23-1.1,1.01-.44,1.93-.94,2.78-1.48,.84-.54,1.56-1.06,2.15-1.56V11.63h1.94v21.03h-1.94v-3.7c-.72,.46-1.5,.94-2.34,1.43-.85,.5-1.76,.95-2.75,1.36-.99,.41-2.04,.75-3.16,1.02-1.12,.26-2.32,.4-3.57,.4-1.42,0-2.66-.18-3.71-.54-1.06-.36-1.93-.86-2.63-1.5-.7-.64-1.22-1.41-1.57-2.29-.34-.88-.52-1.85-.52-2.92V11.63h1.94Z"/><path class="d" d="M98.7,31.56c-.86,.27-1.65,.49-2.39,.68-.74,.19-1.46,.34-2.17,.46-.71,.12-1.44,.21-2.18,.26-.74,.06-1.56,.08-2.44,.08-2.06,0-3.92-.25-5.59-.75-1.66-.5-3.08-1.21-4.25-2.15-1.17-.93-2.07-2.06-2.7-3.39-.63-1.32-.95-2.82-.95-4.47s.3-3.07,.91-4.41c.61-1.34,1.46-2.48,2.55-3.44,1.09-.96,2.4-1.71,3.92-2.23,1.52-.53,3.2-.8,5.04-.8s3.61,.26,5.1,.77c1.49,.51,2.74,1.24,3.77,2.19,1.02,.95,1.8,2.1,2.33,3.45,.53,1.35,.8,2.87,.8,4.57v.48h-22.43c.11,1.31,.44,2.48,.98,3.54,.54,1.05,1.31,1.94,2.3,2.68,.99,.73,2.22,1.3,3.67,1.69,1.45,.39,3.15,.59,5.09,.59,.83,0,1.66-.05,2.51-.17,.85-.11,1.66-.26,2.43-.45,.78-.19,1.49-.4,2.13-.64,.64-.24,1.17-.49,1.58-.74v2.22Zm-.15-10.38c-.07-1.07-.31-2.09-.72-3.07-.41-.97-1.02-1.83-1.83-2.58-.81-.74-1.84-1.34-3.09-1.77-1.25-.44-2.75-.66-4.49-.66-1.64,0-3.08,.22-4.32,.66-1.23,.44-2.28,1.03-3.14,1.77-.85,.74-1.53,1.6-2.02,2.57-.49,.97-.8,2-.93,3.08h20.55Z"/><path class="d" d="M107.95,11.63v3.23c.45-.39,.95-.8,1.5-1.24,.55-.44,1.16-.84,1.82-1.21,.66-.37,1.38-.67,2.16-.92,.77-.25,1.61-.37,2.5-.37,1.42,0,2.68,.32,3.76,.96,1.1,.64,1.98,1.63,2.65,2.96,.65-.6,1.32-1.14,2.02-1.63,.7-.49,1.41-.9,2.14-1.23,.73-.34,1.48-.6,2.26-.78,.78-.18,1.58-.28,2.4-.28,1.05,0,2.01,.18,2.87,.54,.86,.36,1.6,.85,2.2,1.47,.6,.62,1.07,1.36,1.4,2.19,.33,.84,.5,1.74,.5,2.71v14.63h-1.91v-14.15c0-.88-.1-1.66-.31-2.35-.21-.69-.54-1.27-.98-1.75-.44-.48-1.01-.85-1.7-1.09-.69-.25-1.52-.37-2.47-.37-.77,0-1.52,.11-2.27,.33-.75,.22-1.47,.51-2.15,.87-.68,.36-1.32,.77-1.91,1.23-.59,.46-1.11,.93-1.56,1.42,.05,.29,.08,.53,.08,.74,0,.2,0,.45,0,.73v14.39h-1.91v-14.15c0-1.04-.14-1.92-.41-2.63-.27-.71-.66-1.28-1.15-1.72-.49-.44-1.07-.75-1.74-.94-.67-.19-1.4-.28-2.18-.28s-1.48,.13-2.21,.38c-.73,.25-1.43,.59-2.09,1-.66,.41-1.28,.86-1.84,1.37-.56,.51-1.05,1.01-1.46,1.51v15.46h-1.91V11.63h1.91Z"/><path class="d" d="M192.19,32.67v-13.89c0-1.16-.16-2.12-.46-2.87-.32-.75-.76-1.34-1.34-1.78-.57-.44-1.28-.75-2.1-.92-.83-.17-1.76-.26-2.79-.26-1.2,0-2.37,.14-3.51,.43-1.15,.29-2.24,.66-3.25,1.1-1.02,.44-1.96,.94-2.82,1.48-.86,.54-1.58,1.06-2.17,1.56v15.14h-1.92V11.63h1.92v3.69c.71-.45,1.5-.92,2.36-1.42,.86-.5,1.79-.95,2.79-1.36,.99-.41,2.06-.75,3.19-1.02,1.13-.27,2.33-.4,3.59-.4,1.42,0,2.66,.17,3.71,.51,1.05,.34,1.93,.83,2.63,1.45,.7,.63,1.22,1.39,1.57,2.28,.35,.89,.52,1.89,.52,2.99v14.3h-1.91Z"/><path class="d" d="M222.93,22.13c0,1.35-.14,2.55-.42,3.59-.28,1.05-.68,1.96-1.19,2.73-.51,.78-1.13,1.43-1.86,1.98-.73,.54-1.54,.98-2.43,1.3-.9,.33-1.86,.56-2.91,.71-1.04,.15-2.14,.22-3.3,.22h-10.86V11.62h10.82c1.73,0,3.33,.17,4.81,.51,1.48,.34,2.76,.91,3.85,1.72,1.08,.81,1.94,1.89,2.56,3.24,.62,1.35,.92,3.03,.92,5.04Zm-1.97,0c0-1.14-.11-2.15-.34-3.03-.23-.88-.55-1.64-.97-2.29-.42-.65-.93-1.19-1.53-1.63-.6-.44-1.28-.79-2.04-1.06-.76-.27-1.58-.46-2.46-.57-.89-.11-1.83-.17-2.83-.17h-8.91V30.91h8.91c1.5,0,2.88-.14,4.12-.4,1.25-.27,2.32-.74,3.21-1.41,.9-.67,1.59-1.57,2.09-2.69,.5-1.13,.75-2.55,.75-4.26Z"/><path class="d" d="M143.23,22.16c0-1.35,.14-2.55,.42-3.59,.28-1.05,.68-1.96,1.19-2.74,.51-.78,1.13-1.43,1.86-1.98,.73-.54,1.54-.98,2.44-1.3,.89-.33,1.86-.56,2.91-.71,1.05-.15,2.15-.22,3.3-.22h10.85v21.05h-10.82c-1.72,0-3.33-.17-4.81-.5-1.48-.34-2.76-.91-3.85-1.73-1.09-.81-1.94-1.89-2.56-3.24-.62-1.35-.93-3.03-.93-5.04Zm1.98,0c0,1.14,.11,2.15,.33,3.03,.23,.88,.55,1.64,.97,2.29,.42,.65,.92,1.19,1.53,1.63,.6,.44,1.28,.79,2.04,1.06,.75,.27,1.58,.46,2.46,.57,.89,.11,1.83,.17,2.83,.17h8.91V13.38h-8.91c-1.5,0-2.87,.14-4.12,.4-1.24,.27-2.31,.74-3.2,1.41-.9,.67-1.59,1.57-2.09,2.69-.5,1.13-.75,2.55-.75,4.26Z"/><path class="d" d="M227.39,22.16c0-1.35,.14-2.55,.42-3.59,.28-1.05,.67-1.96,1.19-2.74,.51-.78,1.13-1.43,1.86-1.98,.73-.54,1.54-.98,2.43-1.3,.9-.33,1.86-.56,2.91-.71,1.04-.15,2.14-.22,3.3-.22h10.86v21.05h-10.82c-1.72,0-3.33-.17-4.81-.5-1.48-.34-2.76-.91-3.85-1.73-1.09-.81-1.94-1.89-2.56-3.24-.61-1.35-.93-3.03-.93-5.04Zm1.98,0c0,1.14,.11,2.15,.34,3.03,.22,.88,.55,1.64,.97,2.29,.42,.65,.92,1.19,1.53,1.63,.61,.44,1.28,.79,2.03,1.06,.76,.27,1.58,.46,2.46,.57,.89,.11,1.83,.17,2.83,.17h8.91V13.38h-8.91c-1.5,0-2.87,.14-4.12,.4-1.24,.27-2.31,.74-3.21,1.41-.89,.67-1.59,1.57-2.09,2.69-.5,1.13-.75,2.55-.75,4.26Z"/><path class="d" d="M270.7,12.96c-.52-.11-1.2-.16-2.03-.16-1.14,0-2.22,.14-3.22,.42-1,.28-1.94,.66-2.8,1.14-.86,.48-1.66,1.04-2.4,1.68-.73,.64-1.4,1.31-1.99,2.03v14.61h-1.92V11.63h1.92v4.29c.68-.7,1.43-1.35,2.22-1.94,.8-.59,1.65-1.1,2.54-1.52,.89-.42,1.82-.76,2.79-1,.97-.24,1.99-.36,3.03-.36,.36,0,.68,0,.96,.02,.29,.01,.55,.04,.79,.06,.24,.02,.47,.05,.68,.08,.21,.03,.43,.07,.66,.11v1.88c-.3-.09-.71-.19-1.23-.3Z"/><path class="d" d="M276.03,32.67V11.63h1.92v21.03h-1.92Z"/><path class="d" d="M304.83,32.67v-13.89c0-1.16-.16-2.12-.47-2.87-.31-.75-.76-1.34-1.33-1.78-.58-.44-1.28-.75-2.11-.92-.82-.17-1.75-.26-2.79-.26-1.19,0-2.37,.14-3.51,.43-1.15,.29-2.23,.66-3.25,1.11-1.02,.44-1.96,.94-2.82,1.48-.86,.54-1.58,1.06-2.18,1.56v15.14h-1.91V11.63h1.91v3.69c.71-.45,1.5-.92,2.37-1.42,.86-.5,1.79-.95,2.79-1.36,1-.41,2.06-.75,3.19-1.02,1.13-.27,2.33-.4,3.59-.4,1.42,0,2.65,.17,3.71,.51,1.05,.34,1.93,.83,2.63,1.45,.7,.63,1.22,1.39,1.57,2.28,.35,.89,.52,1.89,.52,2.99v14.3h-1.91Z"/><path class="d" d="M334.93,31.56c-.86,.27-1.65,.49-2.39,.68-.73,.19-1.46,.34-2.18,.46-.71,.12-1.44,.21-2.18,.26-.74,.06-1.56,.08-2.44,.08-2.06,0-3.92-.25-5.59-.75-1.66-.5-3.08-1.21-4.25-2.15-1.17-.93-2.07-2.06-2.7-3.39-.64-1.32-.95-2.82-.95-4.47s.3-3.07,.91-4.41c.61-1.34,1.46-2.48,2.55-3.44,1.09-.96,2.4-1.71,3.92-2.23,1.52-.53,3.2-.8,5.04-.8s3.61,.26,5.1,.77c1.49,.51,2.74,1.24,3.77,2.19,1.02,.95,1.8,2.1,2.32,3.45,.53,1.35,.8,2.87,.8,4.57v.48h-22.42c.11,1.31,.44,2.48,.98,3.54,.54,1.05,1.31,1.94,2.3,2.68,1,.73,2.23,1.3,3.68,1.69,1.45,.39,3.15,.59,5.09,.59,.82,0,1.67-.05,2.51-.17,.85-.11,1.66-.26,2.43-.45,.77-.19,1.48-.4,2.13-.64,.64-.24,1.17-.49,1.58-.74v2.22Zm-.15-10.38c-.07-1.07-.31-2.09-.72-3.07-.41-.97-1.02-1.83-1.83-2.58-.81-.74-1.84-1.34-3.09-1.77-1.25-.44-2.75-.66-4.49-.66-1.64,0-3.08,.22-4.32,.66-1.24,.44-2.28,1.03-3.14,1.77-.86,.74-1.53,1.6-2.02,2.57-.49,.97-.8,2-.93,3.08h20.54Z"/><path class="d" d="M359.26,14.74c-.4-.19-.86-.4-1.38-.62-.52-.22-1.11-.42-1.79-.59-.67-.17-1.42-.32-2.25-.44-.84-.11-1.77-.18-2.79-.18-1.24,0-2.34,.07-3.3,.22-.97,.14-1.78,.36-2.45,.66-.67,.3-1.18,.68-1.53,1.14-.35,.46-.53,1.01-.53,1.64,0,.53,.17,1,.5,1.39,.33,.4,.78,.75,1.35,1.06,.57,.31,1.23,.58,1.99,.83,.76,.25,1.57,.49,2.42,.71,.85,.22,1.73,.44,2.63,.66,.9,.22,1.78,.47,2.63,.73,.85,.26,1.66,.55,2.42,.87,.76,.32,1.42,.7,1.99,1.12,.57,.43,1.02,.92,1.35,1.47,.33,.55,.5,1.19,.5,1.91,0,.79-.15,1.47-.44,2.06-.3,.59-.7,1.09-1.2,1.52-.51,.42-1.1,.78-1.78,1.06-.68,.28-1.41,.5-2.18,.67-.77,.16-1.56,.28-2.39,.35-.82,.06-1.63,.1-2.42,.1-1.83,0-3.49-.13-4.97-.4-1.49-.26-2.9-.63-4.25-1.09v-2.34c1.39,.83,2.85,1.39,4.4,1.7,1.54,.31,3.17,.46,4.87,.46,1.2,0,2.32-.07,3.34-.21,1.02-.14,1.9-.37,2.65-.68,.74-.31,1.32-.72,1.74-1.22,.41-.5,.62-1.11,.62-1.84,0-.58-.17-1.09-.5-1.53-.33-.44-.78-.82-1.34-1.16-.57-.33-1.23-.63-1.99-.88-.76-.26-1.56-.49-2.41-.71-.85-.22-1.73-.43-2.62-.64-.91-.21-1.78-.43-2.63-.68-.84-.25-1.65-.52-2.41-.83-.76-.31-1.43-.66-1.99-1.08-.57-.41-1.02-.89-1.35-1.43-.33-.54-.5-1.17-.5-1.88s.13-1.33,.39-1.88c.27-.55,.63-1.02,1.1-1.41,.47-.4,1.01-.73,1.63-1,.62-.27,1.29-.49,2-.64,.71-.16,1.45-.27,2.21-.34,.77-.07,1.52-.11,2.26-.11,.82,0,1.59,.04,2.32,.11,.73,.07,1.43,.16,2.12,.28,.68,.12,1.34,.25,1.99,.4,.65,.15,1.3,.32,1.97,.49v2.2Z"/><path class="d" d="M271.94,5.52c.88,1.4,2.44,2.34,4.22,2.34,2.75,0,4.98-2.23,4.98-4.98,0-1.07-.34-2.07-.92-2.88-2.79,1.81-5.46,3.78-8.28,5.52Z"/></g></g></g></g></svg>