<?xml version="1.0" encoding="UTF-8"?><svg xmlns="http://www.w3.org/2000/svg" viewBox="0 0 262.15 53"><defs><style>.d{fill:#fff;}.e{opacity:.5;}</style></defs><g id="a"/><g id="b"><g id="c"><g class="e"><path class="d" d="M11.53,4.06c0-.57-.18-1.57,.23-1.93,.55-.48,1.65-.6,2.38-.6,2.93,0,4.94,1.97,4.94,4.55,0,3.42-2.33,4.87-5.86,4.91-1.69,0-1.69,.08-1.69-1.65V4.06ZM3.98,20.28c0,2.62,.23,3.46-2.75,3.91-.55,.08-1.24,.2-1.24,.84,0,.6,.46,.85,1.1,.85,.92,0,1.74-.16,2.65-.16,4.3,0,8.6,.16,12.99,.16,2.65,0,5.17-.08,7.55-1.37,2.38-1.33,3.61-3.3,3.61-5.79,0-5.07-4.53-6.8-9.52-7,3.75-.24,8.33-1.33,8.33-5.43,0-2.61-2.2-4.62-4.9-5.43-2.06-.6-5.26-.85-7.5-.85C10.8,0,4.62,.08,1.37,1.05,.82,1.21,.09,1.33,.09,1.97c0,.96,1.28,.77,2.01,.77,2.06,0,1.88,1.21,1.88,2.82v14.72Zm7.55-5.99c0-1.08,.05-1.65,1.24-1.65,1.51,0,2.93,.04,4.25,.72,2.2,1.08,3.25,3.34,3.25,5.51,0,2.98-1.56,5.55-5.26,5.55-3.02,0-3.48-2.01-3.48-4.34v-5.79Z"/><path class="d" d="M47.13,24.86c-3.39,0-5.81-2.33-7.28-4.79-1.42-2.45-2.06-5.27-2.06-8.01,0-4.1,1.83-10.66,7.69-10.66,6.77,0,9.33,7.97,9.33,12.76,0,4.1-1.79,10.7-7.69,10.7m-.55,1.45c8.56,0,16.11-5.39,16.11-13.2C62.68,4.91,54.45,0,45.75,0,41.41,0,37.56,1.25,34.45,3.94c-2.88,2.45-4.62,5.79-4.62,9.34s1.87,7.48,5.21,9.77c3.02,2.09,7.73,3.26,11.53,3.26"/><path class="d" d="M92.69,21.89c-.09,1.33-.05,1.85-1.46,2.58-2.56,1.36-5.81,1.85-8.78,1.85-4.03,0-8.74-.8-12.03-2.98-3.48-2.29-5.81-6.12-5.81-9.98s2.29-7.6,5.9-9.98C74.07,1.09,78.97,0,83.36,0c2.15,0,4.76,.32,6.86,.85,1.24,.32,1.24,.48,1.46,1.61l.37,2.05c.09,.4,.18,.76,.18,1.17,0,.44-.36,.68-.87,.68-2.11,0-2.24-4.79-8.42-4.79-3.02,0-5.81,1.49-7.55,3.62-1.78,2.21-2.51,5.15-2.51,7.8s.68,5.51,2.29,7.72c1.74,2.37,4.48,4.02,7.78,4.02,1.78,0,3.43-.56,4.81-1.53,1.37-1,2.2-2.33,3.02-3.7,.23-.44,.55-.85,1.14-.85,1.01,0,.96,.93,.92,1.53l-.14,1.69Z"/><path class="d" d="M122.89,21.89c-.09,1.33-.05,1.85-1.47,2.58-2.56,1.36-5.81,1.85-8.78,1.85-4.03,0-8.74-.8-12.03-2.98-3.47-2.29-5.81-6.12-5.81-9.98s2.29-7.6,5.9-9.98C104.27,1.09,109.16,0,113.55,0c2.15,0,4.76,.32,6.86,.85,1.24,.32,1.24,.48,1.46,1.61l.37,2.05c.09,.4,.18,.76,.18,1.17,0,.44-.36,.68-.87,.68-2.11,0-2.24-4.79-8.42-4.79-3.02,0-5.81,1.49-7.55,3.62-1.79,2.21-2.51,5.15-2.51,7.8s.68,5.51,2.29,7.72c1.74,2.37,4.48,4.02,7.78,4.02,1.78,0,3.43-.56,4.8-1.53,1.37-1,2.2-2.33,3.02-3.7,.23-.44,.55-.85,1.15-.85,1,0,.96,.93,.91,1.53l-.14,1.69Z"/><path class="d" d="M136.06,7.16l3.02,6.88c.05,.12,.41,.81,.41,1.01,0,.48-1.18,.32-1.51,.32h-3.98c-.41,0-1.37,.16-1.37-.4,0-.28,.32-.93,.41-1.17l3.02-6.64Zm-4.89,5.92l-2.52,5.55c-.5,1.13-1.32,3.22-1.92,4.18-.68,1.09-1.15,1.17-2.47,1.37-.59,.08-1.28,.16-1.28,.84,0,.73,.73,.85,1.42,.85,1.42,0,2.88-.08,4.3-.08s2.88,.08,4.3,.08c.64,0,1.51-.12,1.51-.85,0-1.81-4.53-.08-4.53-2.94,0-1.17,.59-2.57,1.01-3.66,.55-1.29,.41-1.21,2.01-1.21h6c1.65,0,1.51-.08,2.1,1.33l1.46,3.26c.18,.4,.46,1,.46,1.53,0,1.45-3.2,.32-3.2,1.69,0,.76,.82,.85,1.46,.85,2.2,0,4.39-.16,6.68-.16,1.83,0,3.66,.16,5.58,.16,.64,0,1.55-.04,1.55-.85,0-.93-.87-.8-1.65-.84-.91-.04-1.33-.28-1.87-.97-.41-.52-.87-1.45-1.15-2.05L141.01,1.61C140.46,.49,140.5,0,138.99,0c-1.83,0-1.88,.73-2.52,2.05l-5.3,11.03Z"/><path class="d" d="M158.76,6.16c0-2.45,.28-3.5-2.65-3.94-.55-.08-1.47-.12-1.47-.81,0-.64,.46-.77,1.1-.76,2.38,0,4.67,.16,7.04,.16,2.2,0,4.39-.16,6.54-.16,.64,0,1.14,.12,1.14,.77s-.73,.72-1.28,.81c-3.11,.44-2.88,1.25-2.88,3.94v14.33c0,2.13,.37,3.7,3.66,3.7,6.63,0,6.73-4.91,8.56-4.91,.73,0,.87,.36,.87,.92,0,1.57-.59,3.22-.73,4.83-.09,1.13-.59,.85-1.7,.85-3.47,0-6.95-.16-10.43-.16s-7.23,.16-10.8,.16c-.64,0-1.1-.08-1.1-.68,0-.65,.69-.93,1.24-1.01,3.02-.44,2.88-1.09,2.88-3.7V6.16Z"/><path class="d" d="M191.06,20.44c0,2.37-.19,3.34,2.7,3.74,.59,.08,1.46,.2,1.46,.93,0,.6-.5,.76-1.1,.76-2.38,0-4.67-.16-7.05-.16-2.2,0-4.39,.16-6.59,.16-.64,0-1.1-.16-1.1-.76,0-.64,.69-.85,1.24-.93,3.02-.44,2.88-1.13,2.88-3.74V6.16c0-2.45,.28-3.5-2.65-3.94-.55-.08-1.46-.12-1.46-.81,0-.64,.46-.77,1.1-.76,2.38,0,4.67,.16,7.04,.16,2.2,0,4.4-.16,6.54-.16,.64,0,1.15,.12,1.15,.77s-.73,.72-1.28,.81c-3.11,.44-2.88,1.25-2.88,3.94v14.28Z"/><path class="d" d="M221.67,6.44c0-.8,0-2.13-.37-2.86-.5-.97-1.42-1.25-2.47-1.37-.78-.08-1.74,.16-1.74-.73s1.01-.85,1.69-.84c1.37,0,2.7,.08,4.07,.08s2.7-.08,4.03-.08c.69,0,1.28,.12,1.28,.81,0,.96-1.55,.68-2.33,.76-2.15,.24-1.88,2.17-1.88,3.74V25.03c0,1.13,.23,1.85-1.33,1.85-1.15,0-1.74-.85-2.38-1.57l-18.07-19.83v13.27c0,.97,0,3.06,.32,3.9,.46,1.2,1.42,1.45,2.65,1.53,.64,.04,1.92-.04,1.92,.84,0,.68-.73,.85-1.37,.85-1.46,0-2.84-.16-4.3-.16s-2.93,.16-4.34,.16c-.64,0-1.24-.2-1.24-.85,0-.88,1.14-.8,1.87-.84,1.01-.04,1.55-.33,1.92-1.21,.5-1.25,.41-3.38,.41-4.75V5.71c0-1.57,.18-3.38-2.1-3.5-.73-.04-1.79,.04-1.79-.85,0-.73,.92-.73,1.55-.73h8.06c1.83,0,1.69,.08,2.84,1.33l13.08,14.24V6.44Z"/><path class="d" d="M246.6,24.86c-3.39,0-5.81-2.33-7.27-4.79-1.42-2.45-2.06-5.27-2.06-8.01,0-4.1,1.83-10.66,7.69-10.66,6.77,0,9.33,7.97,9.33,12.76,0,4.1-1.78,10.7-7.69,10.7m-.55,1.45c8.56,0,16.11-5.39,16.11-13.2C262.15,4.91,253.92,0,245.23,0c-4.35,0-8.19,1.25-11.3,3.94-2.88,2.45-4.62,5.79-4.62,9.34s1.88,7.48,5.21,9.77c3.02,2.09,7.73,3.26,11.53,3.26"/><path class="d" d="M3.29,42.52c0-.48,.04-1.82-.39-2.2-.23-.24-.82-.28-1.13-.28h-.51c-.24,0-.47-.07-.47-.27,0-.42,.55-.48,.9-.59,.94-.24,2.62-1.13,3.25-1.79,.19-.17,.39-.45,.7-.45,.39,0,.35,.31,.35,.56v1.68c0,.14-.08,.72,.2,.72,.39,0,1.92-2.75,4.61-2.75,1.17,0,2.23,.62,2.23,1.65,0,.86-.7,1.37-1.64,1.37-1.33,0-1.41-1.31-2.5-1.31-.86,0-1.53,.72-2,1.24-.94,1.17-.9,2.06-.9,3.44v5.43c0,1.48-.35,2.65,1.76,2.82,.39,.03,1.09,0,1.09,.44,0,.28-.19,.38-.47,.38-1.25,0-2.5-.14-3.68-.14-1.25,0-2.5,.14-3.71,.14-.27,0-.55-.07-.55-.34,0-.52,.67-.45,1.1-.48,2.11-.18,1.76-1.35,1.76-2.82v-6.47Z"/><path class="d" d="M26.79,42.31c-.43,0-1.33,.1-1.33-.45s.63-1.62,.98-2c1.17-1.44,3.09-2.3,5.09-2.3,1.25,0,2.54,.28,3.4,1.06,.55,.51,1.01,1.31,1.01,2.03,0,.82-.59,1.2-1.45,1.37-1.13,.24-3.32,.28-4.53,.28h-3.17Zm11.81,.82c.39,0,.47-.31,.47-.58,0-1.14-.59-2.62-1.37-3.47-1.37-1.48-3.52-2.14-5.63-2.14-2.66,0-5.09,.79-7.04,2.31-2.07,1.59-2.81,3.41-2.81,5.75,0,4.3,3.79,7.9,8.92,7.9,2.42,0,4.34-.55,6.18-1.92,.28-.21,1.53-1.14,1.53-1.55,0-.14-.12-.28-.31-.28-.51,0-1.96,2.24-5.79,2.24-4.73,0-7.59-3.34-7.59-7.19,0-1.13,.39-1.07,1.6-1.07h11.85Z"/><path class="d" d="M49.78,48.33c.04-.27,.08-.76,.51-.76,1.41,0-.19,4.72,5.12,4.72,2.31,0,4.77-1.17,4.77-3.37,0-1.99-1.88-2.75-3.75-3.3-2.42-.69-5.98-1.55-5.98-4.33,0-1.34,.82-2.41,2.08-3.2,1.37-.86,2.97-1.14,4.61-1.14,1.02,0,3.09,.25,4.03,.59,.67,.28,.43,1.04,.43,1.55,0,.21,.27,1.68-.39,1.68-.98,0-.54-3.23-4.77-3.23-1.6,0-3.6,.96-3.6,2.54,0,4.03,9.77,2.2,9.77,7.8,0,3.31-4.11,5.02-7.43,5.02-1.37,0-3.68-.45-4.97-1.03-.62-.24-.55-.69-.55-1.24l.12-2.31Z"/><path class="d" d="M77.27,47.57c0,1.48-.04,4.03,2.31,4.03,1.44,0,2.5-1.2,2.81-1.2,.16,0,.28,.13,.28,.24,0,.34-.51,.79-.78,.96-.98,.79-2.27,1.31-3.64,1.31-1.06,0-2.15-.34-2.82-1.06-1.02-1.14-.86-2.89-.86-4.27v-8.84c0-.72-.23-.62-.98-.62-.19,0-1.21,.13-1.21-.28,0-.24,.27-.38,.47-.52,1.68-.96,2.81-1.82,3.71-3.47,.08-.14,.19-.31,.39-.31,.27,0,.31,.21,.31,.41v2.44c0,.45,.08,.65,.63,.69h3.87c.35,0,.35,.21,.35,.48,0,.72-.31,.55-1.21,.55h-2.19c-.9,0-1.45-.21-1.45,.75v8.7Z"/><path class="d" d="M101.67,44.48c.12-.03,.31-.14,.43-.14,.39,0,.27,.83,.27,.97v2.06c0,1.14-.04,1.72-.98,2.58-.94,.82-2.27,1.37-3.64,1.37-1.45,0-2.7-.68-2.7-2.03,0-1.65,1.53-2.55,3.05-3.24l3.56-1.58Zm-3.75,.89c-2.15,.93-5.79,2.38-5.79,4.82,0,1.72,1.84,2.71,3.68,2.71,3.4,0,5.94-2.61,6.29-2.61,.55,0,.74,2.4,2.66,2.4,1.02,0,1.99-.52,2.78-1,.27-.2,.94-.69,.94-1.06,0-.14-.11-.28-.27-.28-.35,0-.78,.86-1.76,.86-1.41,0-1.37-1.99-1.37-2.75v-8.12c0-.93,.16-1.82-.78-2.51-.9-.72-2.34-.9-3.56-.9-2.5,0-5.16,.93-7,2.38-.74,.55-1.64,1.54-1.64,2.44,0,.34,.19,.41,.51,.41,.47,0,1.29-.27,1.68-.45,.63-.24,.82-.72,1.1-1.24,.9-1.75,2.11-2.88,4.5-2.88s2.5,1.41,2.5,3.09v1.51c0,1.31-.04,1.34-1.44,1.92l-3.01,1.24Z"/><path class="d" d="M135.49,48.37c0,1.34-.31,2.4,1.56,2.27l.51-.04c.24,0,.51,.04,.51,.27,0,.31-.58,.38-.82,.45-1.37,.34-2.78,.72-3.91,1.47-.08,.04-.31,.21-.43,.21-.19,0-.19-.1-.19-.27v-.83c0-.17,.19-1.41-.31-1.41-.59,0-2.43,2.4-5.98,2.4-1.92,0-3.48-.69-4.61-1.99-1.25-1.41-1.17-3.16-1.17-4.85v-5.22c0-1.44,.39-2.75-1.76-2.75-.35,0-1.06,0-1.06-.48,0-.28,.19-.21,.51-.21h4.38c.82,0,.63,.72,.63,1.24v7.42c0,1.14,0,2.86,.7,3.85,.78,1.14,2.46,1.58,3.91,1.58,1.68,0,3.09-.48,4.19-1.55,.82-.79,.66-1.58,.66-2.54v-6.57c0-1.44,.39-2.75-1.72-2.75-.35,0-1.09,0-1.09-.44,0-.31,.23-.24,.55-.24h4.54c.62,0,.43,.48,.43,.86v10.11Z"/><path class="d" d="M150.9,42.52c0-.48,.04-1.82-.39-2.2-.24-.24-.82-.28-1.14-.28h-.51c-.24,0-.47-.07-.47-.27,0-.42,.55-.48,.9-.59,.94-.24,2.62-1.13,3.25-1.79,.2-.17,.39-.45,.71-.45,.39,0,.35,.31,.35,.56v1.68c0,.14-.08,.72,.19,.72,.39,0,1.92-2.75,4.61-2.75,1.17,0,2.23,.62,2.23,1.65,0,.86-.7,1.37-1.64,1.37-1.33,0-1.41-1.31-2.5-1.31-.86,0-1.53,.72-2,1.24-.94,1.17-.9,2.06-.9,3.44v5.43c0,1.48-.35,2.65,1.76,2.82,.39,.03,1.09,0,1.09,.44,0,.28-.19,.38-.47,.38-1.25,0-2.5-.14-3.68-.14-1.25,0-2.5,.14-3.71,.14-.27,0-.55-.07-.55-.34,0-.52,.67-.45,1.09-.48,2.11-.18,1.76-1.35,1.76-2.82v-6.47Z"/><path class="d" d="M179.32,44.48c.12-.03,.31-.14,.43-.14,.39,0,.27,.83,.27,.97v2.06c0,1.14-.04,1.72-.97,2.58-.94,.82-2.27,1.37-3.64,1.37-1.45,0-2.7-.68-2.7-2.03,0-1.65,1.53-2.55,3.05-3.24l3.56-1.58Zm-3.75,.89c-2.15,.93-5.79,2.38-5.79,4.82,0,1.72,1.84,2.71,3.68,2.71,3.4,0,5.94-2.61,6.29-2.61,.55,0,.74,2.4,2.66,2.4,1.02,0,2-.52,2.78-1,.28-.2,.94-.69,.94-1.06,0-.14-.11-.28-.27-.28-.35,0-.78,.86-1.76,.86-1.41,0-1.37-1.99-1.37-2.75v-8.12c0-.93,.16-1.82-.78-2.51-.9-.72-2.34-.9-3.56-.9-2.5,0-5.16,.93-7,2.38-.74,.55-1.64,1.54-1.64,2.44,0,.34,.19,.41,.51,.41,.47,0,1.29-.27,1.68-.45,.62-.24,.82-.72,1.09-1.24,.9-1.75,2.11-2.88,4.5-2.88s2.5,1.41,2.5,3.09v1.51c0,1.31-.04,1.34-1.44,1.92l-3.01,1.24Z"/><path class="d" d="M198.76,42.52c0-.48,.04-1.82-.39-2.2-.24-.24-.82-.28-1.14-.28h-.51c-.23,0-.47-.07-.47-.27,0-.42,.55-.48,.9-.59,.94-.24,2.62-1.13,3.25-1.79,.19-.17,.39-.45,.7-.45,.39,0,.35,.31,.35,.56v2.27c.67,0,2.85-2.83,6.41-2.83,1.95,0,3.52,.62,4.61,1.86,1.25,1.41,1.17,3.09,1.17,4.74v5.43c0,1.48-.35,2.65,1.76,2.82,.39,.03,1.1,0,1.1,.44,0,.28-.19,.38-.47,.38-1.25,0-2.5-.14-3.67-.14-1.25,0-2.5,.14-3.72,.14-.27,0-.55-.07-.55-.34,0-.52,.66-.45,1.09-.48,2.11-.18,1.76-1.35,1.76-2.82v-5.47c0-1.1,0-2.48-.7-3.4-.74-1-2.15-1.55-3.67-1.55s-2.86,.55-3.87,1.47c-1.14,1.03-1.25,1.79-1.25,3.17v5.78c0,1.48-.35,2.65,1.76,2.82,.39,.03,1.09,0,1.09,.44,0,.28-.19,.38-.47,.38-1.25,0-2.5-.14-3.68-.14-1.25,0-2.5,.14-3.71,.14-.28,0-.55-.07-.55-.34,0-.52,.67-.45,1.09-.48,2.11-.18,1.76-1.35,1.76-2.82v-6.47Z"/><path class="d" d="M230.24,47.57c0,1.48-.04,4.03,2.31,4.03,1.45,0,2.5-1.2,2.82-1.2,.16,0,.27,.13,.27,.24,0,.34-.51,.79-.78,.96-.98,.79-2.27,1.31-3.64,1.31-1.06,0-2.15-.34-2.81-1.06-1.02-1.14-.86-2.89-.86-4.27v-8.84c0-.72-.24-.62-.98-.62-.19,0-1.21,.13-1.21-.28,0-.24,.28-.38,.47-.52,1.68-.96,2.81-1.82,3.71-3.47,.08-.14,.19-.31,.39-.31,.27,0,.31,.21,.31,.41v2.44c0,.45,.08,.65,.63,.69h3.87c.35,0,.35,.21,.35,.48,0,.72-.31,.55-1.21,.55h-2.19c-.9,0-1.44-.21-1.44,.75v8.7Z"/><path class="d" d="M249.59,42.31c-.43,0-1.33,.1-1.33-.45s.63-1.62,.98-2c1.17-1.44,3.09-2.3,5.08-2.3,1.25,0,2.54,.28,3.4,1.06,.55,.51,1.02,1.31,1.02,2.03,0,.82-.59,1.2-1.45,1.37-1.14,.24-3.33,.28-4.54,.28h-3.17Zm11.81,.82c.39,0,.47-.31,.47-.58,0-1.14-.59-2.62-1.37-3.47-1.37-1.48-3.52-2.14-5.63-2.14-2.66,0-5.09,.79-7.04,2.31-2.07,1.59-2.81,3.41-2.81,5.75,0,4.3,3.79,7.9,8.91,7.9,2.42,0,4.34-.55,6.18-1.92,.27-.21,1.52-1.14,1.52-1.55,0-.14-.11-.28-.31-.28-.51,0-1.95,2.24-5.79,2.24-4.73,0-7.59-3.34-7.59-7.19,0-1.13,.39-1.07,1.6-1.07h11.85Z"/></g></g></g></svg>