<?xml version="1.0" encoding="UTF-8"?><svg xmlns="http://www.w3.org/2000/svg" viewBox="0 0 305.31 75.07"><defs><style>.d{fill:#fff;}.e{opacity:.5;}</style></defs><g id="a"/><g id="b"><g id="c"><g class="e"><g><path class="d" d="M0,41.71H1.67c2.28,0,2.54-.73,2.54-7.33V15.4c0-6.6-.25-7.33-2.54-7.33H0v-.46H11.88c6.81,0,11.42,2.88,11.42,7.27,0,2.77-2.54,6.12-6.92,6.69v.23c6.17,.46,10.56,5.48,10.56,10.38,0,6-5.83,9.98-13.27,9.98H0v-.46Zm9.46-.4h3.35c5.94,0,9.98-3.63,9.98-9.11,0-5.77-4.33-9.92-10.27-9.92h-2.54v-.86h1.9c4.21,0,7.33-2.65,7.33-6.46s-3.17-6.46-7.96-6.46h-3.92v.06c.58,.58,.81,1.38,.81,2.48v27.98c0,1.5,.46,2.31,1.33,2.31Z"/><path class="d" d="M30.4,27.98c0-8,6.99-14.54,15.46-14.54,9.26,0,15.46,5.84,15.46,14.54,0,8.01-6.93,14.59-15.46,14.59-9.28,0-15.46-5.84-15.46-14.59Zm26.83,.81c0-7.93-5.21-14.42-11.6-14.42s-11.13,5.13-11.13,12.87,5.12,14.48,11.48,14.48c6.7,0,11.25-5.2,11.25-12.92Z"/><path class="d" d="M64.14,41.71h1.67c2.31,0,2.54-.69,2.54-7.33V16.04c0-1.04-.62-1.73-1.56-1.73h-1.79v-.46h5.83c.63,0,.86,.23,.86,.87v3.58c0,1.61-.17,3.69-.4,4.38v.12h.4c1.27-5.94,4.56-9.35,8.71-9.35,2.78,0,4.1,.95,4.1,2.71,0,1.4-1.06,2.54-2.37,2.54-1.37,0-2.48-1.11-2.48-2.48,0-.46,.23-1.15,.58-1.5v-.06c-4.85,0-8.13,5.42-8.13,13.5v6.29c0,6.63,.29,7.33,2.6,7.33h3.06v.4h-13.62v-.46Z"/><path class="d" d="M85.54,41.71h1.67c2.31,0,2.54-.69,2.54-7.33V16.04c0-1.04-.62-1.73-1.56-1.73h-1.79v-.46h5.83c.63,0,.86,.23,.86,.87v3.58c0,1.61-.17,3.69-.4,4.38v.12h.4c1.27-5.94,4.56-9.35,8.71-9.35,2.78,0,4.1,.95,4.1,2.71,0,1.4-1.06,2.54-2.37,2.54-1.37,0-2.48-1.11-2.48-2.48,0-.46,.23-1.15,.58-1.5v-.06c-4.85,0-8.13,5.42-8.13,13.5v6.29c0,6.63,.29,7.33,2.6,7.33h3.06v.4h-13.62v-.46Z"/><path class="d" d="M121.08,13.44c6.75,0,11.19,3.75,11.19,9.63,0,1.21-.63,2.02-1.62,2.02h-19.94c-.13,.95-.19,1.95-.19,3,0,7.38,4.5,13.1,11.42,13.1,3.63,0,7.62-1.33,9.98-4.56l.69,.52c-2.54,3.4-6.63,5.42-11.71,5.42-8.65,0-14.48-5.94-14.48-14.71,0-7.96,6.58-14.42,14.65-14.42Zm6.4,10.44c.46,0,.81-.29,.81-.86,0-5.37-3-8.65-7.44-8.65-5.19,0-8.91,3.82-10,9.87l16.63-.35Z"/><path class="d" d="M134.8,41.71h1.67c2.31,0,2.6-.69,2.6-7.27V4.61c0-.92-.52-1.44-1.44-1.44h-2.25v-.4h2.77c1.96,0,4.33-.63,4.33-2.6v-.17h.35V34.44c0,6.58,.29,7.27,2.6,7.27h1.73v.46h-12.35v-.46Z"/><path class="d" d="M148.7,41.71h1.67c2.31,0,2.6-.69,2.6-7.27V4.61c0-.92-.52-1.44-1.44-1.44h-2.25v-.4h2.77c1.96,0,4.33-.63,4.33-2.6v-.17h.35V34.44c0,6.58,.29,7.27,2.6,7.27h1.73v.46h-12.35v-.46Z"/><path class="d" d="M175.41,41.71h1.67c2.31,0,2.54-.69,2.54-7.33V15.4c0-6.63-.23-7.33-2.54-7.33h-1.67v-.46h20.71c.75,0,.92,.06,1.27,.4l.69,10.79h-.86l-.23-3.35c-.35-5.02-4.04-6.98-8.65-6.98h-5.83v.06c.58,.58,1.04,1.44,1.04,2.48v14.31h1.73c2.71,0,6-.46,6-5.08v-2.88h.63v15.92h-.63v-1.96c0-3.29-2.13-5.13-6-5.13h-1.73v8.19c0,6.63,.29,7.33,2.6,7.33h3.11v.46h-13.85v-.46Z"/><path class="d" d="M212.21,28.5h4.04v-7.85c0-4.16-2.02-6.29-5.71-6.29-4.73,0-7.15,2.83-7.38,6.58l-.23,2.89h-.87l.52-9.98c.4,.1,.92,.17,1.39,.17,1.56,0,3.74-.58,6.52-.58,6.23,0,9.63,2.77,9.63,7.85v18.17c0,1.21,.64,1.62,1.33,1.62,.75,0,1.39-.58,1.39-1.67v-.75h.46v.75c0,1.66-1.37,3-3.06,3-1.44,0-2.61-1.24-2.71-2.83l-.29-4.79h-.46c-1.27,5.88-5.19,7.79-8.65,7.79-5.19,0-8.31-2.42-8.31-6,0-5.25,4.33-8.08,12.4-8.08Zm-3.52,12.75c3.52,0,7.56-2.94,7.56-9.92v-1.96h-3.81c-5.65,0-8.77,2.54-8.77,7.21,0,2.88,2.25,4.67,5.02,4.67Z"/><path class="d" d="M226.63,3.17h-2.25v-.4h2.71c1.96,0,4.33-.63,4.33-2.6v-.17h.4V19.49c2.18-3.76,5.58-6.05,10.44-6.05,7.85,0,13.15,5.83,13.15,14.6,0,8.02-5.94,14.54-13.15,14.54-4.44,0-8.65-2.31-10.27-6.75-.36-.98-.88-1.58-1.41-1.58-.92,0-1.86,1.8-2.05,6.61l-.06,1.43-.63,.17,.23-5.94V4.61c0-.92-.52-1.44-1.44-1.44Zm14.71,38.08c6,0,9.98-4.96,9.98-12.35,0-8.31-3.87-13.9-9.75-13.9-3.83,0-7.56,1.92-9.75,6.48v8.46c0,7.56,4.73,11.31,9.52,11.31Z"/><path class="d" d="M258.24,41.71h1.67c2.31,0,2.54-.69,2.54-7.33V16.04c0-1.04-.62-1.73-1.56-1.73h-1.79v-.46h5.83c.63,0,.86,.23,.86,.87v3.58c0,1.61-.17,3.69-.4,4.38v.12h.4c1.27-5.94,4.56-9.35,8.71-9.35,2.78,0,4.1,.95,4.1,2.71,0,1.4-1.06,2.54-2.37,2.54-1.37,0-2.48-1.11-2.48-2.48,0-.46,.23-1.15,.58-1.5v-.06c-4.85,0-8.13,5.42-8.13,13.5v6.29c0,6.63,.29,7.33,2.6,7.33h3.06v.4h-13.62v-.46Z"/><path class="d" d="M293.78,13.44c6.75,0,11.19,3.75,11.19,9.63,0,1.21-.64,2.02-1.62,2.02h-19.94c-.13,.95-.19,1.95-.19,3,0,7.38,4.5,13.1,11.42,13.1,3.63,0,7.61-1.33,9.98-4.56l.69,.52c-2.54,3.4-6.63,5.42-11.71,5.42-8.65,0-14.48-5.94-14.48-14.71,0-7.96,6.58-14.42,14.65-14.42Zm6.4,10.44c.46,0,.81-.29,.81-.86,0-5.37-3-8.65-7.44-8.65-5.19,0-8.9,3.82-9.99,9.87l16.63-.35Zm-9-13.33l5.48-6.63c.17-.17,.29-.23,.46-.23s.33,.02,.52,.17l1.1,.92-1.15,1.44-5.88,4.85-.52-.52Z"/></g><g><path class="d" d="M84.74,74.59v-10.53h1.65v10.53h-1.65Z"/><path class="d" d="M93.91,67.82v6.77h-1.65v-11.03l6.61,7.25v-6.75h1.66v11.01l-6.63-7.25Z"/><path class="d" d="M114.67,74.59v-5.59l-3.29,4.91-3.31-4.91v5.59h-1.65v-11.01l4.95,7.38,4.95-7.38v11.01h-1.66Z"/><path class="d" d="M125.1,74.18c-.64-.27-1.19-.65-1.67-1.14s-.87-1.04-1.14-1.67c-.27-.64-.41-1.33-.41-2.04s.14-1.41,.41-2.06c.27-.62,.65-1.18,1.14-1.67,.48-.48,1.04-.85,1.67-1.12,.64-.27,1.33-.41,2.04-.41s1.4,.14,2.06,.41c.62,.27,1.18,.64,1.67,1.12,.48,.5,.85,1.05,1.12,1.67,.27,.65,.41,1.35,.41,2.06s-.14,1.41-.41,2.04c-.27,.64-.64,1.19-1.12,1.67-.5,.48-1.05,.87-1.67,1.14-.65,.27-1.35,.41-2.06,.41s-1.41-.14-2.04-.41Zm-.51-7.41c-.68,.68-1.06,1.59-1.06,2.55s.38,1.87,1.06,2.55c.68,.68,1.59,1.06,2.55,1.06s1.87-.38,2.55-1.06c.68-.68,1.06-1.59,1.06-2.55s-.38-1.87-1.06-2.55c-.68-.68-1.59-1.06-2.55-1.06s-1.87,.38-2.55,1.06Z"/><path class="d" d="M144.48,71.47c0,.53-.11,.99-.34,1.42-.23,.4-.55,.74-.96,1.01-.72,.45-1.7,.7-2.9,.7h-2.33v-10.53h2.33c1.16,0,2.02,.21,2.61,.65,.33,.24,.57,.55,.72,.91,.14,.33,.21,.7,.21,1.11,0,.57-.18,1.26-.82,1.93,.17,.11,.33,.24,.48,.38,.31,.31,.55,.65,.72,1.04,.18,.43,.27,.89,.27,1.39Zm-4.88-5.93v3.19c.33-.07,.71-.18,1.08-.34,.52-.21,.94-.45,1.22-.74,.3-.28,.44-.58,.44-.92,0-.51-.18-.71-.34-.82-.4-.3-1.16-.37-1.72-.37h-.68Zm3.41,5.93c0-.55-.18-.99-.55-1.35-.21-.21-.48-.38-.81-.53-.14,.06-.28,.13-.44,.18-.58,.24-1.16,.38-1.6,.48v2.84h.68c.89,0,1.62-.16,2.09-.45,.44-.28,.64-.65,.64-1.18Z"/><path class="d" d="M149.98,74.59v-10.53h1.65v10.53h-1.65Z"/><path class="d" d="M163.55,74.59h-6.05v-10.53h1.65v9.04h4.4v1.49Z"/><path class="d" d="M168.44,74.59v-10.53h1.65v10.53h-1.65Z"/><path class="d" d="M181.67,72.33h-3.75l-.89,2.26h-1.82l4.58-11.01,4.57,11.01h-1.8l-.89-2.26Zm-.6-1.48l-1.28-3.21-1.28,3.21h2.55Z"/><path class="d" d="M196.74,74.59h-1.86l-2.65-3.56h-1.21v3.56h-1.65v-10.53h3.12c1.39,0,2.2,.57,2.63,1.05,.55,.61,.85,1.46,.85,2.44s-.3,1.82-.85,2.43c-.26,.28-.65,.61-1.22,.81l2.84,3.8Zm-4.24-5.04c.68,0,1.19-.2,1.52-.57,.4-.43,.47-1.02,.47-1.43s-.07-1.02-.47-1.45c-.33-.37-.84-.55-1.52-.55h-1.48v4h1.48Z"/><path class="d" d="M201.72,74.59v-10.53h1.65v10.53h-1.65Z"/><path class="d" d="M214.94,72.33h-3.75l-.89,2.26h-1.82l4.58-11.01,4.57,11.01h-1.8l-.89-2.26Zm-.6-1.48l-1.28-3.21-1.28,3.21h2.55Z"/></g></g></g></g></svg>