<?xml version="1.0" encoding="UTF-8"?><svg xmlns="http://www.w3.org/2000/svg" viewBox="0 0 260.27 60.1"><defs><style>.d{fill:#fff;opacity:.5;}</style></defs><g id="a"/><g id="b"><g id="c"><path class="d" d="M11.57,37.22c-.34-.17-.8-.54-1.38-1.13-.59-.59-1.05-1.04-1.38-1.38-.17,0-.67-.29-1.51-.88-.84-.59-1.72-1.26-2.64-2.01-.92-.76-1.85-1.42-2.77-2.01-.92-.58-1.47-.96-1.63-1.13-.17,0-.25-.08-.25-.25v-1.01c.67,0,1.93-.04,3.77-.13,1.84-.08,3.1-.29,3.77-.63,3.35-.5,6.58-1.3,9.68-2.39,3.1-1.09,6.16-2.14,9.18-3.14h.5c.17,0,.33,.09,.5,.25,0,.5,.08,1.43,.25,2.77,.17,1.34,.33,2.68,.5,4.02,.17,1.34,.33,2.64,.5,3.9,.16,1.26,.33,2.14,.5,2.64,0,3.52,.25,7.13,.76,10.81,0,.67,.08,1.17,.25,1.51,0,.34,.08,.67,.25,1.01l.75,.5c.5,.17,1.09,.25,1.76,.25,.67,.17,1.51,.25,2.51,.25h1.38c.59,0,1.21-.08,1.89-.25,.67,0,1.42-.08,2.26-.25h.88c.42,0,.79-.08,1.13-.25,.5,0,1.01-.08,1.51-.25h1.76v.5c-2.18,1.01-4.45,1.85-6.79,2.51-2.35,.67-4.7,1.43-7.04,2.26-4.86,1.34-9.72,2.51-14.59,3.52-4.86,1.01-9.98,1.51-15.34,1.51,0-1.51,.67-3.35,2.01-5.53,1.34-2.18,2.35-4.02,3.02-5.53,.67-1.51,1.34-3.1,2.01-4.78,.67-1.67,1.34-3.43,2.01-5.28m230.35,19.86h-3.77c-.5,0-1.55-.08-3.14-.25-1.6-.16-2.56-.33-2.89-.5-.34,0-1.3-.08-2.89-.25-1.6-.16-2.48-.25-2.64-.25-.5-.17-1.26-.29-2.26-.38-1.01-.08-2.1-.21-3.27-.38-1.17-.17-2.26-.29-3.27-.38-1.01-.08-1.68-.12-2.01-.12,.33-.67,.75-1.09,1.26-1.26,.16,0,.67-.16,1.51-.5,.84-.33,1.67-.71,2.51-1.13,.84-.42,1.64-.79,2.39-1.13,.76-.33,1.21-.58,1.38-.75,.67,0,1.38-.25,2.14-.76,.75-.5,1.13-1.09,1.13-1.76V25.65l1.01-.25h5.03c4.53,.17,8.93,.59,13.2,1.26,4.28,.67,8.59,1.68,12.95,3.02v.25c-.34,.5-.8,.97-1.38,1.38-.59,.42-1.05,.88-1.38,1.38l-3.52,3.27c-.34,.34-.84,.67-1.51,1.01-.34,.34-.67,.59-1.01,.75l-.76,.76-.5,.5v.5c0,1.17,.25,2.68,.76,4.53,.5,1.85,.92,3.36,1.26,4.53,0,.34,.08,.71,.25,1.13,.16,.42,.25,.72,.25,.88v1.51c.16,.34,.33,.59,.5,.76,.16,.5,.42,.75,.75,.75,.33,1.18,.63,2.35,.88,3.52,.25,1.18,.38,2.18,.38,3.02h-1.26c-.34,0-1.34-.21-3.02-.63-1.68-.42-2.68-.79-3.02-1.13h-3.77c-.34,0-.8-.13-1.38-.38-.59-.25-.88-.71-.88-1.38v.5ZM106.13,23.11c-1.32,.27-2.03,.98-2.14,2.13-.06,.5,.39,.96,1.34,1.39,.82,.39,1.66,.62,2.51,.69,.5,.04,.79-.01,.87-.16,.09-.3,.27-.83,.55-1.6,.24-.59,.38-1.09,.41-1.48,.03-.46-.03-.92-.19-1.4-1.13,.15-2.25,.29-3.36,.42Zm119.06,16.49c-.25-1.59-.38-2.47-.38-2.64V8.55l-25.9,3.02c-1.18,0-2.18-.08-3.02-.25-.84,0-1.68-.04-2.52-.12-.84-.08-1.51-.13-2.01-.13s-1.34-.04-2.51-.13c-1.17-.08-1.93-.29-2.26-.63h-3.02c-.34,0-1.13-.04-2.39-.13-1.26-.08-2.6-.16-4.02-.25-1.42-.08-2.77-.21-4.02-.38-1.26-.17-2.05-.33-2.39-.5-.5,0-.92-.08-1.26-.25h-.76c-.17,0-.34-.08-.5-.25-.5,0-1.51-.08-3.02-.25-1.51-.17-3.06-.38-4.65-.63-1.6-.25-3.1-.46-4.53-.63-1.43-.16-2.39-.25-2.89-.25-.34,0-1.34-.04-3.02-.13-1.68-.08-2.68-.13-3.02-.13-4.36-.84-8.72-1.55-13.08-2.14-4.36-.59-8.72-1.04-13.08-1.38-.34,0-1.17-.04-2.51-.13-1.34-.08-2.77-.16-4.28-.25-1.51-.08-2.89-.21-4.15-.38-1.26-.16-2.05-.33-2.39-.5-.34,0-1.55-.08-3.65-.25-2.1-.17-3.31-.25-3.65-.25-.67-.16-1.72-.29-3.14-.38-1.43-.08-2.89-.21-4.4-.38-1.51-.17-2.93-.29-4.27-.38-1.34-.08-2.26-.12-2.77-.12h-12.57c-.17,0-.76,.09-1.76,.25-1.01,.17-1.68,.25-2.01,.25h-1.89c-1.09,0-2.26,.04-3.52,.12-1.26,.09-2.43,.17-3.52,.25-1.09,.09-1.8,.21-2.14,.38-3.02,.34-5.99,.84-8.93,1.51-2.93,.67-5.74,1.43-8.42,2.26-1.85,.84-3.69,1.59-5.53,2.26-1.85,.67-3.69,1.43-5.53,2.26l-.5,.5-.25,.25v1.26c.84,5.53,1.59,11.06,2.26,16.6,.67,5.53,1.17,10.98,1.51,16.35h.5c.17,0,.33-.08,.5-.25,.17,0,.42-.17,.75-.5,.33-.17,.76-.42,1.26-.76,.33-.17,.96-.46,1.89-.88,.92-.42,1.92-.92,3.02-1.51,1.09-.59,2.09-1.09,3.02-1.51,.92-.42,1.55-.71,1.89-.88,0-.33,.17-.59,.5-.76,.33-.16,.58-.25,.75-.25l1-.25c0-.33,.25-.76,.75-1.26l1.01-1.01h.25c-.17,.17-.25,.29-.25,.38s-.09,.21-.25,.38c-.17,.17-.25,.34-.25,.5,1.51,0,3.18-.25,5.03-.76,.33,0,1.21-.04,2.64-.12,1.42-.08,2.97-.16,4.65-.25,1.67-.08,3.27-.21,4.78-.38,1.51-.17,2.51-.33,3.02-.5,.33,0,.92-.08,1.76-.25,.84-.16,1.42-.25,1.76-.25h.76c6.37,0,12.78,.34,19.24,1.01,6.45,.67,12.95,1.17,19.49,1.51,.17,0,.76,.09,1.76,.25,1.01,.17,1.67,.42,2.01,.76,.33,0,1.3,.13,2.89,.38,1.59,.25,2.47,.38,2.64,.38,.5,0,1.59,.09,3.27,.25,1.67,.17,3.52,.38,5.53,.63,2.01,.25,3.85,.46,5.53,.63,1.67,.17,2.77,.25,3.27,.25,.33,.17,.67,.25,1.01,.25,.33,.17,.84,.25,1.51,.25l1.76,.76c2.01,.34,3.85,.5,5.53,.5h5.28c3.85,.67,7.71,1.3,11.57,1.89,3.85,.59,7.71,1.05,11.57,1.38,.5,0,1.76,.09,3.77,.25,2.01,.17,3.35,.42,4.02,.75,2.52,.34,4.82,.63,6.92,.88,2.09,.25,4.32,.38,6.66,.38h4.78c.33,0,.92-.08,1.76-.25,.84-.17,1.42-.25,1.76-.25h10.81c.67,0,1.84-.04,3.52-.13,1.67-.08,2.77-.13,3.27-.13s.75-.25,.75-.75v-2.77c0-.33-.12-1.3-.38-2.89ZM77.24,26.52c-1.34,.82-2.87,1.16-4.59,1.02-1.15-.09-2.37-.38-3.65-.88-1.59-.63-2.76-1.3-3.49-2.02-1.24-1.22-1.78-2.83-1.62-4.83,.16-2.01,.8-3.75,1.93-5.24,1.22-1.61,2.79-2.58,4.7-2.89,.58-.09,1.15-.11,1.71-.06,.81,.06,1.81,.32,3,.76,.81,.3,1.19,.79,1.14,1.47-.01,.18-.08,.35-.21,.51-.2,.31-.51,.51-.92,.58-.41,.08-.81,.14-1.18,.2-.22,.05-.46,.06-.7,.04-.28-.02-.68-.11-1.2-.28-.51-.16-.89-.25-1.13-.27-.2-.02-.37,0-.53,.06-1.95,.51-3.01,1.91-3.2,4.22-.05,.65,0,1.32,.14,1.98,.24,1.07,.79,1.96,1.63,2.66,.84,.7,1.81,1.1,2.9,1.18,.54,.04,1.09,0,1.62-.14,.2-.05,.67-.26,1.4-.64,.62-.32,1.08-.48,1.39-.45,.19,.01,.36,.08,.51,.2,.72,.67,1.05,1.29,1.01,1.86-.03,.37-.25,.68-.67,.93Zm12.92-8.22c-.06,.72-.28,1.72-.67,3.01-.44,1.41-.72,2.45-.84,3.09-.24,1.63-.44,2.73-.59,3.31-.37,1.31-.83,1.94-1.4,1.9-.17-.01-.35-.09-.53-.22-.18-.13-.35-.4-.51-.78-.15-.32-.3-.49-.45-.5-1.14-.29-2.29-.58-3.45-.86-1.26-.43-2.13-1.13-2.6-2.11-.31-.48-.44-1.11-.38-1.87,.09-1.11,.43-2.01,1.03-2.68,1.45-1.66,3.44-2.39,5.97-2.19,1.09,.09,1.61,.16,1.56,.22,.19-.25,.31-.61,.35-1.09,.04-.57-.1-.9-.42-1-.32-.1-.64-.17-.97-.19-.57-.04-1.21,.04-1.91,.26-.71,.22-1.4,.42-2.07,.61-.11,.04-.21,.05-.3,.04-.35-.03-.61-.3-.79-.82-.15-.41-.2-.84-.16-1.3,.02-.28,.07-.46,.14-.52,1.52-.87,3.18-1.23,4.99-1.09,1.9,.15,3.12,.93,3.67,2.33,.29,.77,.4,1.59,.33,2.46Zm10.63,1.17c-.21,.1-.43,.13-.67,.11-.37-.03-1.05-.4-2.02-1.1-.98-.7-1.76-1.08-2.35-1.12-.44-.03-.87,.05-1.31,.26-.21,.11-.32,.29-.34,.53-.02,.31,.13,.67,.46,1.09,.33,.42,.63,.7,.91,.83,2.2,.99,3.85,2.08,4.94,3.26,.36,.4,.52,.93,.47,1.59-.06,.77-.36,1.52-.89,2.27s-1.35,1.35-2.45,1.8c-1.1,.45-2.21,.63-3.32,.55-1.96-.16-3.27-1.08-3.93-2.78-.05-.14-.08-.29-.06-.47,.03-.37,.23-.7,.61-.99,.37-.29,.76-.43,1.15-.42,.31-.02,.57,.2,.77,.65,.24,.52,.45,.84,.62,.94,.38,.23,.82,.36,1.32,.4,.76,.06,1.45-.09,2.06-.45,.61-.36,.94-.87,.99-1.52,.04-.5-.42-1.02-1.39-1.56-1.07-.57-2.14-1.12-3.19-1.67-1.13-.71-1.89-1.55-2.27-2.52-.11-.29-.15-.58-.13-.87,.08-.98,.77-1.89,2.09-2.71,1.25-.78,2.43-1.13,3.57-1.04,.35,.03,.65,.12,.9,.27,.8,.4,1.6,.8,2.4,1.22,.86,.51,1.43,1.11,1.7,1.79,.06,.09,.08,.22,.07,.37-.05,.61-.29,1.04-.73,1.27Zm12.22,.64c-.06,.72-.28,1.72-.67,3.01-.44,1.41-.72,2.44-.84,3.09-.24,1.63-.44,2.73-.59,3.31-.37,1.31-.83,1.94-1.4,1.9-.17-.01-.35-.09-.53-.22-.18-.13-.35-.4-.51-.78-.15-.32-.3-.48-.45-.5-1.14-.29-2.29-.57-3.45-.86-1.26-.43-2.13-1.13-2.6-2.11-.31-.49-.44-1.11-.38-1.87,.09-1.11,.43-2.01,1.03-2.68,1.45-1.66,3.44-2.39,5.96-2.19,1.09,.09,1.61,.16,1.56,.22,.19-.25,.31-.61,.35-1.09,.04-.57-.1-.9-.42-1-.32-.1-.65-.16-.97-.19-.57-.05-1.21,.04-1.91,.26-.71,.22-1.4,.42-2.07,.61-.11,.03-.21,.05-.3,.04-.35-.03-.61-.3-.79-.82-.15-.4-.2-.84-.16-1.3,.02-.28,.07-.46,.14-.52,1.52-.87,3.18-1.23,4.99-1.09,1.9,.15,3.12,.93,3.67,2.33,.29,.77,.4,1.59,.33,2.46Zm19.55-5.93c-.72,.21-2.02,.37-3.89,.48-1.61,.09-2.86,.33-3.74,.72-.41,.19-.62,.4-.64,.64,0,.07,0,.13,.02,.2,.55,1.01,1.59,2.17,3.11,3.47,1.91,1.62,3.06,2.65,3.44,3.1,1.07,1.23,1.55,2.46,1.45,3.7-.03,.41-.13,.84-.3,1.29-.51,1.45-1.54,2.52-3.08,3.21-1.41,.61-3.02,.85-4.83,.7-1.68-.13-3.18-.57-4.5-1.31-.61-.33-.89-.82-.84-1.45,.04-.48,.26-.95,.66-1.41,.4-.46,.86-.79,1.38-.99,.33-.04,.62,.15,.84,.56,.25,.48,.47,.76,.66,.84,.48,.04,1.19,.21,2.13,.53,.33,.2,.7,.32,1.09,.35,.41,.03,.9-.05,1.47-.25,.48-.18,.95-.35,1.42-.51,.42-.27,.64-.66,.68-1.16,.02-.3-.03-.63-.15-.97-.74-1.13-2.1-2.52-4.06-4.17-1.96-1.65-3.33-3.05-4.09-4.21-.26-.35-.52-.71-.79-1.07-.27-.36-.39-.67-.37-.93,.02-.2,.12-.39,.31-.57,1.32-1.41,3.2-2.36,5.65-2.84,2.17-.29,4.33-.58,6.48-.87,.13-.01,.26-.01,.4,0,.41,.03,.81,.21,1.19,.54,.38,.33,.55,.68,.52,1.08-.05,.7-.59,1.13-1.61,1.29Zm9.23,12.25c-1.87,.93-2.91,1.48-3.12,1.66-.38,.15-.58,.32-.6,.51-.03,.35,.19,.68,.65,.99,.46,.31,.87,.48,1.24,.51,.72,.06,1.78-.21,3.19-.8,.39,.34,.57,.77,.52,1.29-.03,.41-.2,.78-.48,1.11s-.64,.51-1.06,.54c-1.41,.11-2.3,.15-2.67,.12-.74-.06-1.4-.24-1.97-.55-2.5-1.36-3.64-4.24-3.4-8.62,.1-1.48,.63-2.69,1.6-3.61s2.16-1.33,3.55-1.21c1.48,.12,2.75,.78,3.81,1.99,1.06,1.21,1.51,2.57,1.37,4.07-.24,.59-1.12,1.26-2.62,2Zm17.24-8.74c-.11,.32-.17,.51-.18,.58-.08,.1-.23,.26-.46,.46-.24,.2-.39,.36-.47,.49-1.54,4.22-3.4,8.08-5.59,11.57-.35,.57-.92,.82-1.7,.76-.37-.03-.64-.17-.82-.43-.97-1.02-1.94-2.99-2.89-5.92-.82-1.8-1.42-3.4-1.79-4.81-.05-.18-.07-.35-.06-.5,.03-.41,.28-.74,.73-.96,.39-.21,.83-.3,1.34-.26,.63,.05,1.05,.26,1.27,.63,.46,.65,.9,1.79,1.33,3.41,.43,1.62,.86,2.78,1.29,3.47,.81-1.14,1.6-2.6,2.35-4.39,.63-1.6,1.26-3.19,1.89-4.79,.28-.68,.82-.99,1.65-.92,.83,.07,1.56,.42,2.19,1.06,.06,.11,.03,.3-.08,.55Zm4.86,5.91c-.44,.51-.7,1.21-.79,2.08-.15,1.06-.29,1.74-.42,2.04-.14,.3-.21,.64-.25,1.03-.02,.29,0,.72,.04,1.3,.05,.59,.07,1.03,.04,1.34-.02,.31-.06,.6-.12,.88-.05,.28-.18,.41-.38,.4-.49,.09-.92,.12-1.29,.1-.7-.06-1.11-.35-1.25-.89-.12-.65-.15-1.42-.08-2.31,.03-.37,.1-.94,.2-1.69,.1-.76,.17-1.33,.2-1.7,.14-1.72,.43-2.95,.88-3.68,.35-.59,.91-.85,1.68-.79,.33,.03,.64,.12,.93,.27,.59,.33,.86,.73,.83,1.18-.01,.17-.09,.32-.23,.44Zm.57-4.74c-.27,.39-.55,.64-.82,.77-.27,.13-.56,.19-.87,.16-.63-.05-1.16-.36-1.57-.95-.14-.19-.19-.44-.17-.77,.06-.83,.34-1.35,.81-1.58,.48-.23,.98-.32,1.5-.28,.44,.03,.81,.19,1.13,.45,.32,.27,.46,.62,.43,1.05-.03,.37-.18,.75-.45,1.13Zm5.73-2.53c-.09,.32-.14,.53-.15,.61l-.55,7c-.1,.76-.17,1.77-.21,3.04-.03,1.51-.06,2.51-.1,2.99-.14,1.77-.53,3.22-1.17,4.35-.28,.53-.74,.76-1.37,.71-.42-.03-.82-.18-1.2-.44-.39-.26-.55-.7-.51-1.31,.01-.17,.06-.34,.14-.51,.51-1.32,.88-2.94,1.1-4.85,.18-1.67,.35-3.34,.53-4.99,.07-.65,.05-1.64-.08-2.95-.13-1.32-.17-2.26-.12-2.82,.06-.81,.27-1.5,.62-2.09,.4-.67,1.03-.97,1.88-.91,.87,.07,1.3,.56,1.3,1.48,.01,.13-.03,.36-.12,.68Zm6.47,.51c-.09,.32-.14,.53-.15,.61l-.55,7c-.1,.76-.17,1.77-.21,3.04-.03,1.51-.07,2.51-.1,2.99-.14,1.77-.53,3.22-1.17,4.35-.28,.53-.74,.76-1.37,.71-.41-.03-.82-.18-1.2-.44-.39-.26-.55-.7-.5-1.31,.01-.17,.06-.34,.14-.51,.51-1.32,.88-2.94,1.1-4.85,.18-1.68,.35-3.34,.53-4.99,.07-.65,.05-1.64-.08-2.95-.13-1.32-.17-2.26-.12-2.82,.06-.81,.27-1.5,.62-2.09,.4-.67,1.03-.97,1.88-.91,.87,.07,1.3,.56,1.3,1.48,.01,.13-.03,.36-.12,.68Zm12.53,9.28c-.06,.72-.28,1.72-.66,3.01-.44,1.41-.72,2.45-.84,3.09-.24,1.63-.43,2.73-.59,3.31-.37,1.31-.83,1.94-1.4,1.9-.18-.01-.35-.09-.53-.22-.18-.14-.35-.4-.51-.78-.15-.32-.3-.48-.45-.5-1.14-.29-2.29-.58-3.45-.86-1.26-.43-2.13-1.13-2.6-2.11-.31-.49-.44-1.11-.38-1.87,.09-1.11,.43-2.01,1.04-2.68,1.45-1.66,3.43-2.39,5.96-2.19,1.09,.09,1.61,.16,1.56,.22,.19-.25,.31-.61,.35-1.09,.04-.57-.09-.9-.41-1-.32-.1-.65-.17-.97-.19-.57-.05-1.21,.04-1.91,.26-.71,.22-1.4,.42-2.07,.61-.11,.04-.21,.05-.3,.04-.35-.03-.61-.3-.79-.82-.14-.41-.2-.84-.16-1.3,.02-.28,.07-.46,.14-.52,1.52-.87,3.18-1.23,4.99-1.09,1.9,.15,3.12,.93,3.67,2.33,.29,.77,.4,1.59,.33,2.46Zm-48.44-4.45c-.46-.32-.98-.51-1.57-.55-.44-.03-.81,.02-1.13,.17-.66,.28-1.03,.94-1.11,1.99-.09,1.16,.1,1.77,.58,1.85,1.94,.07,3.18-.53,3.69-1.78,.1-.17,.16-.34,.17-.51,.04-.46-.17-.85-.63-1.17Zm-57.48-.36c-1.32,.27-2.03,.98-2.14,2.13-.06,.5,.39,.96,1.34,1.39,.82,.39,1.66,.62,2.51,.69,.5,.04,.79-.02,.87-.16,.09-.3,.27-.83,.55-1.6,.24-.6,.38-1.09,.41-1.48,.04-.46-.03-.92-.19-1.4-1.13,.15-2.25,.29-3.36,.43Zm99.04,7.83c-1.32,.27-2.03,.98-2.14,2.13-.06,.5,.38,.96,1.34,1.39,.82,.39,1.66,.62,2.51,.69,.5,.04,.79-.02,.87-.16,.09-.3,.27-.83,.55-1.6,.24-.59,.38-1.09,.41-1.48,.03-.46-.03-.92-.19-1.4-1.13,.15-2.25,.29-3.36,.43Z"/></g></g></svg>