<?xml version="1.0" encoding="UTF-8"?><svg xmlns="http://www.w3.org/2000/svg" viewBox="0 0 286.24 55.48"><defs><style>.d{fill:#fff;}.e{opacity:.5;}</style></defs><g id="a"/><g id="b"><g id="c"><g class="e"><path class="d" d="M177.18,31.46c2.02-4.32,3.02-7.66,3.02-10.04v-.43c0-1.32-.37-2.32-1.11-2.98-1.08-.93-2.27-1.4-3.56-1.4s-2.74,.77-4.24,2.32v-.02c.2-.36,.29-.66,.29-.9,0-.33-.18-.62-.54-.86-.77-.38-1.73-.56-2.89-.56-.44,0-.86,.47-1.29,1.42-.92,2.36-1.88,4.99-2.88,7.87-1.07,1.56-2.43,3.35-4.08,5.38-.65,.83-1.56,1.83-2.75,3-.18-.1-.32-.24-.41-.41-.23-.39-.48-1.87-.77-4.44l1.26-1.62c2.62-3.49,4.34-5.77,5.17-6.83,.66-.71,.99-1.4,.99-2.08,0-1.04-.67-1.78-2.01-2.23-.03,0-.08,.03-.14,.09-1.08,1.35-3.08,3.99-5.98,7.9l-.29-1.83c-.45-2.41-.87-4.11-1.26-5.1-.45-.71-1.11-1.06-1.96-1.06h-.36c-.39,0-1.22,.1-2.48,.29-.59,.05-.88,.17-.88,.38v.09c0,.21,.2,.78,.59,1.71,.41,1.05,.84,2.72,1.28,4.99-.55,.92-1.12,1.81-1.7,2.66-.92,1.34-2.2,2.91-3.86,4.71-2.6,2.68-4.65,4.02-6.14,4.02h-.2c-.2,0-.42-.05-.68-.14-.75-.29-1.13-1-1.13-2.14,0-.92,.24-2.2,.72-3.86h.02c.8,.74,1.68,1.11,2.64,1.11h.27c.86,0,1.77-.3,2.73-.9,.44-.29,.94-.77,1.51-1.44,1.62-2.26,2.44-4.32,2.44-6.18v-.2c0-.57-.08-1.11-.23-1.62-.24-.9-.63-1.53-1.17-1.87-1.44-.99-2.93-1.49-4.47-1.49-.89,0-1.64,.2-2.26,.61-.41,.18-1.04,.71-1.89,1.6-.8,.96-1.42,1.86-1.87,2.71-.93,1.62-1.79,3.65-2.57,6.07-.77,2.39-1.15,4.08-1.15,5.08v.43c0,.74,.14,1.48,.43,2.23,.47,1.31,1.28,2.25,2.44,2.82,.6,.35,1.4,.52,2.39,.52h.29c2.04,0,4.05-.72,6-2.17,.9-.69,1.93-1.71,3.09-3.07,1.62-1.99,2.91-3.88,3.86-5.68,.32-.62,.6-1.19,.86-1.72,.2,1.2,.41,2.52,.62,3.98-.38,.44-.94,1.01-1.69,1.71-1.44,1.29-2.7,2.26-3.77,2.89-.59,.24-.88,.67-.88,1.29v.02c0,.6,.2,1.22,.59,1.85,.23,.68,.55,1.02,.97,1.02,1.08,0,3-1.52,5.75-4.56h.02c.15,.54,.31,1.02,.47,1.42,.86,2.05,1.74,3.07,2.66,3.07h.07c.17,0,.28-.01,.34-.05,.12,.01,.22,.02,.29,.02h.05c.69,0,1.32-.2,1.89-.61,.21-.12,.57-.47,1.08-1.06,.83-1.08,1.62-2.17,2.36-3.29-.51,1.45-1.04,2.98-1.58,4.6-1.01,2.84-1.51,4.63-1.51,5.37,0,.65,.16,1.3,.47,1.96,.86,1.44,1.99,2.17,3.41,2.17h.14l.04-.02c0-.06,0-.23-.02-.5,0-1.83,.53-4.33,1.58-7.49,.45-1.34,.71-2.07,.79-2.19,1.11,.69,2.32,1.04,3.61,1.04h.07c3.47,0,6.5-2.45,9.07-7.35Zm-39.06-5.21c2.06-4.51,3.6-6.77,4.62-6.77h.05c.35,0,.52,.3,.52,.9v.23c0,.69-.2,1.64-.59,2.84-.33,.89-.65,1.58-.97,2.08-1.19,1.85-2.24,2.77-3.16,2.77h-.02c-.39,0-.75-.17-1.08-.5,.11-.3,.32-.82,.63-1.56Zm32.4,6.97c-1.26,1.44-2.21,2.17-2.84,2.17-.59,0-.88-.53-.88-1.58,0-1.5,.52-3.62,1.56-6.34,2.21-5.22,4.03-7.83,5.46-7.83,.14,0,.26,.02,.38,.05,.41,.18,.61,.71,.61,1.6,0,1.4-.42,3.36-1.26,5.89-.86,2.41-1.86,4.42-3.02,6.05Z"/><path class="d" d="M216.34,14.75c1.17,.6,1.92,.9,2.23,.9s.59-.17,.83-.52c.48-1.1,.72-1.9,.72-2.41v-.04c0-.33-.15-.66-.45-.99-1.11-.92-1.99-1.38-2.62-1.38h-.02c-.36,0-.63,.23-.81,.68-.66,1.41-.99,2.18-.99,2.3,0,.45,.37,.94,1.11,1.47Z"/><path class="d" d="M285.95,21.2c-.11,0-.25,.14-.43,.43-.99,1.85-2.03,3.56-3.11,5.14-.92,1.34-2.2,2.91-3.86,4.71-2.6,2.68-4.65,4.02-6.14,4.02h-.2c-.2,0-.42-.05-.68-.14-.75-.29-1.13-1-1.13-2.14,0-.92,.24-2.2,.72-3.86h.02c.8,.74,1.68,1.11,2.64,1.11h.27c.86,0,1.77-.3,2.73-.9,.44-.29,.94-.77,1.51-1.44,1.62-2.26,2.44-4.32,2.44-6.18v-.2c0-.57-.08-1.11-.23-1.62-.24-.9-.63-1.53-1.17-1.87-1.44-.99-2.93-1.49-4.47-1.49-.89,0-1.64,.2-2.26,.61-.41,.18-1.04,.71-1.89,1.6-.8,.96-1.42,1.86-1.87,2.71-.93,1.62-1.79,3.65-2.57,6.07-.17,.53-.32,1.02-.45,1.48-.21,.27-.44,.55-.67,.85-3.11,3.64-5.58,5.46-7.4,5.46-.45-.03-.78-.1-.97-.2-.68-.33-1.01-1.03-1.01-2.1,0-1.5,.58-3.68,1.74-6.52,2.15-4.81,3.76-7.22,4.83-7.22h.02c.36,0,.54,.38,.54,1.13,0,1.13-.44,2.42-1.31,3.88-.75,1.19-1.13,1.85-1.13,1.99,0,.09,.1,.22,.32,.38,.95,.5,1.68,.74,2.19,.74h.23c.3,0,.61-.15,.92-.45,1.32-1.68,1.99-3.38,1.99-5.1v-.43c0-.87-.19-1.68-.56-2.44-.09-.26-.33-.55-.72-.88-1.46-1.04-2.99-1.56-4.58-1.56-.5,0-1,.08-1.51,.23-.51,.14-1.26,.65-2.23,1.56-.78,.86-1.45,1.74-2.01,2.66-.69,1.22-1.3,2.47-1.83,3.77-.52,1.39-.94,2.62-1.27,3.7-.35,.46-.72,.94-1.11,1.44-2.62,3.2-4.21,4.82-4.78,4.85h-.07s-.09-.08-.14-.23c0-.14,.19-.8,.56-2.01,.84-2.54,2.12-5.79,3.83-9.75,.92-2.11,1.38-3.43,1.38-3.97v-.09c0-.38-.21-.76-.63-1.15-1.13-.84-2-1.26-2.62-1.26-2.12,0-5.05,2.73-8.78,8.19,1.38-3.19,2.08-5.08,2.08-5.66,0-.36-.15-.71-.45-1.04-1.08-.92-1.96-1.38-2.62-1.38-.08,0-.14,0-.2,.02-.26,0-.55,.33-.88,.99-1.06,2.36-2.37,5.91-3.95,10.65-.76,.97-1.67,2.04-2.74,3.2-2.6,2.68-4.65,4.02-6.14,4.02h-.2c-.2,0-.42-.05-.68-.14-.75-.29-1.13-1-1.13-2.14,0-.92,.24-2.2,.72-3.86h.02c.8,.74,1.68,1.11,2.64,1.11h.27c.86,0,1.77-.3,2.73-.9,.44-.29,.94-.77,1.51-1.44,1.62-2.26,2.44-4.32,2.44-6.18v-.2c0-.57-.08-1.11-.23-1.62-.24-.9-.63-1.53-1.17-1.87-1.44-.99-2.93-1.49-4.47-1.49-.89,0-1.64,.2-2.26,.61-.41,.18-1.04,.71-1.89,1.6-.8,.96-1.42,1.86-1.87,2.71-.93,1.62-1.79,3.65-2.57,6.07-.1,.31-.19,.6-.28,.89-.48,.63-.99,1.29-1.54,1.98-2.21,2.71-3.66,4.16-4.35,4.35-.14,0-.2-.08-.2-.25,0-.1,.14-.66,.43-1.67,.78-2.36,1.89-5.23,3.34-8.62,1.34-3.04,2.01-4.86,2.01-5.46,0-.38-.16-.72-.47-1.04-1.08-.9-1.96-1.35-2.62-1.35-.2,0-.35,.05-.47,.14-.12,.06-.35,.41-.68,1.04-1.07,2.46-2.32,5.85-3.75,10.15-.48,.64-.99,1.31-1.54,2.01-2.75,3.35-4.41,5.03-4.96,5.03-.17-.18-.11-.59,.18-1.22l2.93-7.24c1.02-2.39,1.57-3.78,1.65-4.16,.08-.38-.08-.82-.46-1.31-.38-.49-1.03-.73-1.95-.73-.66,0-1.49,.19-2.49,.58-1,.38-1.51,.49-1.53,.3-.02-.18,.12-.65,.44-1.4,1.11-2.21,.68-3.67-1.31-4.38-.96-.3-1.57-.23-1.83,.23-.27,.56-.71,1.71-1.31,3.45-.44,1.11-.65,1.89-.65,2.32,0,.41,.1,.83,.32,1.26,.38,.56,.82,.94,1.31,1.15-.61,1.04-1.24,2.03-1.89,2.98-.92,1.34-2.2,2.91-3.86,4.71-2.6,2.68-4.65,4.02-6.14,4.02h-.2c-.2,0-.42-.05-.68-.14-.75-.29-1.13-1-1.13-2.14,0-.92,.24-2.2,.72-3.86h.02c.8,.74,1.68,1.11,2.64,1.11h.27c.86,0,1.77-.3,2.73-.9,.44-.29,.94-.77,1.51-1.44,1.62-2.26,2.44-4.32,2.44-6.18v-.2c0-.57-.08-1.11-.23-1.62-.24-.9-.63-1.53-1.17-1.87-1.44-.99-2.93-1.49-4.47-1.49-.89,0-1.64,.2-2.26,.61-.41,.18-1.04,.71-1.89,1.6-.8,.96-1.42,1.86-1.87,2.71-.93,1.62-1.79,3.65-2.57,6.07-.77,2.39-1.15,4.08-1.15,5.08v.43c0,.74,.14,1.48,.43,2.23,.47,1.31,1.28,2.25,2.44,2.82,.6,.35,1.4,.52,2.39,.52h.29c2.04,0,4.05-.72,6-2.17,.9-.69,1.93-1.71,3.09-3.07,1.62-1.99,2.91-3.88,3.86-5.68,.81-1.58,1.43-2.88,1.86-3.9h.07c.35,0,.69-.1,1.04-.29,.99-.6,1.65-.93,1.96-.99,.11-.03,.15,0,.14,.11-.05,.14-1.27,3.47-3.68,9.99-.44,1.08-.65,1.86-.65,2.35,0,.65,.17,1.25,.52,1.8,.78,1.2,1.86,1.8,3.25,1.8s3.15-1.54,5.44-4.62c-.05,.27-.07,.5-.07,.67,0,.66,.15,1.3,.45,1.92,.71,1.32,1.76,1.99,3.16,1.99s3.33-1.79,5.86-5.35c.02,.69,.15,1.39,.42,2.1,.47,1.31,1.28,2.25,2.44,2.82,.6,.35,1.4,.52,2.39,.52h.29c2.04,0,4.05-.72,6-2.17,.84-.65,1.8-1.59,2.87-2.81-.1,.44-.14,.79-.14,1.05,0,.32,.05,.73,.16,1.24,.65,1.76,1.81,2.64,3.5,2.64,.05,0,.07-.01,.07-.05v-.7c0-.54,.08-1,.23-1.38,0-.26,.43-1.2,1.29-2.84,1.02-1.95,2.65-4.44,4.89-7.44,1.79-2.26,2.9-3.38,3.34-3.38,.1,.03,.16,.12,.16,.27s-.02,.32-.07,.52c-.12,.42-1.2,3.46-3.25,9.11-.42,1.07-.63,1.82-.63,2.26,0,.69,.22,1.36,.65,2.01,.81,1.05,1.79,1.58,2.93,1.58h.34c1.34,0,3.28-1.78,5.8-5.32,.02,.56,.11,1.13,.28,1.71,.47,1.41,1.17,2.38,2.1,2.89,.75,.54,1.68,.81,2.8,.81h.38c2.53,0,4.94-1.09,7.24-3.27,.7-.71,1.3-1.36,1.81-1.96,.04,.62,.17,1.25,.41,1.89,.47,1.31,1.28,2.25,2.44,2.82,.6,.35,1.4,.52,2.39,.52h.29c2.04,0,4.05-.72,6-2.17,.9-.69,1.93-1.71,3.09-3.07,1.62-1.99,2.91-3.88,3.86-5.68,1.74-3.41,2.62-5.53,2.62-6.34,0-.24-.1-.36-.29-.36Zm-99.73,5.05c2.06-4.51,3.6-6.77,4.62-6.77h.05c.35,0,.52,.3,.52,.9v.23c0,.69-.2,1.64-.59,2.84-.33,.89-.65,1.58-.97,2.08-1.19,1.85-2.24,2.77-3.16,2.77h-.02c-.39,0-.75-.17-1.08-.5,.11-.3,.32-.82,.63-1.56Zm37.83,0c2.06-4.51,3.6-6.77,4.62-6.77h.05c.35,0,.52,.3,.52,.9v.23c0,.69-.2,1.64-.59,2.84-.33,.89-.65,1.58-.97,2.08-1.19,1.85-2.24,2.77-3.16,2.77h-.02c-.39,0-.75-.17-1.08-.5,.11-.3,.32-.82,.63-1.56Zm48.27,0c2.06-4.51,3.6-6.77,4.62-6.77h.05c.35,0,.52,.3,.52,.9v.23c0,.69-.2,1.64-.59,2.84-.33,.89-.65,1.58-.97,2.08-1.19,1.85-2.24,2.77-3.16,2.77h-.02c-.39,0-.75-.17-1.08-.5,.11-.3,.32-.82,.63-1.56Z"/><path class="d" d="M170.6,45.92c.36,0,.62,.17,.76,.43l.58-.34c-.25-.43-.73-.71-1.34-.71-.89,0-1.54,.66-1.54,1.45,0,.84,.65,1.49,1.54,1.49,.6,0,1.07-.31,1.33-.74l-.58-.33c-.14,.25-.4,.43-.75,.43-.5,0-.84-.4-.84-.85s.35-.83,.84-.83Z"/><path class="d" d="M174.42,45.3c-.82,0-1.47,.66-1.47,1.47s.65,1.47,1.47,1.47,1.47-.66,1.47-1.47-.66-1.47-1.47-1.47Zm0,2.31c-.46,0-.84-.37-.84-.84s.38-.83,.84-.83,.83,.37,.83,.83-.38,.84-.83,.84Z"/><path class="d" d="M178.37,46.46c-.4-.1-.59-.16-.59-.3,0-.16,.25-.26,.46-.26,.29,0,.46,.19,.46,.33h.68c0-.44-.39-.95-1.13-.95-.65,0-1.16,.38-1.16,.9,0,.63,.75,.79,1.18,.89,.26,.06,.5,.13,.5,.31,0,.12-.11,.25-.42,.25-.56,0-.62-.45-.62-.45h-.68c0,.44,.37,1.05,1.26,1.05,.66,0,1.14-.34,1.14-.88,0-.63-.63-.78-1.08-.89Z"/><polygon class="d" points="182.54 47.43 181.55 45.35 180.79 45.35 180.79 48.19 181.47 48.19 181.47 46.74 182.15 48.19 182.92 48.19 183.6 46.74 183.6 48.19 184.29 48.19 184.29 45.35 183.52 45.35 182.54 47.43"/><g><polygon class="d" points="185.75 48.19 187.93 48.19 187.93 47.56 186.44 47.56 186.44 47.07 187.69 47.07 187.69 46.47 186.44 46.47 186.44 45.98 187.93 45.98 187.93 45.35 185.75 45.35 185.75 48.19"/><polygon class="d" points="186.31 44.07 186.08 44.63 187.41 45.04 187.64 44.62 186.31 44.07"/></g><g><polygon class="d" points="260.8 48.19 262.98 48.19 262.98 47.56 261.49 47.56 261.49 47.07 262.73 47.07 262.73 46.47 261.49 46.47 261.49 45.98 262.98 45.98 262.98 45.35 260.8 45.35 260.8 48.19"/><polygon class="d" points="261.36 44.07 261.13 44.63 262.46 45.04 262.68 44.62 261.36 44.07"/></g><polygon class="d" points="189.16 45.98 190.16 45.98 190.16 48.19 190.86 48.19 190.86 45.98 191.87 45.98 191.87 45.35 189.16 45.35 189.16 45.98"/><rect class="d" x="193.17" y="45.35" width=".69" height="2.84"/><path class="d" d="M196.72,45.92c.36,0,.62,.17,.76,.43l.58-.34c-.25-.43-.73-.71-1.34-.71-.89,0-1.54,.66-1.54,1.45,0,.84,.65,1.49,1.54,1.49,.6,0,1.07-.31,1.33-.74l-.58-.33c-.14,.25-.4,.43-.75,.43-.5,0-.84-.4-.84-.85s.35-.83,.84-.83Z"/><path class="d" d="M200.54,46.46c-.4-.1-.59-.16-.59-.3,0-.16,.25-.26,.46-.26,.29,0,.46,.19,.46,.33h.68c0-.44-.39-.95-1.13-.95-.65,0-1.16,.38-1.16,.9,0,.63,.75,.79,1.18,.89,.26,.06,.5,.13,.5,.31,0,.12-.11,.25-.42,.25-.56,0-.62-.45-.62-.45h-.68c0,.44,.37,1.05,1.26,1.05,.66,0,1.14-.34,1.14-.88,0-.63-.63-.78-1.08-.89Z"/><polygon class="d" points="206.87 47.08 205.43 45.35 204.74 45.35 204.74 48.19 205.43 48.19 205.43 46.45 206.87 48.19 207.56 48.19 207.56 45.35 206.87 45.35 206.87 47.08"/><path class="d" d="M210.04,45.35l-1.22,2.84h.73l.19-.44h1.37l.18,.44h.73l-1.22-2.84h-.77Zm-.06,1.84l.45-1.06,.44,1.06h-.89Z"/><polygon class="d" points="212.61 45.98 213.62 45.98 213.62 48.19 214.32 48.19 214.32 45.98 215.32 45.98 215.32 45.35 212.61 45.35 212.61 45.98"/><path class="d" d="M218.53,46.73c0,.55-.27,.87-.69,.87s-.67-.33-.67-.87v-1.38h-.69v1.38c0,.94,.55,1.51,1.35,1.51s1.39-.57,1.39-1.51v-1.38h-.69v1.38Z"/><path class="d" d="M222.94,46.41c0-.62-.43-1.07-1.01-1.07h-1.38v2.84h.69v-.71h.5l.43,.71h.85l-.59-.86c.31-.16,.51-.51,.51-.92Zm-1.11,.43h-.59v-.87h.59c.23,0,.42,.2,.42,.43s-.19,.43-.42,.43Z"/><path class="d" d="M225.39,45.35l-1.22,2.84h.73l.19-.44h1.37l.18,.44h.73l-1.22-2.84h-.77Zm-.06,1.84l.45-1.06,.44,1.06h-.89Z"/><polygon class="d" points="229.36 45.35 228.68 45.35 228.68 48.19 230.86 48.19 230.86 47.56 229.36 47.56 229.36 45.35"/><path class="d" d="M233.35,46.46c-.4-.1-.59-.16-.59-.3,0-.16,.25-.26,.46-.26,.29,0,.46,.19,.46,.33h.68c0-.44-.39-.95-1.13-.95-.65,0-1.16,.38-1.16,.9,0,.63,.75,.79,1.18,.89,.26,.06,.5,.13,.5,.31,0,.12-.11,.25-.42,.25-.56,0-.62-.45-.62-.45h-.68c0,.44,.37,1.05,1.26,1.05,.66,0,1.14-.34,1.14-.88,0-.63-.63-.78-1.08-.89Z"/><rect class="d" x="237.59" y="45.35" width=".69" height="2.84"/><polygon class="d" points="241.41 45.98 242.42 45.98 242.42 48.19 243.11 48.19 243.11 45.98 244.12 45.98 244.12 45.35 241.41 45.35 241.41 45.98"/><polygon class="d" points="245.42 48.19 247.6 48.19 247.6 47.56 246.11 47.56 246.11 47.07 247.35 47.07 247.35 46.47 246.11 46.47 246.11 45.98 247.6 45.98 247.6 45.35 245.42 45.35 245.42 48.19"/><path class="d" d="M251.33,46.41c0-.62-.43-1.07-1.01-1.07h-1.38v2.84h.69v-.71h.5l.43,.71h.85l-.59-.86c.31-.16,.51-.51,.51-.92Zm-1.11,.43h-.59v-.87h.59c.23,0,.42,.2,.42,.43s-.19,.43-.42,.43Z"/><path class="d" d="M253.79,45.35l-1.22,2.84h.73l.19-.44h1.37l.18,.44h.73l-1.22-2.84h-.77Zm-.06,1.84l.45-1.06,.44,1.06h-.89Z"/><path class="d" d="M258.36,45.35h-1.31v2.84h.69v-.64h.62c.73,0,1.08-.54,1.08-1.1s-.35-1.1-1.08-1.1Zm-.08,1.57h-.54v-.93h.54c.28,0,.46,.15,.46,.46s-.19,.47-.46,.47Z"/><path class="d" d="M266.28,46.73c0,.55-.27,.87-.69,.87s-.67-.33-.67-.87v-1.38h-.69v1.38c0,.94,.55,1.51,1.35,1.51s1.39-.57,1.39-1.51v-1.38h-.69v1.38Z"/><polygon class="d" points="268.13 45.98 269.14 45.98 269.14 48.19 269.83 48.19 269.83 45.98 270.84 45.98 270.84 45.35 268.13 45.35 268.13 45.98"/><rect class="d" x="272.14" y="45.35" width=".69" height="2.84"/><path class="d" d="M275.7,45.92c.36,0,.62,.17,.76,.43l.58-.34c-.25-.43-.73-.71-1.34-.71-.89,0-1.54,.66-1.54,1.45,0,.84,.65,1.49,1.54,1.49,.6,0,1.07-.31,1.33-.74l-.58-.33c-.14,.25-.4,.43-.75,.43-.5,0-.84-.4-.84-.85s.35-.83,.84-.83Z"/><path class="d" d="M279.52,46.46c-.4-.1-.59-.16-.59-.3,0-.16,.25-.26,.46-.26,.29,0,.46,.19,.46,.33h.68c0-.44-.39-.95-1.13-.95-.65,0-1.16,.38-1.16,.9,0,.63,.75,.79,1.18,.89,.26,.06,.5,.13,.5,.31,0,.12-.11,.25-.42,.25-.56,0-.62-.45-.62-.45h-.68c0,.44,.37,1.05,1.26,1.05,.66,0,1.14-.34,1.14-.88,0-.63-.63-.78-1.08-.89Z"/><path class="d" d="M75.02,38.07c-3.56,0-5.76-3.45-5.76-9.93s1.33-10.74,5.76-10.74c2.63,0,4.43,1.62,7.67,5.93l.35-.09-.58-5.62c-1.94-.43-4.02-.93-7.38-.93-7.15,0-12.42,5.1-12.42,11.44s5.53,10.62,12.33,10.62c4.28,0,6.69-1.59,7.58-2.2l.58-5.93-.35-.09c-2.78,4.63-4.6,7.53-7.79,7.53Z"/><path class="d" d="M98.56,27.3c3.79-.93,4.69-3.21,4.69-5.33,0-2.92-2.03-4.83-7.41-4.83h-10.28v.06c.78,2.26,1.19,3.39,1.19,6.51v8.05c0,3.1-.41,4.31-1.19,6.51v.06h10.77c5.47,0,7.82-2.06,7.82-5.5,0-2.78-1.65-4.75-5.59-5.53Zm-5.67-9.44c.38-.03,.72-.06,1.04-.06,2.9,0,3.47,2.37,3.47,4.66s-.96,4.49-3.65,4.49h-.87v-9.09Zm1.1,19.89h-.55c-.17,0-.35-.03-.55-.06v-10.02h.9c3.21,0,4.05,2.23,4.05,4.89,0,2.89-1.07,5.18-3.85,5.18Z"/><path class="d" d="M114.97,17.03c-3.91,0-6.11,.12-8.86,.12v.06c.78,2.26,1.19,3.39,1.19,6.51v8.05c0,3.1-.41,4.31-1.19,6.51v.06h8.86c8.37,0,13.2-3.85,13.2-10.68s-5.1-10.62-13.2-10.62Zm.26,20.5c-.23,0-.96-.09-1.79-.23V18.07c.72-.14,1.22-.23,1.53-.23,5.18-.09,6.6,3.36,6.6,10.22,0,5.99-1.07,9.61-6.34,9.47Z"/><g><path class="d" d="M37.84,23.56c.88-.88,1.65-1.88,2.28-2.97,1.22-2.1,1.92-4.54,1.92-7.15-2.61,0-5.05,.7-7.15,1.92-1.09,.63-2.08,1.4-2.97,2.28,0-1.25-.16-2.5-.48-3.71-.63-2.35-1.86-4.57-3.7-6.41-1.84,1.84-3.07,4.06-3.7,6.41-.32,1.21-.49,2.46-.48,3.71-.88-.88-1.88-1.65-2.97-2.28-2.1-1.22-4.54-1.92-7.15-1.92,0,2.61,.7,5.05,1.92,7.15,.63,1.09,1.4,2.08,2.28,2.97-1.25,0-2.5,.16-3.71,.48-2.35,.63-4.57,1.86-6.41,3.7,1.84,1.84,4.06,3.07,6.41,3.7,2.42,.65,4.98,.65,7.4,0,2.35-.63,4.57-1.86,6.41-3.7,1.84,1.84,4.06,3.07,6.41,3.7,2.42,.65,4.98,.65,7.4,0,2.35-.63,4.57-1.86,6.41-3.7-1.84-1.84-4.06-3.07-6.41-3.7-1.21-.32-2.46-.49-3.71-.48Z"/><path class="d" d="M22.37,42.59c0,2.97,2.4,5.37,5.37,5.37s5.37-2.4,5.37-5.37c0-4.46-5.37-10.67-5.37-10.67,0,0-5.37,6.21-5.37,10.67Z"/><path class="d" d="M27.74,0C12.44,0,0,12.44,0,27.74s12.44,27.74,27.74,27.74,27.74-12.44,27.74-27.74S43.03,0,27.74,0Zm0,53.21c-14.05,0-25.47-11.43-25.47-25.47S13.69,2.27,27.74,2.27s25.47,11.43,25.47,25.47-11.43,25.47-25.47,25.47Z"/></g></g></g></g></svg>