<?xml version="1.0" encoding="UTF-8"?><svg xmlns="http://www.w3.org/2000/svg" viewBox="0 0 226.77 24.81"><defs><style>.d,.e{fill:#fff;}.f{opacity:.5;}.e{fill-rule:evenodd;}</style></defs><g id="a"/><g id="b"><g id="c"><g class="f"><g><polygon class="e" points="162.5 14.7 152.22 0 157.8 0 164.85 10.09 171.91 0 177.48 0 167.16 14.77 167.16 24.72 162.5 24.72 162.5 14.7 162.5 14.7"/><polygon class="e" points="26.98 24.72 26.98 0 43.59 0 43.59 4.63 31.65 4.63 31.65 10.09 41.27 10.09 41.27 14.72 31.65 14.72 31.65 20.09 43.59 20.09 43.59 24.72 26.98 24.72 26.98 24.72"/><path class="e" d="M135.4,24.72h-4.67V0h10.99c4.52,0,8.22,3.73,8.22,8.29,0,3.78-2.54,6.99-5.99,7.98l5.92,8.45h-5.65l-5.7-8.14h-3.12v8.14h0Zm0-20.09v7.31h6.18c1.99,0,3.62-1.64,3.62-3.66s-1.63-3.66-3.62-3.66h-6.18Z"/><polygon class="e" points="54.79 24.72 50.13 24.72 50.13 0 54.84 0 66.59 16.86 66.59 0 71.25 0 71.25 24.72 66.47 24.72 54.79 7.97 54.79 24.72 54.79 24.72"/><polygon class="e" points="217.05 24.72 212.38 24.72 212.38 4.63 209.8 4.63 209.8 0 217.05 0 217.05 24.72 217.05 24.72"/><polygon class="e" points="97.2 4.63 89.79 4.63 89.79 24.72 85.13 24.72 85.13 4.63 77.72 4.63 77.72 0 97.2 0 97.2 4.63 97.2 4.63"/><path class="e" d="M204.86,24.69h-16.31l10.18-14.52c.63-.9,.99-1.7,.99-2.6,0-1.34-1.19-2.87-3.08-2.9-2.07-.04-3.25,1.48-3.28,3.39h-4.74c0-4.56,3.48-8.05,7.92-8.05s7.86,3.43,7.86,7.7c0,1.98-.46,3.31-1.71,5.1l-5.07,7.25h7.25v4.63h0Z"/><path class="e" d="M119.6,0h4.67l.03,14.61c.01,5.62-4.64,10.2-10.3,10.2s-10.28-4.58-10.29-10.2l-.03-14.61h4.67V14.42c0,3.07,2.53,5.71,5.63,5.71s5.63-2.64,5.63-5.71V0h0Z"/><path class="e" d="M17.83,18.05l2.68,3.83c-2.17,1.81-4.97,2.9-8.02,2.9C5.59,24.77,0,19.23,0,12.39S5.59,0,12.48,0c3.06,0,5.86,1.09,8.03,2.9l-2.68,3.83c-1.4-1.3-3.36-2.06-5.31-2.06-4.32,0-7.78,3.43-7.78,7.72s3.46,7.72,7.78,7.72c2.03,0,3.91-.76,5.3-2.06h0Z"/><path class="d" d="M223.72,18.62c.51,0,1.01,.13,1.5,.39,.49,.26,.87,.64,1.14,1.13,.27,.49,.41,1,.41,1.53s-.13,1.03-.4,1.52c-.27,.49-.64,.86-1.13,1.13-.48,.27-.99,.4-1.52,.4s-1.03-.13-1.52-.4c-.48-.27-.86-.64-1.13-1.13-.27-.48-.4-.99-.4-1.52s.14-1.04,.41-1.53c.27-.49,.66-.87,1.14-1.13,.49-.26,.99-.39,1.5-.39h0Zm0,.51c-.43,0-.85,.11-1.25,.33-.41,.22-.72,.53-.95,.94-.23,.41-.34,.83-.34,1.28s.11,.86,.34,1.26c.23,.4,.54,.72,.94,.94,.4,.22,.83,.34,1.27,.34s.86-.11,1.27-.34c.4-.23,.72-.54,.94-.94,.22-.4,.34-.82,.34-1.26s-.11-.87-.34-1.28c-.23-.41-.55-.72-.95-.94-.41-.22-.82-.33-1.25-.33h0Zm-1.34,4.23v-3.28h1.13c.39,0,.66,.03,.84,.09,.17,.06,.31,.17,.41,.32,.1,.15,.15,.31,.15,.48,0,.24-.09,.45-.26,.63-.17,.18-.4,.28-.68,.3,.12,.05,.21,.11,.28,.17,.13,.13,.29,.35,.49,.65l.4,.64h-.64l-.29-.52c-.23-.41-.41-.66-.56-.76-.1-.07-.24-.11-.42-.11h-.31v1.39h-.53Zm.53-1.85h.64c.31,0,.52-.05,.63-.14,.11-.09,.17-.21,.17-.36,0-.1-.03-.18-.08-.26-.05-.08-.13-.13-.22-.17-.1-.04-.27-.06-.53-.06h-.6v.98h0Z"/></g></g></g></g></svg>