<?xml version="1.0" encoding="UTF-8"?><svg xmlns="http://www.w3.org/2000/svg" viewBox="0 0 216.95 64.48"><defs><style>.d{fill:#fff;}.e{opacity:.5;}</style></defs><g id="a"/><g id="b"><g id="c"><g class="e"><g><g><path class="d" d="M35.81,38.17V2.12h10.27c4.02,0,6.83,.18,8.41,.55,1.58,.37,2.95,.99,4.1,1.86,1.3,.99,2.29,2.24,2.99,3.77,.7,1.53,1.05,3.21,1.05,5.05,0,2.79-.69,5.06-2.06,6.81-1.37,1.75-3.37,2.91-6,3.48l9.83,14.53h-11.11l-8.28-14.11v14.11h-9.21Zm9.21-19.01h1.82c2.12,0,3.67-.36,4.64-1.08,.98-.72,1.47-1.86,1.47-3.4,0-1.81-.46-3.09-1.37-3.85-.91-.76-2.44-1.15-4.59-1.15h-1.97v9.48Z"/><path class="d" d="M92.43,27.48h-18.91c.02,1.92,.51,3.4,1.48,4.45,.97,1.04,2.34,1.56,4.11,1.56,1.33,0,2.45-.25,3.36-.75,.91-.5,1.6-1.24,2.08-2.23l6.6,2.66c-.79,1.9-2.18,3.37-4.19,4.41-2,1.03-4.46,1.55-7.36,1.55-4.33,0-7.81-1.2-10.43-3.61-2.62-2.41-3.93-5.58-3.93-9.52s1.31-7.09,3.93-9.65c2.62-2.56,5.93-3.84,9.94-3.84s7.37,1.3,9.75,3.89c2.38,2.59,3.57,6.15,3.57,10.66v.42Zm-8.64-4.95c-.16-1.41-.7-2.54-1.61-3.4-.91-.85-2.03-1.28-3.36-1.28-1.43,0-2.57,.39-3.41,1.17-.85,.78-1.41,1.95-1.69,3.51h10.07Z"/><path class="d" d="M97.46,38.17V13.3h8.03v5.05c1.17-2.02,2.51-3.5,4.04-4.43s3.36-1.4,5.49-1.4c1.61,0,3.04,.26,4.3,.78s2.28,1.26,3.07,2.23c.66,.84,1.12,1.86,1.4,3.05,.28,1.2,.42,2.99,.42,5.37v14.24h-8.79v-13.32c0-1.99-.32-3.43-.97-4.33-.65-.9-1.69-1.35-3.12-1.35-1.82,0-3.15,.67-3.99,2.02-.84,1.35-1.26,3.53-1.26,6.55v10.44h-8.62Z"/><path class="d" d="M131.74,38.17V19.51h-3.72v-6.21h3.72V5.89h8.64v7.41h3.72v6.21h-3.72v18.67h-8.64Z"/><path class="d" d="M174.86,13.3v24.87h-8.05v-4.04c-1.15,1.72-2.44,2.99-3.88,3.79-1.44,.8-3.12,1.21-5.06,1.21-3.32,0-5.97-1.21-7.95-3.63-1.99-2.42-2.98-5.67-2.98-9.74s1.04-7.28,3.12-9.67c2.08-2.39,4.87-3.58,8.39-3.58,1.87,0,3.48,.4,4.84,1.19,1.35,.8,2.52,2.02,3.48,3.68v-4.09h8.1Zm-7.71,12.41c0-1.94-.52-3.47-1.55-4.61s-2.45-1.7-4.24-1.7-3.2,.56-4.22,1.69c-1.03,1.12-1.54,2.66-1.54,4.62s.52,3.46,1.55,4.58c1.03,1.12,2.44,1.67,4.21,1.67s3.2-.56,4.24-1.67c1.03-1.12,1.55-2.64,1.55-4.58Z"/><path class="d" d="M181.73,38.17V0h8.79V38.17h-8.79Z"/><path class="d" d="M194.91,36.1l1.82-6.7c1.28,1.12,2.69,1.97,4.22,2.57,1.53,.6,3.08,.9,4.64,.9,1.1,0,1.94-.18,2.51-.53,.57-.35,.86-.87,.86-1.54,0-1.1-1.16-1.92-3.47-2.46-.76-.18-1.36-.34-1.82-.47-2.63-.72-4.54-1.67-5.73-2.84-1.19-1.17-1.79-2.7-1.79-4.57,0-2.41,.91-4.34,2.72-5.79,1.81-1.44,4.27-2.17,7.38-2.17,1.59,0,3.21,.18,4.86,.55,1.65,.37,3.34,.94,5.06,1.71l-1.82,6.03c-1.17-.79-2.35-1.39-3.55-1.8-1.2-.41-2.4-.62-3.6-.62-1,0-1.76,.16-2.27,.47-.51,.31-.76,.76-.76,1.35,0,.89,1.15,1.63,3.45,2.24,.53,.15,.92,.25,1.18,.32,3.04,.87,5.15,1.89,6.34,3.07,1.19,1.17,1.79,2.76,1.79,4.77,0,2.55-.98,4.6-2.93,6.17-1.95,1.57-4.54,2.35-7.76,2.35-2.18,0-4.21-.25-6.08-.75-1.87-.5-3.63-1.26-5.27-2.28Z"/></g><path class="d" d="M8.28,28.31v1.23c0,1.94,.48,3.45,1.43,4.53,.95,1.08,2.2,1.63,3.75,1.63s3.28-.38,5-1.13c1.72-.76,3.44-1.76,5.15-3.01,1.71-1.25,3.79-2.92,6.26-5.03v3.01c-3.71,4.47-7.19,7.89-10.45,10.28-3.25,2.38-6.55,3.57-9.91,3.57-2.92,0-5.24-1.13-6.95-3.4-1.71-2.27-2.56-5.37-2.56-9.31,0-3.45,.8-6.58,2.41-9.39,1.61-2.81,4.24-5.77,7.89-8.9,2.5-2.14,4.98-3.75,7.44-4.83,2.46-1.08,4.66-1.63,6.6-1.63,1.54,0,2.77,.35,3.67,1.06,.9,.71,1.35,1.77,1.35,3.18,0,2.07-.77,4.13-2.32,6.18-1.54,2.05-3.9,4.09-7.07,6.11-3.17,2.02-7.07,3.97-11.7,5.84Zm.49-3.2c2.96-1.15,5.49-2.58,7.59-4.29,2.1-1.71,3.65-3.34,4.66-4.9,1-1.56,1.5-2.7,1.5-3.42s-.35-1.13-1.03-1.13c-.59,0-1.55,.38-2.88,1.13-1.33,.76-2.68,1.74-4.04,2.96-1.36,1.22-2.59,2.64-3.67,4.29-1.08,1.64-1.79,3.43-2.12,5.37Z"/></g><g><path class="d" d="M66.31,62.27c-.31,1.07-1.27,1.91-2.48,2.15-.22,.04-.44,.06-.67,.06-.44,0-.89-.07-1.3-.24-.7-.28-1.3-.74-1.82-1.41l1.36-1.07c.31,.42,.68,.71,1.08,.86,.33,.13,.68,.16,1.01,.09,.56-.1,1.02-.47,1.16-.92,.15-.5-.19-.95-.5-1.24-.49-.46-1.29-1.24-1.35-1.3l-1.35-1.27c-.42-.4-.7-.84-.84-1.32-.15-.46-.16-.95-.03-1.39,.13-.47,.41-.89,.82-1.23,.37-.31,.83-.53,1.32-.62,.53-.12,1.1-.07,1.63,.12,.56,.22,1.07,.59,1.5,1.11l-1.35,1.08c-.56-.68-1.14-.68-1.45-.62-.39,.07-.71,.33-.8,.64-.06,.21-.04,.55,.41,.99l1.84,1.76c.27,.27,.59,.58,.83,.8,.47,.43,.8,.92,.96,1.44,.16,.5,.18,1.04,.03,1.54Z"/><path class="d" d="M78.76,64.48v-11h1.72v11h-1.72Z"/><path class="d" d="M100.5,55.02h-3.02v9.46h-1.73v-9.46h-3.02v-1.54h7.78v1.54Z"/><path class="d" d="M120.67,60.33v2.98l-.39,.27s-.01,0-.03,.01c-.02,.01-.04,.03-.06,.03-.01,.01-.03,.03-.04,.03-.01,.01-.03,.03-.06,.03-.01,.01-.03,.03-.06,.04-.02,.01-.03,.01-.04,.03s-.03,.01-.04,.03c-.03,.02-.04,.02-.07,.03-.01,.01-.03,.01-.04,.03-.02,.01-.04,.03-.07,.03l-.03,.03h-.03s-.04,.03-.07,.04c-.03,.01-.07,.03-.1,.04h-.01c-.62,.3-1.27,.44-1.97,.49h-.28c-.59,0-1.19-.09-1.73-.28h-.02c-.06-.01-.1-.04-.16-.06-.07-.03-.15-.06-.22-.09-.19-.07-.37-.16-.53-.27-.44-.24-.86-.55-1.22-.92-.5-.5-.9-1.08-1.19-1.75-.21-.5-.36-1.04-.4-1.59-.01-.18-.03-.37-.03-.55v-.28c.04-.64,.18-1.27,.43-1.87,.28-.65,.68-1.24,1.19-1.75s1.08-.9,1.75-1.17c.67-.3,1.39-.43,2.13-.43h.28s.09,0,.13,.01c.64,.04,1.26,.19,1.85,.46,0,0,0,.01,.02,.01l.09,.04h.01v2.03c-.22-.19-.47-.34-.74-.47-.22-.1-.46-.19-.68-.25-.02,0-.03,0-.04-.01h-.04s-.03-.01-.06-.01c0,0-.01,0-.03-.01-.06-.01-.13-.01-.19-.03h-.03s-.04-.01-.06-.01h-.03s-.04,0-.06-.01h-.13s-.03-.01-.04-.01h-.24c-.7,0-1.36,.18-1.94,.53-.02,.01-.04,.03-.07,.04-.24,.15-.46,.33-.65,.53-.06,.06-.13,.12-.19,.19,0,0,0,.01-.01,.01-.07,.09-.13,.18-.19,.27l-.03,.03s-.06,.09-.09,.13c-.02,.01-.03,.04-.03,.06-.22,.36-.37,.73-.46,1.13t-.01,.03c-.03,.15-.06,.3-.07,.44v.16c-.01,.07-.01,.13-.01,.21,0,.06,0,.12,.01,.19,.01,.28,.06,.56,.13,.83,.18,.62,.5,1.19,.96,1.64,.71,.71,1.66,1.11,2.67,1.11h.1s.03,0,.04-.01h.22s.02-.01,.03-.01h.09c.1-.01,.22-.04,.33-.06t.03-.01s.04,0,.06-.01h.04s.03-.01,.04-.01c.01-.02,.04-.02,.06-.02s.03-.01,.03-.01c.21-.06,.42-.13,.61-.24h.02v-2.03h-2.08v-1.56h3.79v1.56Z"/><path class="d" d="M134.86,57.96h4.02v1.56h-4.02v3.41h4.88v1.56h-6.59v-11h6.59v1.54h-4.88v2.93Z"/><path class="d" d="M158.26,62.27c-.31,1.07-1.27,1.91-2.48,2.15-.22,.04-.44,.06-.67,.06-.44,0-.89-.07-1.3-.24-.7-.28-1.3-.74-1.82-1.41l1.36-1.07c.31,.42,.68,.71,1.08,.86,.33,.13,.68,.16,1.01,.09,.56-.1,1.02-.47,1.16-.92,.15-.5-.19-.95-.5-1.24-.49-.46-1.29-1.24-1.35-1.3l-1.35-1.27c-.42-.4-.7-.84-.84-1.32-.15-.46-.16-.95-.03-1.39,.13-.47,.42-.89,.82-1.23,.37-.31,.83-.53,1.32-.62,.53-.12,1.1-.07,1.63,.12,.56,.22,1.07,.59,1.5,1.11l-1.35,1.08c-.56-.68-1.14-.68-1.45-.62-.39,.07-.71,.33-.8,.64-.06,.21-.04,.55,.42,.99l1.84,1.76c.27,.27,.59,.58,.83,.8,.47,.43,.8,.92,.96,1.44,.16,.5,.18,1.04,.03,1.54Z"/></g></g></g></g></svg>