<?xml version="1.0" encoding="UTF-8"?><svg xmlns="http://www.w3.org/2000/svg" viewBox="0 0 128.21 128.21"><defs><style>.d{fill:#fff;}.e{opacity:.5;}</style></defs><g id="a"/><g id="b"><g id="c"><g class="e"><g><path class="d" d="M64.11,128.21C28.76,128.21,0,99.46,0,64.11S28.76,0,64.11,0s64.11,28.76,64.11,64.11-28.76,64.11-64.11,64.11Zm0-126.51C29.7,1.71,1.71,29.7,1.71,64.11s27.99,62.4,62.4,62.4,62.4-27.99,62.4-62.4S98.51,1.71,64.11,1.71Z"/><path class="d" d="M122.65,63.09c-.6-.72-1.24-1.31-1.94-1.79-.69-.47-1.44-.85-2.23-1.13-.79-.28-1.65-.42-2.55-.42-1.06,0-2.02,.19-2.87,.58-.85,.39-1.57,.92-2.16,1.59-.59,.68-1.04,1.47-1.36,2.38-.32,.91-.47,2-.47,3.26,0,.19,0,.37,.02,.56-.01,.01-.03,.03-.04,.04-.51,.52-1.04,.99-1.6,1.42-.56,.43-1.12,.79-1.67,1.07-.56,.28-1.06,.42-1.52,.42s-.85-.1-1.14-.31c-.3-.21-.54-.46-.72-.77-.19-.31-.31-.65-.37-1.03-.06-.37-.09-.73-.09-1.08,0-.23,0-.51,.03-.85,.02-.34,.07-.7,.15-1.07,.08-.37,.22-.83,.41-1.39,.19-.55,.38-.98,.58-1.28,.19-.3,.43-.55,.71-.73,.28-.19,.61-.28,1-.28,.16,0,.27,.08,.31,.23,.05,.15,.07,.34,.07,.57,0,.27,0,.44-.01,.52-.14,.56-.23,.91-.26,1.06-.09,.29-.01,.62,.22,.99,.14,.24,.45,.36,.94,.36,.32,0,.61-.08,.86-.23,.25-.15,.52-.44,.78-.87,.27-.43,.45-.8,.54-1.11,.09-.32,.14-.64,.14-.96,0-.47-.1-.91-.3-1.31-.2-.41-.47-.76-.82-1.06-.35-.3-.77-.53-1.27-.7-.49-.17-1.03-.25-1.61-.25-.64,0-1.24,.12-1.77,.35-.54,.23-1.03,.55-1.46,.95-.44,.4-.82,.86-1.15,1.39-.33,.53-.61,1.08-.84,1.66-.23,.58-.43,1.26-.63,2.03-.19,.78-.29,1.44-.29,1.99,0,.33,.03,.65,.07,.97-.12,.06-.25,.12-.37,.18-.43,.2-.84,.4-1.24,.59-.4,.19-.77,.4-1.11,.63,0-.62,.03-1.23,.08-1.84,.05-.61,.04-1.09-.03-1.44-.07-.35-.15-.65-.22-.92-.08-.27-.15-.52-.23-.75-.07-.24-.13-.48-.18-.73-.04-.25-.07-.52-.07-.82,.03-.11,.14-.27,.34-.49,.2-.22,.4-.46,.62-.72,.22-.26,.42-.53,.6-.81,.18-.28,.27-.54,.27-.77,0-.12,0-.25-.03-.41-.02-.16-.09-.31-.2-.46-.11-.15-.3-.27-.55-.37-.25-.1-.6-.15-1.06-.15-.28,0-.53,.04-.75,.12-.23,.08-.43,.19-.62,.32-.19,.13-.36,.28-.51,.44-.15,.16-.29,.33-.42,.51-.61,.77-1.11,1.42-1.49,1.94-.38,.52-.71,.96-.98,1.31-.27,.36-.5,.67-.7,.93-.2,.26-.46,.6-.8,1.01-.34,.41-.67,.77-1,1.08-.18,.17-.39,.36-.63,.57-.2,.17-.42,.34-.65,.51-.54,.4-1.11,.76-1.71,1.1-.6,.34-1.22,.62-1.86,.84-.64,.23-1.24,.34-1.82,.34-.18,0-.35-.02-.51-.06-.16-.04-.31-.1-.45-.2-.14-.09-.29-.22-.42-.39-.14-.17-.28-.38-.42-.63,.83-.22,1.61-.54,2.32-.94,.71-.4,1.33-.86,1.85-1.37,.52-.51,.97-1.13,1.36-1.85,.39-.72,.58-1.37,.58-1.95,0-.54-.1-1.04-.29-1.48-.19-.44-.46-.81-.8-1.13-.34-.31-.74-.55-1.2-.72-.46-.17-.96-.26-1.49-.26-.66,0-1.25,.12-1.79,.35-.54,.23-1.02,.54-1.46,.93-.43,.39-.81,.85-1.13,1.36-.32,.51-.59,1.06-.81,1.62-.22,.57-.42,1.22-.62,1.95-.2,.73-.3,1.36-.3,1.89-.13,.14-.25,.28-.4,.42-.51,.52-1.04,.99-1.6,1.42-.56,.43-1.12,.79-1.67,1.07-.56,.28-1.06,.42-1.52,.42s-.85-.1-1.14-.31c-.3-.21-.54-.46-.72-.77-.19-.31-.31-.65-.37-1.03-.06-.37-.09-.73-.09-1.08,0-.23,.01-.51,.03-.85,.02-.34,.07-.7,.15-1.07,.08-.37,.22-.83,.41-1.39,.19-.55,.38-.98,.58-1.28,.19-.3,.43-.55,.71-.73,.28-.19,.61-.28,1-.28,.16,0,.27,.08,.31,.23,.05,.15,.07,.34,.07,.57,0,.27,0,.44-.01,.52-.14,.56-.23,.91-.26,1.06-.09,.29-.01,.62,.22,.99,.14,.24,.45,.36,.94,.36,.32,0,.61-.08,.86-.23,.25-.15,.52-.44,.78-.87,.27-.43,.45-.8,.54-1.11,.09-.32,.14-.64,.14-.96,0-.47-.1-.91-.3-1.31-.2-.41-.47-.76-.83-1.06-.35-.3-.77-.53-1.27-.7-.49-.17-1.03-.25-1.61-.25-.64,0-1.24,.12-1.77,.35-.54,.23-1.03,.55-1.46,.95-.44,.4-.82,.86-1.15,1.39-.33,.53-.61,1.08-.84,1.66-.23,.58-.43,1.26-.63,2.03-.19,.78-.29,1.44-.29,1.99,0,.45,.04,.9,.12,1.33-.51,.32-.79,.49-.81,.48-.02,0-.24,.15-.66,.47-.09,.09-.29,.19-.6,.3-.21,.09-.37,.13-.49,.13-.32,0-.55-.19-.7-.57-.15-.38-.22-.87-.22-1.46,0-.35,.02-.74,.06-1.16s.1-.85,.17-1.28c.07-.43,.14-.92,.22-1.46s.16-.99,.22-1.33c.07-.34,.12-.64,.16-.89,.04-.25,.06-.43,.06-.53,0-.71-.14-1.26-.42-1.66-.28-.4-.66-.6-1.14-.6s-.91,.1-1.31,.29c-.39,.19-.74,.55-1.05,1.06-.07,.11-.17,.29-.3,.53-.13,.24-.28,.51-.45,.83-.16,.31-.34,.64-.52,.98-.19,.34-.36,.73-.52,1.17-.16,.44-.31,.78-.43,1.01-.12,.23-.22,.4-.27,.51h-.29c0-.07,.01-.2,.04-.4,.03-.2,.06-.49,.11-.89,.04-.4,.09-.75,.14-1.06,.05-.31,.09-.61,.14-.9,.04-.29,.08-.56,.11-.8,.03-.24,.04-.44,.04-.58,0-.53-.1-.95-.3-1.26-.2-.32-.56-.47-1.08-.47s-.93,.15-1.23,.44c-.3,.3-.5,.66-.61,1.1-.13,.56-.27,1.24-.42,2.04-.14,.79-.27,1.69-.39,2.68-.06,.52-.11,1.01-.16,1.48-.4,.53-.8,1.02-1.2,1.45-.2,.22-.41,.43-.64,.63-.23,.2-.45,.39-.67,.55-.23,.16-.45,.29-.67,.39-.22,.1-.43,.15-.63,.15-.27,0-.44-.12-.52-.37-.08-.25-.12-.59-.12-1.03,0-.51,.08-1.14,.24-1.89,.16-.75,.3-1.41,.42-2,.12-.59,.23-1.16,.33-1.71,.1-.56,.14-1.07,.14-1.52,0-.3-.03-.54-.08-.71-.05-.17-.13-.31-.22-.41-.1-.1-.21-.16-.33-.19-.12-.03-.26-.04-.4-.04-.11,0-.21,0-.33,0-.11,0-.22,0-.32,0-.13,0-.25,0-.37-.02-.12-.01-.24-.05-.35-.09-.12-.05-.21-.13-.29-.23-.08-.11-.16-.21-.24-.33-.08-.11-.19-.21-.31-.3-.13-.09-.3-.13-.52-.13-.66,0-1.32,.14-1.96,.42-.64,.28-1.25,.66-1.83,1.14-.58,.48-1.11,1.03-1.59,1.67-.49,.64-.94,1.4-1.36,2.28-.13,.27-.24,.53-.35,.78-.21,.1-.42,.2-.65,.3-.46,.19-.9,.29-1.34,.29-.15,0-.3-.03-.44-.09-.14-.06-.26-.16-.37-.29-.11-.14-.2-.32-.27-.55-.07-.23-.1-.52-.1-.86,0-.2,.02-.45,.07-.75,.05-.3,.12-.69,.23-1.16,.1-.47,.18-.85,.23-1.14,.05-.29,.07-.52,.07-.68,0-.21-.04-.4-.12-.57-.08-.17-.18-.31-.31-.42-.13-.11-.28-.2-.45-.27-.17-.06-.35-.09-.53-.09-.53,0-.99,.14-1.39,.42-.4,.28-.76,.63-1.08,1.04-.32,.41-.62,.93-.9,1.55-.29,.62-.53,1.12-.72,1.51h-.16c-.02-.49,0-1.06,.04-1.71,.05-.65,.07-1.15,.07-1.51,0-.3,0-.53-.02-.7-.01-.17-.05-.3-.12-.39-.07-.09-.17-.15-.31-.17-.14-.02-.33-.04-.58-.04-.22,0-.4,.01-.55,.04-.15,.02-.27,.07-.37,.14-.1,.07-.19,.17-.27,.29-.03,.04-.05,.1-.08,.15-.04,0-.07-.01-.11-.01h-7.94c.1-1.27,.2-2.33,.32-3.17,.11-.84,.2-1.54,.26-2.1,.06-.56,.12-1.03,.2-1.43,.07-.39,.13-.71,.16-.95,.03-.24,.06-.41,.08-.52,.02-.11,.03-.21,.03-.29,.42-.05,.82-.09,1.2-.12,.34-.03,.69-.06,1.05-.08,.36-.02,.67-.04,.93-.04,.88,0,1.74,.01,2.6,.04,.85,.02,1.68,.07,2.48,.13,.8,.06,1.56,.12,2.3,.18,.74,.06,1.42,.11,2.05,.16,.05,0,.09,0,.14,.01,.04,0,.08,0,.1,0,.22,0,.42-.05,.59-.16,.18-.11,.32-.25,.42-.42,.11-.17,.18-.36,.24-.56,.05-.2,.08-.39,.08-.57,0-.28-.09-.54-.28-.79-.19-.25-.52-.44-1.01-.57-1.71-.15-3.36-.29-4.96-.43-1.6-.14-3.13-.21-4.58-.21-2.18,0-4.18,.15-5.99,.46-1.81,.31-3.36,.79-4.65,1.44-1.29,.65-2.3,1.49-3.01,2.51s-1.07,2.25-1.07,3.68c0,.14,.02,.28,.05,.41,.03,.14,.12,.26,.27,.36,.15,.11,.37,.19,.68,.25,.31,.06,.74,.09,1.28,.09,.41,0,.72-.05,.93-.16,.21-.11,.37-.22,.46-.36,.09-.13,.15-.26,.16-.37,0-.11,.01-.18,.01-.2,0-.39,.1-.79,.29-1.21,.19-.41,.49-.81,.9-1.19,.41-.38,.92-.74,1.54-1.08,.62-.33,1.35-.62,2.19-.86-.11,.62-.21,1.2-.3,1.74-.09,.54-.18,1.12-.27,1.73-.1,.61-.21,1.3-.35,2.06-.14,.76-.32,1.71-.55,2.84-.2,.03-.42,.06-.66,.11-.24,.04-.52,.1-.83,.16-.31,.06-.67,.13-1.08,.21-.4,.08-.88,.18-1.41,.28-.2,.06-.35,.16-.43,.3-.09,.14-.13,.28-.13,.43,0,.22,.08,.4,.23,.54,.15,.15,.34,.26,.57,.35,.22,.09,.45,.15,.7,.18,.24,.04,.45,.05,.61,.05h1.78c-.17,.76-.34,1.51-.52,2.27-.17,.76-.36,1.48-.58,2.17-.21,.69-.44,1.34-.68,1.94-.24,.6-.5,1.12-.76,1.56-.27,.45-.55,.79-.85,1.05-.3,.25-.61,.38-.93,.38-.4,0-.79-.05-1.18-.16-.39-.1-.77-.22-1.14-.35-.37-.13-.73-.25-1.08-.35-.35-.11-.68-.16-1-.16-.28,0-.51,.08-.71,.24-.2,.16-.36,.35-.49,.57-.13,.22-.22,.45-.29,.68-.06,.23-.09,.42-.09,.57,0,.28,.08,.52,.24,.74,.16,.22,.37,.4,.63,.57,.26,.16,.55,.3,.88,.41,.33,.11,.66,.2,1,.27,.33,.07,.65,.11,.96,.14,.31,.03,.57,.04,.79,.04,1.05,0,1.99-.15,2.8-.45,.81-.3,1.53-.72,2.15-1.27,.62-.55,1.16-1.2,1.61-1.97,.45-.77,.84-1.61,1.17-2.55,.33-.93,.6-1.94,.8-3.01,.2-1.08,.41-2.19,.62-3.34,.21,0,.55,0,1.03-.02,.48-.01,1.02-.03,1.62-.05,.6-.02,1.22-.04,1.86-.06,.64-.02,1.23-.04,1.76-.06,.53-.02,.98-.03,1.35-.05-.06,.24-.12,.5-.19,.78-.17,.73-.31,1.42-.42,2.07-.11,.65-.21,1.28-.29,1.9-.08,.62-.15,1.21-.19,1.77-.05,.56-.07,1.05-.07,1.47,0,.38,.02,.75,.06,1.11,.04,.36,.13,.68,.26,.96,.13,.28,.31,.51,.55,.68,.24,.17,.56,.25,.95,.25,.17,0,.33-.03,.47-.09,.14-.06,.28-.17,.4-.32,.12-.15,.25-.35,.37-.6,.12-.24,.25-.55,.38-.93l2.57-7.16h.23c.08,.6,.18,1.2,.3,1.79,.12,.59,.32,1.12,.57,1.59,.26,.47,.61,.86,1.05,1.15,.44,.29,1.02,.44,1.74,.44,.4,0,.8-.06,1.18-.18,.13-.04,.25-.09,.38-.13,0,.13-.01,.25-.01,.38,0,.64,.1,1.21,.3,1.72,.2,.51,.47,.94,.8,1.29,.33,.35,.72,.62,1.16,.81,.44,.19,.88,.28,1.34,.28,.43,0,.87-.07,1.3-.21,.43-.14,.85-.32,1.25-.55,.4-.22,.77-.47,1.11-.75,.34-.27,.62-.55,.85-.81,.31,.77,.67,1.35,1.1,1.75,.42,.4,.95,.6,1.59,.6,.53,0,1.05-.13,1.58-.39,.53-.26,1.02-.58,1.48-.96,.37-.3,.7-.62,1.01-.95,0,.11,.02,.23,.03,.34,.04,.36,.13,.68,.26,.96,.13,.28,.31,.51,.55,.68,.24,.17,.55,.25,.95,.25,.32,0,.59-.07,.83-.21,.23-.13,.45-.4,.65-.8l3.76-7.46h.23c-.12,.77-.21,1.48-.29,2.15-.08,.67-.11,1.28-.11,1.86,0,1.46,.18,2.58,.54,3.34,.36,.76,.8,1.14,1.33,1.14s1.03-.08,1.51-.23c.18-.05,.65-.24,1.39-.57,.31-.13,1.07-.53,2.28-1.18,.08-.04,.14-.08,.21-.11,.07,.1,.15,.2,.23,.3,.45,.55,1.01,.98,1.68,1.31,.67,.33,1.45,.49,2.33,.49,.51,0,1-.08,1.5-.24,.49-.16,.97-.36,1.42-.62,.46-.25,.89-.54,1.31-.87,.42-.33,.8-.66,1.16-1,.28-.27,.56-.56,.83-.86,.22,.66,.53,1.25,.94,1.76,.45,.56,1,1.01,1.68,1.34,.67,.33,1.45,.5,2.34,.5,.57,0,1.14-.07,1.7-.2,.56-.13,1.1-.31,1.62-.53,.52-.22,1.02-.48,1.49-.76,.46-.28,.9-.57,1.3-.85,.07,.38,.19,.72,.38,1.01,.23,.35,.53,.63,.9,.84,.37,.21,.8,.37,1.28,.47,.49,.1,1.01,.15,1.58,.15,.78,0,1.61-.09,2.49-.26,.88-.17,1.74-.4,2.6-.7,.86-.29,1.68-.64,2.46-1.02,.24-.12,.47-.25,.7-.37,.1,.15,.21,.29,.32,.43,.45,.55,1.01,.98,1.68,1.31,.67,.33,1.45,.49,2.33,.49,.5,0,1-.08,1.5-.24,.49-.16,.97-.36,1.42-.62,.45-.25,.89-.54,1.31-.87s.8-.66,1.16-1c.18-.18,.36-.36,.54-.55,.16,.46,.37,.89,.62,1.28,.38,.59,.87,1.07,1.47,1.44,.6,.37,1.32,.55,2.16,.55,.58,0,1.13-.1,1.65-.3,.52-.2,.99-.47,1.43-.82,.44-.34,.82-.75,1.16-1.22,.34-.47,.63-.97,.86-1.51,.23-.54,.41-1.09,.54-1.66,.12-.57,.19-1.14,.19-1.71,0-.78-.07-1.47-.21-2.09-.14-.62-.35-1.2-.63-1.76l.12-.16c.34,.23,.76,.51,1.23,.85,.48,.34,.96,.75,1.46,1.24,.49,.49,.96,.93,1.4,1.34,.44,.4,.79,.77,1.05,1.12l.27-2.02c-.52-.65-1.07-1.33-1.67-2.05Zm-78.99,3.95c-.04,.31-.12,.69-.25,1.16-.13,.46-.3,.91-.51,1.34-.21,.43-.46,.8-.75,1.11-.29,.31-.61,.46-.96,.46-.22,0-.4-.06-.55-.17-.14-.11-.26-.26-.35-.44-.09-.18-.15-.39-.18-.62-.03-.23-.05-.47-.05-.72,0-.42,.06-.86,.17-1.34,.11-.47,.3-1.02,.57-1.65,.27-.63,.54-1.15,.82-1.58,.28-.43,.58-.8,.91-1.14,.33-.33,.68-.6,1.05-.79,.37-.19,.76-.29,1.15-.29l-1.07,4.67Zm35.24-.78c.02-.29,.11-.66,.27-1.11,.16-.45,.3-.83,.42-1.13,.12-.3,.28-.57,.48-.81,.2-.24,.44-.43,.73-.58,.29-.15,.65-.23,1.06-.23,.23,0,.43,.14,.58,.41,.16,.27,.24,.62,.24,1.04,0,.3-.17,.68-.5,1.14-.34,.46-.68,.82-1.03,1.1-.35,.27-.73,.49-1.14,.67-.41,.17-.79,.26-1.13,.26,0-.21,.01-.45,.03-.74Zm13.39,4c-.06,.28-.16,.52-.3,.73-.14,.21-.34,.37-.58,.5-.24,.13-.55,.19-.93,.19-.31,0-.58-.07-.82-.22-.24-.15-.45-.3-.63-.48-.18-.17-.34-.33-.48-.48-.07-.08-.2-.27-.26-.31,.44-.39,1.16-1.26,1.16-1.26l2.69-2.83c.05,.15,.1,.34,.16,.56,.06,.22,.07,.53,.03,.93-.04,.4-.05,.74-.01,1.01,.03,.27,.05,.54,.05,.8,0,.3-.03,.59-.09,.86Zm24.38-2.74c-.14,.71-.32,1.32-.55,1.82-.23,.5-.5,.92-.8,1.25-.31,.33-.62,.5-.95,.5-.37,0-.69-.08-.96-.24-.27-.16-.48-.37-.65-.63-.16-.26-.28-.57-.36-.93-.08-.35-.12-.73-.12-1.13,0-.79,.08-1.51,.23-2.14,.15-.63,.36-1.21,.63-1.73,.27-.52,.58-.95,.93-1.28,.35-.34,.73-.5,1.12-.5,.3,0,.55,.08,.76,.24,.21,.16,.38,.38,.52,.66,.13,.28,.23,.61,.3,.98,.07,.38,.1,.79,.1,1.23,0,.56-.07,1.19-.21,1.9Z"/></g><g><path class="d" d="M20.78,28.75c.21-.24,.45-.43,.71-.56,.27-.13,.54-.22,.83-.25,.28-.03,.56,0,.84,.08,.28,.08,.53,.22,.75,.41,.19,.16,.34,.35,.46,.57,.11,.22,.19,.44,.23,.68,.04,.24,.04,.48,0,.72-.04,.24-.11,.48-.23,.71l-1.35-.42c.14-.17,.21-.36,.19-.58-.02-.22-.11-.4-.27-.55-.17-.14-.36-.21-.58-.19-.22,.02-.4,.11-.55,.27-.22,.26-.36,.52-.41,.8-.05,.27-.04,.54,.04,.8,.07,.26,.2,.51,.38,.75,.18,.24,.38,.46,.6,.65,.33,.28,.69,.53,1.1,.73,.41,.2,.82,.34,1.23,.4,.41,.07,.81,.06,1.19-.03,.38-.09,.7-.28,.96-.59l1.03,.89c-.41,.48-.89,.81-1.45,.99-.55,.18-1.12,.25-1.71,.2-.59-.05-1.17-.2-1.74-.45-.57-.25-1.08-.57-1.54-.96-.38-.33-.71-.71-.97-1.12-.26-.41-.43-.84-.51-1.29s-.06-.9,.05-1.35c.11-.45,.35-.89,.72-1.32Z"/><path class="d" d="M32.96,27.41l-1.8,1.5,.87,1.05-1.16,.96-4.05-4.88c-.22-.27-.38-.57-.47-.89-.09-.33-.11-.66-.07-.99,.04-.33,.14-.65,.3-.96,.16-.31,.39-.58,.67-.82,.29-.24,.6-.41,.93-.51,.33-.1,.67-.14,1-.12,.33,.02,.65,.11,.96,.25,.3,.15,.57,.35,.79,.62l4.05,4.88-1.16,.96-.87-1.05Zm-.87-1.05l-2.3-2.77c-.1-.12-.22-.22-.36-.29-.14-.07-.28-.11-.43-.13-.15-.01-.3,0-.45,.05-.15,.05-.29,.12-.41,.22-.12,.1-.22,.22-.29,.36-.07,.14-.12,.28-.13,.43-.01,.15,0,.3,.05,.45,.05,.15,.12,.29,.22,.41l2.3,2.77,1.8-1.5Z"/><path class="d" d="M36.16,16.18l.7,1.17-2.2,1.32,2.11,3.51,2.01-1.21,.7,1.17-2.01,1.21,1.06,1.75-1.29,.77-4.57-7.6,3.49-2.1Z"/><path class="d" d="M43.48,12.71l.53,1.26-2.37,1,1.6,3.77,2.16-.91,.53,1.26-2.16,.91,.8,1.89-1.38,.58-3.46-8.17,3.75-1.59Z"/><path class="d" d="M47.3,11.35l3.94-1.03,.35,1.32-2.49,.65,1.04,3.96,2.27-.6,.35,1.32-2.27,.6,.17,.66,2.49-.65,.35,1.32-3.94,1.03-2.25-8.58Zm1.78-1.17l-.66,.17,.17-1.22,1.32-.35-.83,1.39Z"/><path class="d" d="M61.05,8.92l4.89-.08,.02,1.36-1.69,.03,.13,7.51-1.5,.03-.13-7.51-1.69,.03-.02-1.36Z"/><path class="d" d="M69.63,13.41c.1-.54,.3-1.06,.59-1.55,.29-.49,.65-.91,1.07-1.26,.42-.35,.9-.6,1.43-.76,.53-.16,1.09-.18,1.68-.07,.6,.11,1.12,.35,1.56,.69,.44,.35,.78,.76,1.05,1.23,.26,.47,.43,.99,.52,1.55,.09,.56,.08,1.11-.03,1.66-.1,.54-.3,1.06-.58,1.55-.29,.49-.64,.91-1.05,1.25-.42,.35-.89,.6-1.42,.76-.53,.16-1.1,.18-1.7,.07-.6-.11-1.12-.34-1.56-.69-.44-.35-.78-.76-1.05-1.23-.26-.47-.43-.99-.52-1.55-.09-.56-.08-1.11,.03-1.66Zm1.47,.28c-.08,.42-.09,.82-.03,1.22,.06,.39,.17,.75,.34,1.07,.17,.32,.39,.59,.66,.8,.27,.22,.57,.36,.92,.42,.34,.06,.67,.04,1-.06,.33-.1,.63-.27,.91-.5,.28-.23,.51-.52,.71-.87,.2-.34,.34-.72,.42-1.14,.08-.42,.09-.82,.03-1.22-.06-.39-.18-.75-.35-1.07-.17-.32-.39-.59-.66-.8-.27-.22-.57-.36-.9-.42-.39-.08-.76-.05-1.1,.08-.34,.13-.64,.32-.91,.57-.26,.25-.49,.55-.66,.89-.18,.34-.3,.68-.36,1.03Z"/><path class="d" d="M82.46,11.83l1.4,.55c.45,.18,.84,.43,1.16,.76,.32,.32,.57,.69,.74,1.09,.17,.4,.26,.83,.27,1.28,0,.45-.07,.89-.24,1.32-.21,.53-.53,.97-.95,1.33-.42,.36-.91,.6-1.45,.73l.38,3.02-1.4-.55-.3-2.41c-.13-.03-.25-.06-.38-.09-.12-.03-.24-.07-.36-.12l-.76,1.9-1.4-.55,3.27-8.25Zm-.62,5.63c.25,.1,.5,.14,.76,.13,.26-.01,.5-.07,.73-.18,.23-.11,.44-.26,.63-.45,.19-.19,.33-.42,.44-.68,.1-.26,.15-.53,.15-.8s-.05-.52-.14-.76c-.09-.24-.23-.45-.41-.63-.18-.19-.39-.33-.64-.43l-1.51,3.81Z"/><path class="d" d="M91.78,16.05l-4.27,7.78-1.32-.72,4.27-7.78,1.32,.72Z"/><path class="d" d="M96.43,18.91l-1.26,5.9,3.24-4.45,1.21,.88-5.23,7.17-1.21-.88,1.26-5.9-3.24,4.45-1.21-.88,5.23-7.17,1.21,.88Z"/><path class="d" d="M99.79,27.03c.4-.38,.87-.68,1.39-.9,.52-.22,1.06-.35,1.6-.39,.55-.03,1.08,.04,1.6,.23,.52,.19,.99,.5,1.4,.93,.42,.45,.7,.94,.85,1.48,.15,.54,.19,1.07,.12,1.61-.07,.54-.23,1.06-.49,1.56-.26,.5-.59,.95-1,1.32-.4,.38-.87,.68-1.39,.91-.52,.23-1.05,.36-1.59,.39-.54,.03-1.07-.04-1.6-.22-.53-.18-1-.5-1.42-.95-.42-.45-.7-.94-.85-1.48-.15-.54-.19-1.07-.12-1.61,.07-.54,.23-1.06,.49-1.56,.26-.5,.59-.95,1-1.32Zm1.03,1.1c-.31,.29-.56,.61-.74,.96-.19,.35-.3,.71-.35,1.06-.05,.36-.03,.7,.06,1.04,.09,.33,.25,.63,.49,.88,.23,.25,.51,.43,.84,.54,.33,.11,.67,.15,1.03,.13,.36-.03,.72-.12,1.09-.28,.36-.16,.7-.39,1.01-.68,.31-.29,.56-.61,.74-.97,.18-.35,.3-.71,.35-1.07,.05-.36,.03-.7-.06-1.04-.09-.33-.25-.62-.48-.87-.27-.29-.59-.49-.94-.59-.35-.1-.71-.12-1.07-.07-.36,.05-.72,.16-1.06,.33-.34,.17-.64,.38-.9,.61Z"/></g><g><path class="d" d="M106.94,56.31c-3.57-19.94-21.03-35.12-41.98-35.12-16.46,0-30.76,9.37-37.87,23.05,.47,.24,.94,.48,1.42,.71,6.85-13.16,20.61-22.17,36.45-22.17,20.25,0,37.11,14.74,40.46,34.05,.51-.17,1.02-.34,1.53-.52"/><path class="d" d="M103.93,76.81c-5.44,16.31-20.85,28.11-38.97,28.11s-32.94-11.34-38.65-27.17c-.5,.16-1.01,.32-1.52,.47,5.91,16.47,21.68,28.29,40.17,28.29s34.74-12.19,40.43-29.07c-.49-.21-.98-.42-1.47-.63"/></g><g><polygon class="d" points="48.22 77.93 49.52 80.56 52.41 80.98 50.32 83.02 50.81 85.91 48.22 84.54 45.63 85.91 46.12 83.02 44.03 80.98 46.92 80.56 48.22 77.93"/><polygon class="d" points="58.73 77.93 60.02 80.56 62.92 80.98 60.82 83.02 61.32 85.91 58.73 84.54 56.14 85.91 56.63 83.02 54.53 80.98 57.43 80.56 58.73 77.93"/><polygon class="d" points="69.23 77.93 70.53 80.56 73.42 80.98 71.33 83.02 71.82 85.91 69.23 84.54 66.64 85.91 67.14 83.02 65.04 80.98 67.94 80.56 69.23 77.93"/><polygon class="d" points="79.74 77.93 81.03 80.56 83.93 80.98 81.83 83.02 82.33 85.91 79.74 84.54 77.15 85.91 77.64 83.02 75.55 80.98 78.44 80.56 79.74 77.93"/></g></g></g></g></svg>