<?xml version="1.0" encoding="UTF-8"?><svg xmlns="http://www.w3.org/2000/svg" xmlns:xlink="http://www.w3.org/1999/xlink" viewBox="0 0 197.16 19.07"><defs><style>.g{fill:url(#f);}.h{clip-path:url(#d);}.i{fill:url(#e);}.j{fill:none;}</style><clipPath id="d"><path class="j" d="M48,19.01h3.84c.47,0,.76-.51,.53-.91L42.14,.38c-.11-.19-.31-.3-.53-.3h-3.22c-.22,0-.42,.12-.53,.3l-10.23,17.71c-.23,.4,.06,.91,.53,.91h3.84c.22,0,.42-.12,.53-.3l1.88-3.26c.11-.19,.31-.3,.53-.3h10.14c.22,0,.42,.12,.53,.3l1.88,3.26c.11,.19,.31,.3,.53,.3Zm-10.63-8.7l2.1-3.64c.23-.4,.82-.4,1.05,0l2.1,3.64c.23,.4-.06,.91-.53,.91h-4.2c-.47,0-.76-.51-.53-.91Zm42.63-5.71c-.01-2.16-1.77-4.52-3.93-4.52h-20.37c-.35,0-.63,.28-.63,.63V18.46c0,.34,.27,.61,.61,.61h4.02c.33,0,.61-.27,.61-.61v-5.39c0-.33,.27-.6,.6-.6h14.55c2.51,0,4.54-2.03,4.54-4.54v-3.33h0Zm-5.26,2.71c0,.34-.27,.62-.61,.62h-13.19c-.35,0-.63-.28-.63-.63v-2.06c0-.34,.28-.62,.62-.62h13.21c.33,0,.6,.27,.6,.6v2.08Zm14.84,7.22h12.72c.34,0,.62,.28,.62,.62v3.25c0,.34-.28,.62-.62,.62h-17.77c-.34,0-.62-.28-.62-.62V.62c0-.34,.28-.62,.62-.62h3.81c.34,0,.62,.28,.62,.62V13.91c0,.34,.28,.62,.62,.62ZM126.56,.08h-17.07c-2.17,0-3.93,1.76-3.93,3.93V15.14c0,2.17,1.76,3.93,3.93,3.93h17.07c2.17,0,3.93-1.76,3.93-3.93V4.01c0-2.17-1.76-3.93-3.93-3.93Zm-1.31,13.82c0,.34-.28,.62-.62,.62h-13.21c-.34,0-.62-.28-.62-.62V5.24c0-.34,.28-.62,.62-.62h13.21c.34,0,.62,.28,.62,.62V13.91Zm14.4-8.66V13.91c0,.34,.28,.62,.62,.62h13.21c.34,0,.62-.28,.62-.62v-2.07c0-.34-.28-.61-.61-.61h-5.29c-.34,0-.61-.27-.61-.61v-2.7c0-.34,.27-.61,.61-.61h10.55c.33,0,.6,.27,.6,.6v7.23c0,2.17-1.76,3.93-3.93,3.93h-17.07c-2.17,0-3.93-1.76-3.93-3.93V4.01c0-2.17,1.76-3.93,3.93-3.93h17.07c2.17,0,3.93,1.76,3.93,3.93h0c0,.34-.27,.61-.61,.61h-18.46c-.34,0-.62,.28-.62,.62ZM5.24,5.24V13.91c0,.34,.28,.62,.62,.62h13.21c.34,0,.62-.28,.62-.62v-2.07c0-.34-.28-.61-.61-.61h-5.29c-.34,0-.61-.27-.61-.61v-2.7c0-.34,.27-.61,.61-.61h10.55c.33,0,.6,.27,.6,.6v7.23c0,2.17-1.76,3.93-3.93,3.93H3.93c-2.17,0-3.93-1.76-3.93-3.93V4.01C0,1.84,1.76,.08,3.93,.08H21c2.17,0,3.93,1.76,3.93,3.93h0c0,.34-.27,.61-.61,.61H5.86c-.34,0-.62,.28-.62,.62Zm162.46,13.77h-3.83c-.34,0-.61-.27-.61-.61V.61c0-.34,.27-.61,.61-.61h3.83c.34,0,.61,.27,.61,.61V18.4c0,.34-.27,.61-.61,.61Zm24.84-5.72h4.01c.34,0,.61,.27,.61,.61v1.24c0,2.17-1.76,3.93-3.93,3.93h-17.07c-2.17,0-3.93-1.76-3.93-3.93V4.01c0-2.17,1.76-3.93,3.93-3.93h17.07c2.17,0,3.93,1.76,3.93,3.93v1.25c0,.33-.27,.61-.61,.61h-4.02c-.34,0-.62-.28-.62-.62h0c0-.34-.28-.62-.62-.62h-13.21c-.34,0-.62,.28-.62,.62V13.91c0,.34,.28,.62,.62,.62h13.21c.34,0,.62-.28,.62-.62h0c0-.34,.28-.62,.62-.62Z"/></clipPath><linearGradient id="e" x1="55.15" y1="-53.27" x2="101.55" y2="27.11" gradientTransform="matrix(1, 0, 0, 1, 0, 0)" gradientUnits="userSpaceOnUse"><stop offset="0" stop-color="#8fffbc"/><stop offset="1" stop-color="#85fff8"/></linearGradient><linearGradient id="f" x1="94.42" y1="-9.53" x2="140.82" y2="70.85" gradientTransform="matrix(1, 0, 0, 1, 0, 0)" gradientUnits="userSpaceOnUse"><stop offset="0" stop-color="#fff480"/><stop offset="1" stop-color="#8fffbc"/></linearGradient></defs><g id="a"/><g id="b"><g id="c"><g class="h"><g><path class="i" d="M12.18,37.95H-1.83V-20.37H183.78C104.99,8.79,12.18,37.95,12.18,37.95Z"/><path class="g" d="M197.8,37.95H12.18C90.97,8.79,183.78-20.37,183.78-20.37h14.02V37.95Z"/></g></g></g></g></svg>