<?xml version="1.0" encoding="UTF-8"?><svg xmlns="http://www.w3.org/2000/svg" viewBox="0 0 276.08 75.23"><defs><style>.d{fill:#fff;}.e{opacity:.5;}</style></defs><g id="a"/><g id="b"><g id="c"><g class="e"><g><path class="d" d="M0,35.21L5.07,1.95h7.45l6.41,19.58c.14,.41,.28,1.01,.44,1.8,.16,.79,.31,1.69,.44,2.7,.12-1.03,.26-1.95,.41-2.76,.15-.81,.3-1.41,.43-1.78L27.17,1.95h7.34l5.09,33.26h-6.75l-2.43-20.06c-.18-1.48-.3-2.61-.36-3.36-.06-.76-.09-1.46-.09-2.11,0-.35,0-.61,.01-.78,0-.17,.02-.33,.03-.46-.23,1.3-.44,2.43-.65,3.37-.2,.95-.39,1.66-.56,2.15l-7.04,21.26h-4L10.84,13.95c-.06-.2-.19-.74-.4-1.64-.2-.89-.49-2.2-.85-3.91v.98c0,1.54-.14,3.44-.41,5.68l-.02,.09-2.41,20.06H0Z"/><path class="d" d="M65.4,25.67h-16.74c.26,1.6,.84,2.81,1.75,3.6,.91,.79,2.14,1.19,3.7,1.19,1.18,0,2.2-.23,3.06-.68,.85-.45,1.57-1.14,2.15-2.07l5.22,2.61c-1.21,1.95-2.68,3.4-4.41,4.35-1.73,.95-3.78,1.42-6.16,1.42-3.6,0-6.46-1.07-8.56-3.22-2.11-2.15-3.16-5.04-3.16-8.68s1.1-6.38,3.31-8.63c2.2-2.26,5.02-3.38,8.46-3.38s6.35,1.06,8.41,3.17c2.06,2.11,3.09,4.99,3.09,8.64,0,.2,0,.41-.02,.65-.02,.23-.05,.58-.09,1.03Zm-6.41-3.91c-.18-1.41-.69-2.47-1.53-3.19-.84-.72-1.99-1.08-3.44-1.08s-2.62,.36-3.49,1.08c-.87,.72-1.43,1.78-1.67,3.19h10.13Z"/><path class="d" d="M93.57,35.21h-6.27l.09-3.2c-.88,1.41-1.93,2.44-3.17,3.1-1.24,.66-2.74,.99-4.51,.99-2.95,0-5.33-1.1-7.14-3.29s-2.71-5.1-2.71-8.7,.89-6.71,2.67-8.81c1.78-2.1,4.25-3.16,7.42-3.16,1.62,0,3.04,.37,4.27,1.11,1.23,.74,2.38,1.92,3.45,3.52-.08-.55-.13-1.15-.17-1.81-.04-.66-.06-1.41-.06-2.26V0h6.13V35.21Zm-5.91-11.18c0-2-.5-3.58-1.51-4.75-1.01-1.17-2.37-1.75-4.08-1.75s-3.14,.57-4.15,1.71c-1.01,1.14-1.51,2.72-1.51,4.74s.5,3.59,1.49,4.73c.99,1.14,2.37,1.7,4.12,1.7s3.17-.56,4.16-1.68c.98-1.12,1.48-2.69,1.48-4.7Z"/><path class="d" d="M108.79,35.21h-8.5V1.95h9.47c3.71,0,6.31,.18,7.81,.55,1.5,.36,2.77,.98,3.82,1.86,1.23,1.01,2.16,2.28,2.81,3.8,.64,1.52,.96,3.21,.96,5.08,0,1.98-.32,3.73-.95,5.24-.64,1.51-1.58,2.75-2.82,3.71-.94,.73-2.05,1.25-3.32,1.57s-3.31,.48-6.11,.48h-3.18v10.97Zm0-18.29h1.73c2.18,0,3.7-.3,4.57-.9,.86-.6,1.3-1.62,1.3-3.05s-.42-2.39-1.27-2.98-2.35-.89-4.5-.89h-1.82v7.81Z"/><path class="d" d="M128.28,35.21V0h7.95V12.36c0,.82-.02,1.58-.07,2.27s-.11,1.32-.2,1.89c1.01-1.71,2.21-2.97,3.59-3.77,1.38-.8,3.02-1.2,4.93-1.2,1.48,0,2.81,.24,3.96,.72,1.16,.48,2.1,1.16,2.83,2.06,.61,.77,1.04,1.71,1.3,2.82,.26,1.11,.39,2.76,.39,4.95v13.13h-8.11v-12.29c0-1.83-.3-3.16-.9-4-.6-.83-1.56-1.25-2.87-1.25-1.68,0-2.91,.62-3.68,1.86-.77,1.24-1.16,3.26-1.16,6.04v9.63h-7.95Z"/><path class="d" d="M183.26,12.27v22.94h-7.43v-3.73c-1.06,1.59-2.25,2.76-3.58,3.5s-2.88,1.11-4.67,1.11c-3.06,0-5.5-1.12-7.34-3.35-1.83-2.23-2.75-5.23-2.75-8.98s.96-6.71,2.87-8.92c1.92-2.2,4.49-3.31,7.73-3.31,1.73,0,3.22,.37,4.46,1.1,1.25,.73,2.32,1.87,3.22,3.4v-3.77h7.47Zm-7.11,11.45c0-1.79-.48-3.2-1.43-4.25-.95-1.04-2.26-1.57-3.91-1.57s-2.95,.52-3.9,1.56c-.95,1.04-1.42,2.46-1.42,4.26s.48,3.2,1.43,4.23c.96,1.03,2.25,1.54,3.89,1.54s2.95-.51,3.91-1.54,1.43-2.44,1.43-4.23Z"/><path class="d" d="M187.56,35.21V12.27h7.63v5.41c.79-1.97,1.86-3.45,3.22-4.43,1.36-.98,3.01-1.48,4.95-1.48,.32,0,.64,.01,.96,.03,.33,.02,.66,.06,.99,.1l-.77,7.36c-.48-.17-.96-.29-1.43-.36s-.92-.11-1.36-.11c-1.97,0-3.49,.6-4.56,1.81-1.07,1.2-1.6,2.91-1.6,5.12v9.5h-8.04Z"/><path class="d" d="M238.67,35.21v-12.52c0-1.98-.25-3.35-.74-4.11s-1.34-1.14-2.56-1.14c-1.51,0-2.57,.53-3.16,1.58-.59,1.05-.89,3.21-.89,6.46v9.72h-7.81v-12.52c0-2.01-.24-3.39-.73-4.14-.48-.74-1.33-1.11-2.54-1.11-1.52,0-2.57,.52-3.18,1.56-.61,1.04-.91,3.2-.91,6.49v9.72h-7.86V12.27h7.95v4c.95-1.62,2.06-2.81,3.31-3.58,1.25-.76,2.72-1.15,4.42-1.15,1.86,0,3.39,.36,4.58,1.08,1.19,.72,2.04,1.8,2.55,3.24,.89-1.45,1.98-2.54,3.27-3.25,1.29-.71,2.8-1.07,4.54-1.07,1.38,0,2.59,.23,3.62,.69,1.04,.46,1.9,1.15,2.6,2.08,.56,.73,.96,1.58,1.19,2.54s.35,2.54,.35,4.73v13.63h-8.02Z"/><path class="d" d="M276.08,12.27v22.94h-7.43v-3.73c-1.06,1.59-2.25,2.76-3.58,3.5s-2.88,1.11-4.67,1.11c-3.06,0-5.5-1.12-7.34-3.35-1.83-2.23-2.75-5.23-2.75-8.98s.96-6.71,2.87-8.92c1.92-2.2,4.49-3.31,7.73-3.31,1.73,0,3.21,.37,4.46,1.1,1.25,.73,2.32,1.87,3.22,3.4v-3.77h7.47Zm-7.11,11.45c0-1.79-.48-3.2-1.43-4.25-.95-1.04-2.26-1.57-3.91-1.57s-2.95,.52-3.9,1.56c-.95,1.04-1.42,2.46-1.42,4.26s.48,3.2,1.43,4.23c.96,1.03,2.25,1.54,3.89,1.54s2.95-.51,3.91-1.54c.96-1.03,1.43-2.44,1.43-4.23Z"/></g><g><g><path class="d" d="M14.54,55.36h9.64c0,.17,0,.4,.02,.7,.03,.79,.05,1.32,.05,1.6,0,3.42-.98,6.08-2.94,7.98-1.96,1.89-4.72,2.84-8.29,2.84-1.99,0-3.77-.29-5.33-.88-1.56-.59-2.93-1.47-4.1-2.66-1.15-1.17-2.04-2.55-2.65-4.14-.61-1.58-.92-3.28-.92-5.08s.31-3.53,.94-5.08c.63-1.55,1.55-2.92,2.78-4.1,1.19-1.16,2.58-2.05,4.17-2.66,1.6-.61,3.3-.91,5.12-.91,1.92,0,3.63,.35,5.14,1.05s2.86,1.77,4.05,3.21l-2.89,2.18c-.82-.95-1.74-1.66-2.77-2.13-1.03-.46-2.18-.7-3.46-.7-2.64,0-4.79,.84-6.46,2.53-1.67,1.69-2.5,3.89-2.5,6.59s.83,4.98,2.5,6.69c1.67,1.71,3.83,2.57,6.49,2.57,2.26,0,4.04-.53,5.33-1.58s1.94-2.49,1.94-4.3v-.35h-5.85v-3.34Z"/><path class="d" d="M33.75,54.57c.39-1.04,.9-1.81,1.54-2.31,.64-.5,1.43-.75,2.37-.75,.51,0,1.01,.06,1.5,.18,.49,.12,.98,.3,1.45,.53l-1.3,3.06c-.31-.22-.65-.38-1.01-.49-.36-.1-.76-.16-1.2-.16-1.2,0-2.05,.48-2.58,1.44s-.78,2.57-.78,4.83v6.91h-3.61v-15.79h3.61v2.54Z"/><path class="d" d="M43.55,59.96c0-1.15,.22-2.24,.66-3.27,.44-1.02,1.07-1.94,1.89-2.73,.81-.79,1.74-1.39,2.79-1.81,1.05-.42,2.15-.63,3.31-.63s2.3,.21,3.35,.63c1.05,.42,1.99,1.04,2.82,1.86,.83,.81,1.46,1.72,1.9,2.74,.43,1.02,.65,2.09,.65,3.21s-.21,2.25-.64,3.27c-.43,1.02-1.05,1.92-1.87,2.71-.86,.83-1.82,1.46-2.87,1.89s-2.16,.64-3.32,.64-2.24-.21-3.29-.64-1.99-1.04-2.81-1.85c-.83-.82-1.46-1.74-1.89-2.76-.43-1.02-.65-2.1-.65-3.26Zm13.54,.03c0-1.46-.47-2.7-1.41-3.71-.94-1.01-2.09-1.52-3.46-1.52s-2.5,.51-3.45,1.52c-.95,1.01-1.42,2.25-1.42,3.71s.47,2.7,1.42,3.71c.95,1.01,2.1,1.52,3.45,1.52s2.5-.51,3.45-1.52c.95-1.01,1.42-2.25,1.42-3.71Z"/><path class="d" d="M69.57,52.07v8.87c0,1.53,.32,2.63,.95,3.29,.63,.66,1.66,1,3.07,1s2.44-.33,3.07-1,.95-1.76,.95-3.29v-8.87h3.61v7.79c0,3.01-.6,5.2-1.81,6.56-1.21,1.36-3.14,2.04-5.78,2.04s-4.64-.68-5.85-2.03c-1.21-1.35-1.81-3.55-1.81-6.58v-7.79h3.61Z"/><path class="d" d="M86.77,75.23v-23.16h3.61v2.58c.42-1,1.09-1.77,2.02-2.31,.92-.54,2.03-.81,3.32-.81,2.09,0,3.79,.77,5.09,2.32,1.3,1.55,1.95,3.58,1.95,6.09,0,2.65-.64,4.73-1.92,6.26-1.28,1.52-3.03,2.29-5.26,2.29-1.11,0-2.09-.22-2.95-.67s-1.61-1.12-2.25-2.03v9.46h-3.61Zm3.49-15.34c0,1.63,.41,2.93,1.22,3.91,.81,.97,1.89,1.46,3.22,1.46s2.42-.45,3.17-1.36c.75-.91,1.12-2.2,1.12-3.87s-.39-2.96-1.17-3.9c-.78-.94-1.85-1.4-3.22-1.4s-2.43,.45-3.19,1.36c-.77,.91-1.15,2.18-1.15,3.81Z"/></g><rect class="d" x="111.15" y="52.07" width="164.94" height="15.78"/></g></g></g></g></svg>