<?xml version="1.0" encoding="UTF-8"?><svg xmlns="http://www.w3.org/2000/svg" viewBox="0 0 237.81 108.04"><defs><style>.d{fill:#fff;}.e{opacity:.5;}</style></defs><g id="a"/><g id="b"><g id="c"><g class="e"><path class="d" d="M156.07,28.66v2.3c-.05,.15-.13,.31-.14,.46-.05,.68,.02,1.38-.13,2.03-.32,1.4-.38,2.85-.89,4.21-.3,.8-.43,1.67-.76,2.46-.5,1.21-1.07,2.39-1.66,3.56-.42,.83-.86,1.65-1.37,2.42-1.16,1.78-2.56,3.38-4.04,4.9-.76,.78-1.59,1.51-2.47,2.15-1.51,1.1-3.03,2.2-4.76,2.96-.47,.21-.91,.49-1.39,.68-1.09,.45-2.16,.96-3.29,1.26-1.56,.42-3.11,.89-4.73,1.1-1.47,.19-2.93,.27-4.4,.35-.48,.03-.96-.04-1.44-.09-1.12-.12-2.24-.21-3.34-.4-2.57-.45-5.05-1.21-7.43-2.28-2.85-1.29-5.42-3-7.74-5.08-1.3-1.17-2.45-2.49-3.52-3.86-.97-1.24-1.78-2.59-2.49-4.01-.59-1.19-1.32-2.3-1.66-3.6-.18-.7-.53-1.36-.71-2.06-.31-1.15-.56-2.31-.81-3.47-.09-.43-.13-.88-.17-1.32-.08-.77-.19-1.55-.22-2.32-.04-1.12-.03-2.23,0-3.35,.01-.53,.08-1.06,.16-1.58,.12-.75,.32-1.49,.42-2.24,.24-1.8,.86-3.51,1.48-5.19,.52-1.41,1.35-2.7,2.05-4.04,.25-.48,.5-.96,.76-1.43l.08-.1-.13,.04c-.08,.05-.17,.1-.24,.17-1.12,1.04-2.15,2.17-3.03,3.43-.88,1.26-1.82,2.49-2.59,3.82-.96,1.63-1.72,3.37-2.28,5.19-.55,1.79-1.06,3.58-1.19,5.46-.09,1.2-.23,2.41-.29,3.61-.07,1.38,.1,2.75,.29,4.11,.16,1.13,.32,2.26,.59,3.36,.51,2.08,1.26,4.08,2.2,6.01,.76,1.53,1.6,3.02,2.64,4.38,.56,.74,1.12,1.48,1.75,2.16,.74,.81,1.51,1.58,2.32,2.32,.69,.64,1.42,1.25,2.19,1.79,2.34,1.64,4.77,3.12,7.5,4.04,.33,.11,.43,.32,.43,.68-.01,4.3,0,8.6,0,12.9,0,.21,.03,.43,.05,.64h-29.91c.02-.25,.05-.49,.05-.74,0-25.19,0-50.38,0-75.58,0-.15,0-.3,0-.45,0-.13,.03-.25,.06-.41h.68c14.55,0,29.11,0,43.66,0,.93,0,1.86,0,2.79,.11,1.23,.14,2.46,.31,3.67,.57,1.88,.41,3.73,.93,5.47,1.78,1.42,.69,2.87,1.34,4.2,2.17,1.21,.76,2.34,1.69,3.41,2.64,1.14,1.01,2.18,2.14,3.25,3.23,.29,.29,.56,.61,.82,.94,1.27,1.63,2.29,3.42,3.2,5.25,.64,1.28,1.19,2.62,1.59,4.01,.71,2.5,1.38,5.01,1.35,7.65,0,.1,.09,.21,.14,.31Zm-19.16,1.22c-.02-6.1-4.75-10.89-10.71-10.86-6.15,.04-10.33,4.72-10.7,10.68,.3,5.89,4.63,10.69,10.7,10.68,5.94,0,10.57-4.67,10.71-10.51Z"/><g><path class="d" d="M32.84,96.82v-14.59h2.63l6.09,10.16,.1-.04v-10.14h2.5v14.6h-2.5c-.15-.27-.3-.54-.46-.8-.73-1.25-1.44-2.51-2.19-3.75-.98-1.63-1.97-3.25-2.96-4.87-.17-.29-.36-.57-.54-.85l-.07,.04v10.24h-2.6Z"/><path class="d" d="M210.68,96.82v-14.59h2.53c2.06,3.44,4.13,6.9,6.21,10.36l.07-.03v-10.32h2.51v14.59h-2.5c-.91-1.52-1.82-3.03-2.74-4.55-.89-1.47-1.78-2.95-2.67-4.42-.27-.44-.55-.87-.83-1.31l-.07,.04v10.24h-2.5Z"/><path class="d" d="M141.89,96.82v-14.63c.2,0,.38,0,.56,0,1.75,0,3.5,0,5.25,0,1.2,0,2.23,.4,3.17,1.11,.73,.55,1.27,1.22,1.65,2.08,.56,1.25,.63,2.5,.27,3.8-.26,.95-.75,1.76-1.5,2.41-.14,.12-.28,.24-.43,.37,.27,.62,.52,1.2,.79,1.76,.46,.97,.94,1.93,1.41,2.9,.03,.06,.03,.12,.04,.19h-2.8c-.48-1.1-.98-2.19-1.45-3.29-.15-.35-.31-.61-.75-.4-.08,.04-.2,0-.3,0-.98,0-1.97,0-2.95,0-.14,0-.29,.02-.46,.03v3.65h-2.5Zm2.53-6.17c1.09,0,2.15,.07,3.21-.02,.72-.06,1.43-.31,2-.84,.59-.55,.84-1.25,.86-2.01,.01-.48-.05-.99-.21-1.43-.31-.84-1.02-1.3-1.84-1.57-1.31-.42-2.66-.09-4.01-.22v6.09Z"/><path class="d" d="M199.26,96.82c-.18-.03-.37-.06-.55-.1-.46-.11-.92-.22-1.37-.36-1.03-.3-1.85-.92-2.65-1.62-1.11-.97-1.7-2.23-2.08-3.56-.24-.84-.32-1.76-.11-2.7,.16-.74,.32-1.46,.67-2.12,.52-.97,1.08-1.94,1.99-2.6,.68-.49,1.39-.92,2.21-1.21,1.12-.39,2.25-.42,3.37-.33,.93,.07,1.83,.36,2.68,.84,.83,.46,1.47,1.1,2.12,1.75,.14,.14,.27,.29,.36,.46,.3,.58,.56,1.18,.87,1.75,.32,.58,.3,1.23,.39,1.85,.19,1.36-.14,2.63-.73,3.85-.17,.35-.31,.74-.55,1.03-.63,.78-1.37,1.44-2.23,1.98-.96,.6-2.02,.89-3.14,1-.05,0-.1,.06-.15,.09h-1.1Zm.54-2.49c3.05,0,4.91-2.31,4.92-4.84,0-2.8-2.09-4.85-4.9-4.88-2.65-.02-4.84,1.98-4.86,4.83-.02,2.66,2.05,4.93,4.84,4.88Z"/><path class="d" d="M21.53,96.82c-.33-.07-.65-.13-.98-.2-1.3-.25-2.43-.82-3.41-1.72-.61-.57-1.24-1.12-1.6-1.89-.11-.23-.23-.46-.31-.71-.09-.26-.12-.54-.23-.79-.38-.9-.38-1.81-.32-2.78,.05-.79,.36-1.49,.59-2.2,.2-.61,.63-1.18,1.05-1.68,.57-.68,1.22-1.29,2.02-1.73,.97-.54,1.98-.93,3.11-.92,.71,0,1.43,0,2.13,.11,1.17,.18,2.17,.72,3.1,1.46,.82,.65,1.45,1.44,1.89,2.35,.38,.76,.75,1.55,.76,2.44,0,.24,.09,.48,.09,.73,0,.85-.14,1.67-.43,2.49-.23,.65-.49,1.25-.85,1.84-.44,.72-1.12,1.19-1.73,1.73-.9,.79-2.01,1.12-3.15,1.36-.25,.05-.5,.08-.75,.12h-1Zm.52-2.49c2.94-.03,4.83-2.15,4.85-4.82,.02-2.88-2.02-4.84-4.8-4.88-2.79-.04-4.94,1.97-4.93,4.88,0,2.55,1.93,4.84,4.89,4.82Z"/><path class="d" d="M156.51,96.82c0-3.05-.01-6.1,.01-9.14,0-.9,.16-1.79,.63-2.58,.53-.89,1.14-1.74,2.07-2.24,.69-.37,1.44-.7,2.28-.67,.72,.03,1.44-.07,2.16,.16,.82,.26,1.6,.61,2.19,1.23,.88,.91,1.62,1.94,1.66,3.27,.07,2.39,.08,4.79,.11,7.18,.01,.93,0,1.86,0,2.78h-2.5v-3.55h-6.11v3.55h-2.5Zm8.61-6.19c0-1.11,.01-2.19,0-3.26,0-.28-.11-.57-.21-.84-.32-.8-.92-1.31-1.71-1.67-1.15-.52-2.36-.14-3.17,.58-.69,.61-1.02,1.41-1.01,2.35,.02,.94,0,1.88,0,2.84h6.11Z"/><path class="d" d="M171.02,96.82v-14.59h10.29v2.33h-7.65v3.69h4.73v2.49h-4.74v3.59h7.68v2.5h-10.31Z"/><path class="d" d="M0,96.82v-14.59c.16-.01,.29-.03,.41-.03,1.95,0,3.9,0,5.86,0,.7,0,1.36,.24,1.95,.57,.77,.43,1.5,.93,1.96,1.72,.46,.81,.82,1.64,.94,2.58,.06,.45-.05,.86-.07,1.28-.04,.6-.28,1.09-.49,1.62-.56,1.4-1.59,2.26-2.98,2.77-.8,.29-1.62,.4-2.46,.4-.85,0-1.7,0-2.62,0v3.68H0Zm2.52-6.17c1.07,0,2.09,.05,3.1-.02,.73-.05,1.46-.28,2.02-.77,.83-.73,1.13-1.67,.97-2.76-.14-.95-.64-1.66-1.52-2.08-.58-.28-1.19-.44-1.84-.44-.78,0-1.57,0-2.35,0-.13,0-.25,.02-.38,.03v6.03Z"/><path class="d" d="M63.38,96.82v-2.49h.57c1.67,0,3.34,.02,5.01-.01,.36,0,.74-.13,1.07-.29,.71-.35,.85-1.32,.75-1.82-.22-1.06-.85-1.43-1.84-1.46-.68-.02-1.37,0-2.05,0-1.52,0-2.82-.53-3.76-1.73-.44-.57-.73-1.24-.86-1.99-.2-1.13,.13-2.11,.73-3,.73-1.07,1.71-1.82,3.09-1.83,2.27-.02,4.54,0,6.81,0,.15,0,.29,0,.47,0v2.39h-.55c-1.95,0-3.91,0-5.86,0-.56,0-1.06,.13-1.52,.47-.59,.43-.84,1.3-.57,1.97,.34,.85,1.03,1.19,1.88,1.24,.65,.04,1.3,0,1.95,.01,.86,.02,1.7,.11,2.45,.58,.98,.61,1.74,1.38,1.95,2.57,.01,.06,.05,.12,.07,.18,.52,1.66-.4,3.53-1.59,4.35-.59,.41-1.26,.78-2.04,.77-.05,0-.1,.06-.15,.09h-6.01Z"/><path class="d" d="M231.6,96.82c-.31-.12-.61-.28-.93-.36-1.03-.25-1.85-.83-2.68-1.46-1.02-.76-1.6-1.79-2.08-2.89-.33-.77-.51-1.59-.53-2.46-.03-1.58,.49-2.97,1.32-4.27,.85-1.33,2.09-2.19,3.5-2.81,.54-.23,1.17-.3,1.76-.37,1.13-.13,2.24,.07,3.33,.31,.46,.1,.88,.41,1.32,.62-.37,.64-.75,1.25-1.08,1.88-.15,.3-.33,.29-.55,.15-.59-.39-1.28-.53-1.95-.57-.53-.03-1.09,.06-1.6,.22-.75,.23-1.45,.62-2.01,1.18-.73,.73-1.23,1.6-1.43,2.62-.25,1.31,.05,2.51,.79,3.61,.65,.97,1.56,1.65,2.67,1.96,.75,.2,1.56,.26,2.34,0,.38-.13,.77-.25,1.16-.37,.27-.09,.36-.27,.35-.56-.02-1.51,0-3.02,0-4.52v-.46h2.5v6.67c-.2,.14-.38,.3-.59,.43-.37,.23-.72,.5-1.12,.66-.72,.3-1.47,.54-2.2,.8h-2.3Z"/><path class="d" d="M132.37,96.82c-.2-.05-.39-.11-.59-.14-1.02-.19-1.91-.65-2.7-1.3-.19-.15-.31-.38-.48-.56-.96-1.08-1.32-2.38-1.33-3.77-.03-2.75,0-5.5,0-8.26v-.57h2.5v.51c0,2.77-.01,5.54,0,8.31,0,1.06,.37,2.01,1.23,2.67,.66,.51,1.44,.78,2.31,.56,.31-.08,.63-.14,.93-.26,.78-.31,1.12-1.03,1.48-1.69,.16-.29,.14-.7,.14-1.06,.01-2.82,0-5.64,0-8.46v-.57h2.6v.5c0,2.77,.03,5.54-.02,8.31-.02,.83-.07,1.7-.56,2.44,0,.01-.02,.03-.02,.04-.39,1.11-1.23,1.84-2.15,2.48-.62,.43-1.35,.63-2.11,.72-.09,.01-.17,.06-.25,.1h-1Z"/><path class="d" d="M52.67,96.82c-.08-.03-.16-.09-.25-.1-.77-.1-1.52-.29-2.14-.75-.46-.33-.85-.75-1.26-1.14-.53-.52-.89-1.15-1.08-1.86-.15-.58-.35-1.17-.36-1.75-.04-2.93-.02-5.87-.01-8.8,0-.05,.01-.1,.02-.18h2.58v.53c0,2.8,.02,5.6-.01,8.41,0,.8,.33,1.42,.74,2.06,.93,1.44,3.35,1.36,4.42,.24,.67-.7,.94-1.5,.94-2.39,.03-2.77,.01-5.54,.01-8.31v-.56h2.47c0,.14,.03,.28,.03,.43,0,2.88,.02,5.77-.01,8.65,0,.62-.04,1.28-.39,1.84-.03,.04-.06,.08-.07,.13-.04,.62-.45,1.03-.8,1.48-.94,1.19-2.19,1.81-3.69,1.98-.05,0-.1,.06-.15,.09h-1Z"/><path class="d" d="M103.24,96.82c-.08-.03-.17-.09-.25-.1-.83-.11-1.65-.3-2.33-.81-.48-.36-.9-.8-1.31-1.25-.99-1.1-1.22-2.45-1.22-3.86,0-2.67,0-5.34,0-8.01v-.57h2.5v.54c0,2.85,0,5.7,0,8.56,0,1.14,.62,1.95,1.52,2.58,.78,.55,1.67,.53,2.5,.29,.66-.19,1.17-.7,1.59-1.27,.41-.56,.49-1.19,.49-1.85,0-2.75,0-5.5,0-8.26v-.58h2.47c0,.12,.03,.24,.03,.37,0,2.9,.01,5.8,0,8.7,0,.95-.19,1.9-.71,2.71-.86,1.33-1.98,2.38-3.66,2.62-.25,.03-.49,.13-.73,.19h-.9Z"/><path class="d" d="M84.41,96.82v-14.59h10.28v2.34h-7.64v3.68h4.74v2.47h-4.78v6.09h-2.6Z"/><path class="d" d="M117.05,96.82v-12.23h-4.38v-2.36h11.16v2.34h-4.27v12.25h-2.5Z"/></g><g><path class="d" d="M87.92,108.04c0-1.44,.02-2.89,.03-4.33,0-.6,0-1.21,0-1.86,.35,0,.64-.02,.94,0,.11,0,.25,.09,.3,.18,.65,1.09,1.28,2.19,1.92,3.28,.14,.25,.3,.48,.53,.7v-4.14h1.16v.54c0,1.69,0,3.38,0,5.07,0,.18,.02,.36,.03,.54h-1.2c-.03-.09-.05-.19-.1-.27-.56-.95-1.12-1.9-1.68-2.85-.22-.37-.44-.74-.65-1.11l-.07,.03v4.2h-1.2Z"/><path class="d" d="M141.69,108.04c0-1.44,.02-2.89,.03-4.33,0-.6,0-1.21,0-1.76,.06-.05,.08-.07,.09-.07,.9-.09,.97-.03,1.44,.79,.61,1.07,1.28,2.11,1.92,3.16,.05,.08,.12,.14,.24,.28v-4.23h1.06v.54c0,1.69,0,3.38,0,5.07,0,.18,.02,.36,.03,.54h-1.1c-.04-.1-.07-.22-.13-.31-.49-.82-.99-1.64-1.48-2.45-.3-.49-.61-.97-.91-1.46l-.08,.03v4.2h-1.1Z"/><path class="d" d="M75.6,108.04c0-1.03,.02-2.07,.03-3.1,0-1,0-2,0-3.07,.99,.03,1.98-.2,2.9,.2,.41,.18,.73,.58,.73,1.06,0,.42-.12,.85-.2,1.36,.05,.03,.2,.12,.36,.2,.64,.36,1.03,1,.96,1.74-.08,.75-.57,1.29-1.35,1.5-.05,.01-.08,.08-.13,.12h-3.3Zm1.2-1.06c.63,0,1.21,.02,1.79,0,.52-.02,.8-.51,.66-1-.12-.43-.52-.46-.81-.64-.5-.32-.69-.86-.42-1.39,.04-.09,.08-.18,.12-.26,.21-.44,.08-.73-.4-.78-.31-.03-.62,0-.95,0v4.09Z"/><path class="d" d="M210.48,108.04c0-1.03,.02-2.07,.03-3.1,0-1,0-2,0-3.08,.56,0,1.1,0,1.65,0,.53,0,1.05,.03,1.56,.19,1,.32,1.51,1.29,1.52,2.16,0,.37-.23,.76-.4,1.12-.11,.23-.32,.41-.49,.62l.94,2.1h-1.2c-.23-.53-.46-1.06-.67-1.56h-1.83v1.56h-1.1Zm1.1-2.64c.46,0,.86,.02,1.26,0,.45-.03,.91-.2,1.15-.58,.46-.73,.08-1.56-.78-1.84-.54-.17-1.07-.07-1.63-.08v2.51Z"/><path class="d" d="M0,108.04c0-1.23,.04-2.46,.02-3.68-.01-1.28,.92-2.32,2.27-2.49,.23-.03,.5,.02,.72,.11,.63,.26,1.23,.6,1.49,1.25,.16,.4,.24,.84,.26,1.27,.04,1.18,.03,2.36,.04,3.54h-1.2v-1.58H1.1v1.58H0Zm3.63-2.67c0-.46,.03-.9-.01-1.33-.02-.23-.12-.48-.26-.66-.59-.76-1.91-.55-2.19,.42-.15,.53-.09,1.05-.08,1.6,.79,0,1.52,0,2.25,0,.08,0,.16-.02,.29-.03Z"/><path class="d" d="M34.85,108.04c0-1.23,.04-2.46,.02-3.68-.01-1.28,.92-2.32,2.27-2.49,.23-.03,.5,.02,.72,.11,.63,.26,1.23,.6,1.49,1.25,.16,.4,.24,.84,.26,1.27,.04,1.18,.03,2.36,.04,3.54h-1.2v-1.58h-2.5v1.58h-1.1Zm3.63-2.66c0-.47,.03-.91-.01-1.35-.02-.23-.12-.47-.26-.65-.58-.75-1.95-.55-2.16,.44-.11,.5-.11,1.02-.16,1.56h2.59Z"/><path class="d" d="M234.41,108.04c-.16-.06-.31-.12-.47-.17-.89-.28-1.65-.75-2.08-1.59-.28-.54-.33-1.11-.27-1.73,.06-.65,.37-1.12,.74-1.6,.55-.72,1.93-1.26,2.81-1.07,1.08,.23,1.87,.83,2.36,1.8,.09,.18,.12,.4,.19,.59,.03,.08,.08,.15,.12,.23v.89c-.04,.07-.1,.15-.12,.23-.07,.2-.11,.4-.19,.59-.42,.94-1.24,1.38-2.17,1.7-.14,.05-.28,.1-.42,.14h-.5Zm.24-5.15c-1.06,0-2.09,1.03-2.07,2.06,.02,1.04,1.07,2.06,2.1,2.04,1.06-.02,2.08-1.04,2.06-2.06-.02-1.07-1.02-2.04-2.09-2.03Z"/><path class="d" d="M186.44,108.04c-.19-.07-.36-.17-.56-.22-1.09-.28-2.02-1.23-2.23-2.36-.32-1.7,.88-3.05,2.15-3.46,1.24-.4,2.64,.04,3.4,1.14,.72,1.05,.8,2.1,.26,3.2-.45,.91-1.24,1.4-2.24,1.58-.06,.01-.12,.08-.18,.12h-.6Zm2.33-3.12c-.03-1.22-.88-1.93-2.06-2.03-.98-.08-2.05,1.01-2.09,2.01-.04,.97,1.04,2.11,2.1,2.05,1.1-.06,2.03-.72,2.05-2.03Z"/><path class="d" d="M111.25,108.04c0-1.18,.02-2.36,.03-3.54,0-.7,.24-1.33,.67-1.88,.63-.81,2.16-.93,3-.33,.8,.57,1.09,1.32,1.08,2.25,0,1.16,.01,2.33,.02,3.49h-1.1v-1.58h-2.5v1.58h-1.2Zm3.72-2.66c0-.63,.11-1.21-.18-1.76-.2-.39-.81-.79-1.18-.71-.77,.16-1.09,.44-1.18,1.05-.07,.46-.01,.94-.01,1.43h2.54Z"/><path class="d" d="M97.03,108.04c-.2-.08-.4-.16-.6-.22-1.1-.36-1.8-1.05-2.09-2.19-.32-1.29,.14-2.28,1.08-3.09,.67-.58,1.49-.79,2.4-.63,1.15,.21,1.89,.88,2.39,1.9,.69,1.42-.22,3.27-1.35,3.73-.35,.14-.7,.25-1.05,.38-.07,.02-.12,.08-.18,.12-.2,0-.4,0-.6,0Zm2.33-3.13c.02-1.38-1.04-2.02-2.11-1.99-1.12,.03-1.92,.69-1.95,2-.03,1.12,.94,2.16,2.03,2.03,1.11-.13,2.05-.63,2.03-2.04Z"/><path class="d" d="M194.15,108.04c-.19-.07-.36-.17-.56-.22-1.09-.28-2.02-1.23-2.23-2.36-.32-1.7,.88-3.05,2.15-3.46,1.24-.4,2.64,.04,3.4,1.14,.72,1.05,.8,2.1,.26,3.2-.45,.91-1.24,1.4-2.24,1.58-.06,.01-.12,.08-.18,.12h-.6Zm2.33-3.11c-.03-1.22-.88-1.94-2.06-2.03-1.02-.08-2.15,1.01-2.07,2.03,.04,.49,.23,1.07,.57,1.41,.38,.38,.98,.69,1.56,.62,1.14-.13,1.98-.77,2.01-2.03Z"/><path class="d" d="M21.33,108.04c-.19-.07-.37-.17-.56-.22-.96-.28-1.72-.83-2.04-1.76-.18-.52-.26-1.07-.15-1.68,.21-1.14,.89-1.82,1.88-2.28,1.2-.55,2.72-.15,3.52,.88,.43,.55,.71,1.16,.72,1.87,.01,1.39-.83,2.7-2.5,3.07-.1,.02-.18,.09-.28,.13h-.6Zm2.33-3.12c.03-1.38-1.01-1.94-2.1-2.02-1-.06-2.07,1.07-2.06,2.04,.02,1.01,1.1,2.13,2.13,2.01,1.1-.13,2.05-.62,2.03-2.04Z"/><path class="d" d="M52.57,108.04c-.18-.07-.36-.17-.56-.22-1.1-.28-2.02-1.23-2.23-2.36-.32-1.69,.87-3.03,2.14-3.47,.95-.32,1.87-.15,2.7,.46,.43,.31,.75,.69,.99,1.13,.3,.55,.42,1.16,.27,1.78-.08,.34-.17,.69-.32,1-.45,.9-1.29,1.29-2.22,1.55-.07,.02-.12,.08-.18,.12h-.6Zm2.33-3.12c-.04-1.23-.9-1.93-2.07-2.01-.55-.04-1.14,.2-1.47,.58-.33,.38-.56,.96-.57,1.46-.01,.46,.2,1.03,.52,1.37,.37,.4,.97,.69,1.55,.64,1.1-.09,2.03-.73,2.05-2.04Z"/><path class="d" d="M123.56,108.04c0-1.18,.01-2.36,.03-3.55,0-.7,.25-1.33,.68-1.88,.53-.67,1.79-.9,2.57-.53,.55,.26,1.02,.63,1.26,1.18,.15,.35,.22,.75,.23,1.13,.04,1.21,.03,2.43,.04,3.64h-1.1v-1.58h-2.6v1.58h-1.1Zm3.71-2.65c.02-.56,.11-1.12-.11-1.67-.17-.44-.75-.87-1.17-.82-.55,.07-1.02,.3-1.23,.84-.21,.53-.12,1.08-.11,1.64h2.61Z"/><path class="d" d="M135.48,108.04c0-1.18,.01-2.36,.03-3.55,0-.7,.25-1.33,.68-1.88,.53-.67,1.79-.9,2.57-.53,.55,.26,1.02,.63,1.26,1.18,.15,.35,.22,.75,.23,1.13,.04,1.21,.03,2.43,.04,3.64h-1.1v-1.58h-2.6v1.58h-1.1Zm1.04-2.67h2.69c0-.42,.06-.82-.02-1.2-.07-.33-.19-.75-.44-.94-.86-.68-1.93-.19-2.1,.66-.09,.47-.09,.96-.14,1.48Z"/><path class="d" d="M81.81,108.04c0-1.23,.02-2.46,.03-3.69,0-1.43,.94-2.29,2.28-2.48,.25-.03,.53,.04,.77,.14,.6,.25,1.17,.58,1.41,1.2,.14,.37,.17,.79,.18,1.19,.03,1.21,.03,2.43,.04,3.64h-1.1v-1.58h-2.5v1.58h-1.1Zm3.67-2.65c-.05-.6-.07-1.14-.15-1.68-.06-.42-.55-.8-1.1-.8-.4,0-.81,.13-1.05,.51-.4,.62-.31,1.29-.26,1.97h2.57Z"/><path class="d" d="M216.68,108.04c0-1.21,.03-2.43,.02-3.64,0-1.44,.89-2.31,2.23-2.52,.28-.05,.61,.09,.9,.19,.61,.21,1.11,.61,1.36,1.19,.15,.34,.14,.76,.15,1.15,.03,1.21,.02,2.43,.03,3.64h-1.1v-1.58h-2.5v1.58h-1.1Zm3.62-2.66c0-.69,.09-1.33-.26-1.94-.24-.42-.63-.51-.99-.51-.38,0-.8,.09-1.03,.53-.33,.62-.27,1.25-.24,1.93h2.53Z"/><path class="d" d="M147.89,108.04c0-1.25,.05-2.49,.02-3.74-.03-1.47,1.12-2.3,2.26-2.42,.65-.07,1.21,.3,1.72,.72,.57,.47,.65,1.1,.67,1.75,.02,1.05,0,2.1,0,3.15,0,.18,.02,.36,.03,.54h-1.1v-1.58h-2.5v1.58h-1.1Zm1.1-2.67h2.53c0-.68,.09-1.31-.26-1.93-.23-.42-.63-.52-.99-.52-.38,0-.8,.09-1.04,.52-.34,.62-.27,1.25-.25,1.93Z"/><path class="d" d="M159.91,108.04c0-1.03,.02-2.07,.03-3.1,0-1,0-2,0-3.05,.72,0,1.44-.08,2.13,.02,1.08,.15,1.84,.81,2.33,1.75,.28,.53,.37,1.1,.24,1.7-.08,.33-.14,.67-.3,.96-.5,.95-1.36,1.41-2.4,1.6-.05,0-.09,.08-.13,.11h-1.9Zm1.2-1.03c.93-.13,1.8-.2,2.26-1.11,.43-.85,.3-1.68-.28-2.35-.47-.55-1.2-.73-1.98-.64v4.1Z"/><path class="d" d="M6.61,108.04l.05-1.06c.66,0,1.32,0,1.98,0,.21,0,.43-.04,.62-.11,.32-.12,.6-.55,.55-.78-.08-.33-.44-.61-.84-.63-.3-.01-.6,0-.9,0-.85-.02-1.42-.47-1.78-1.18-.32-.63-.05-1.53,.55-1.96,.41-.3,.85-.47,1.38-.45,.83,.03,1.67,0,2.5,.01,.03,0,.06,.01,.14,.03v1c-.7,0-1.39,0-2.09,0-.25,0-.5-.01-.75,0-.39,.03-.66,.31-.72,.69-.04,.31,.18,.67,.55,.74,.37,.07,.75,.07,1.13,.09,.71,.04,1.27,.3,1.66,.94,.56,.92,.03,2.39-1.09,2.57-.05,0-.08,.08-.13,.12h-2.8Z"/><path class="d" d="M204.77,108.04c0-1.03,.02-2.07,.03-3.1,0-1,0-2,0-3.04h4.22v.97h-3.14v1.53h1.94v1.04h-1.94v1.53h3.14l.06,1.08h-4.31Z"/><path class="d" d="M165.72,108.04c0-1.03,.02-2.07,.03-3.1,0-1,0-2,0-3.04h4.22v.97h-3.14v1.53h1.94v1.04h-1.94v1.53h3.14l.06,1.08h-4.31Z"/><path class="d" d="M198.96,108.04c0-1.03,.02-2.07,.03-3.1,0-1,0-2,0-3.08,.56,0,1.1,0,1.65,0,.51,0,1.02,0,1.51,.19,1.23,.49,1.89,1.65,1.44,2.89-.22,.6-.72,1.1-1.39,1.3-.39,.12-.8,.16-1.21,.2-.29,.03-.59,0-.92,0v1.6h-1.1Zm1.09-2.69c.93,.15,1.57,.07,2.11-.23,.38-.22,.57-.74,.47-1.17-.13-.55-.44-.86-1.01-.99-.53-.12-1.04-.05-1.57-.05v2.44Z"/><path class="d" d="M12.82,108.04l.05-1.02c.12-.01,.25-.04,.38-.04,.6,0,1.2,0,1.8,0,.56,0,1.09-.51,.8-1.11-.17-.35-.49-.39-.83-.42-.46-.03-.94,0-1.38-.11-.96-.26-1.65-1.48-1.06-2.52,.4-.7,.99-.95,1.74-.96,.87,0,1.73,0,2.64,0v1.03c-.81,0-1.62,0-2.43,0-.18,0-.36,.02-.53,.07-.4,.11-.57,.32-.59,.67-.02,.32,.18,.6,.57,.68,.35,.08,.72,.09,1.08,.1,.45,.02,.87,.11,1.25,.39,.45,.33,.75,1.12,.66,1.66-.14,.8-.56,1.32-1.39,1.49-.02,0-.02,.05-.03,.08h-2.7Z"/><path class="d" d="M71.59,108.04c-.14-.06-.27-.14-.41-.19-1.01-.31-1.67-1.28-1.66-2.22,0-1.23,0-2.46,0-3.73h1.05c0,.17,0,.34,0,.52,0,1.03-.02,2.07,0,3.1,.01,.51,.15,.98,.67,1.26,.89,.49,1.89-.12,1.88-1.13,0-1.07,0-2.13,0-3.2,0-.18,0-.36,0-.56h1.11c.01,.11,.04,.23,.04,.36,0,1.07,.04,2.14-.02,3.2-.02,.45-.19,.91-.37,1.33-.28,.68-.9,.94-1.57,1.14-.08,.02-.15,.08-.23,.12h-.5Z"/><path class="d" d="M180.14,108.04c-.18-.07-.36-.17-.56-.22-.72-.18-1.23-.61-1.59-1.22-.3-.51-.52-1.05-.52-1.65,0-1.02,.42-1.85,1.23-2.49,.94-.74,2.43-.74,3.42-.15l-.55,.9c-.93-.47-1.77-.46-2.47,.31-.81,.89-.65,1.87-.17,2.57,.28,.41,.7,.67,1.23,.82,.54,.15,.95-.13,1.45-.2l.51,.83c-.35,.22-.7,.37-1.11,.38-.09,0-.19,.08-.28,.12h-.6Z"/><path class="d" d="M107.94,108.04c-.06-.04-.11-.11-.18-.12-1.28-.2-2.13-.95-2.46-2.13-.43-1.56,.14-2.92,1.73-3.67,.81-.38,1.93-.3,2.81,.17-.12,.26-.23,.52-.36,.77-.12,.21-.28,.09-.43,.02-.69-.33-1.34-.21-1.95,.17-.62,.39-.91,1.27-.8,1.98,.1,.69,.47,1.19,1.05,1.49,.6,.31,1.25,.38,1.93-.07l.64,.97c-.41,.11-.76,.2-1.1,.29-.1,.03-.19,.08-.28,.12h-.6Z"/><path class="d" d="M43.76,108.04c-.19-.07-.36-.17-.56-.22-.72-.18-1.23-.61-1.59-1.23-.16-.28-.33-.57-.41-.88-.37-1.32,.08-2.47,1.24-3.29,1.07-.77,2.17-.65,3.33-.13l-.59,.96c-.59-.46-1.22-.39-1.83-.19-.46,.15-.71,.54-.97,.92-.32,.48-.43,1.55,.25,2.24,.58,.59,1.31,1.07,2.6,.48l.52,.84c-.35,.22-.7,.38-1.11,.38-.09,0-.19,.08-.28,.12h-.6Z"/><path class="d" d="M225.6,108.04c-.15-.07-.3-.18-.46-.2-.66-.09-1.15-.46-1.5-.96-.37-.52-.73-1.09-.8-1.75-.05-.43,.04-.85,.25-1.26,.3-.6,.69-1.08,1.22-1.5,.48-.38,1.03-.47,1.56-.48,.57-.01,1.19,.02,1.71,.45l-.54,.87c-.94-.5-1.9-.47-2.53,.28-.86,1.01-.81,1.75-.1,2.67,.3,.38,.69,.67,1.21,.73,.51,.06,.5,.08,1.45-.19l.56,.9c-.41,.11-.78,.2-1.15,.31-.1,.03-.19,.08-.28,.12h-.6Z"/><path class="d" d="M66.09,108.04c-.19-.07-.36-.17-.56-.22-.72-.18-1.23-.61-1.59-1.23-.16-.28-.33-.57-.41-.88-.37-1.32,.08-2.47,1.24-3.29,1.07-.77,2.17-.64,3.31-.15-.05,.12-.09,.21-.13,.3q-.34,.65-1.01,.39c-.66-.26-1.75,.14-2.08,.77-.11,.2-.26,.38-.35,.59-.3,.75,.07,1.74,.8,2.18,.23,.14,.47,.32,.72,.38,.59,.13,.59,.11,1.53-.16,.09,.12,.2,.25,.28,.39,.08,.14,.15,.29,.23,.46-.33,.21-.68,.36-1.09,.37-.09,0-.19,.08-.28,.12h-.6Z"/><path class="d" d="M28.94,108.04c-.19-.07-.36-.17-.56-.22-.72-.18-1.23-.61-1.59-1.23-.16-.28-.33-.57-.41-.88-.37-1.32,.09-2.46,1.23-3.3,.63-.46,1.31-.62,2.07-.47,.41,.08,.82,.17,1.26,.26-.08,.18-.11,.27-.15,.35q-.34,.65-1.01,.39c-.66-.26-1.75,.14-2.08,.77-.11,.2-.26,.38-.35,.59-.3,.75,.07,1.74,.8,2.18,.23,.14,.47,.28,.72,.39,.53,.23,1.02,0,1.53-.2l.58,.93c-.41,.11-.78,.21-1.15,.31-.1,.03-.19,.08-.28,.12h-.6Z"/><path class="d" d="M119.26,108.04v-5.13h-1.74v-1.02h4.59v.98h-1.67c-.05,.09-.08,.12-.08,.14,0,1.67,0,3.35,.01,5.02h-1.1Z"/><path class="d" d="M129.77,108.04c0-1.03,.02-2.07,.03-3.1,0-1,0-2,0-3.04h1.03v5.07h3.19l.06,1.08h-4.31Z"/><path class="d" d="M47.16,108.04c0-1.03,.02-2.07,.03-3.1,0-1,0-2,0-3.04h1.05v.53c0,1.69,0,3.39,0,5.08,0,.18,.02,.36,.03,.54h-1.1Z"/><path class="d" d="M32.34,108.04c0-1.03,.02-2.07,.03-3.1,0-1,0-2,0-3.04h1.05v.53c0,1.69,0,3.39,0,5.08,0,.18,.02,.36,.03,.54h-1.1Z"/><path class="d" d="M229,108.04c0-1.03,.02-2.07,.03-3.1,0-1,0-2,0-3.04h1.05v.53c0,1.69,0,3.39,0,5.08,0,.18,.02,.36,.03,.54h-1.1Z"/><path class="d" d="M101.5,104.43h2.68v.99h-2.68v-.99Z"/></g></g></g></g></svg>