<?xml version="1.0" encoding="UTF-8"?><svg xmlns="http://www.w3.org/2000/svg" viewBox="0 0 257.87 68.13"><defs><style>.d{fill:#fff;}.e{opacity:.5;}</style></defs><g id="a"/><g id="b"><g id="c"><g class="e"><g><path class="d" d="M89.52,27.8c.61,0,1.38,.17,2.29,.47s1.65,1.11,2.22,2.39c-.17-1.04-.47-1.58-1.21-2.32h2.22v5.53h-.84c-.3-3-1.58-4.82-4.51-4.82-2.06,0-3.3,1.21-3.3,2.56,0,2.09,2.22,2.96,4.58,3.91,2.56,1.08,5.26,2.22,5.26,5.26,0,3.4-2.96,4.95-5.83,4.95-2.26,0-4.31-.64-5.69-3.07,.2,1.18,.61,1.82,1.28,2.76h-2.22v-5.79h.84c.54,2.8,2.53,4.78,5.19,4.78,1.72,0,3.71-.84,3.71-2.66s-1.89-2.73-3.98-3.54c-2.7-1.04-5.76-2.12-5.76-5.53,0-1.89,1.21-4.89,5.76-4.89Z"/><path class="d" d="M103.37,28.34v12.84c0,1.31,.1,2.22-1.65,2.86,1.28-.24,2.49-.57,3.67-1.08v2.22h-7.24v-.84c2.56-.61,2.32-1.95,2.32-4.41v-7.82c0-.91-.13-1.72,1.18-2.63-1.21,.24-2.36,.64-3.5,1.08v-2.22h5.22Zm-1.65-7.48c.98,0,1.82,.84,1.82,1.82s-.84,1.82-1.82,1.82-1.82-.81-1.82-1.82,.81-1.82,1.82-1.82Z"/><path class="d" d="M107.08,21.97v-2.22h5.29v8.59h5.66v.47h-5.66v10.28c-.03,2.02-.2,3.34,.67,4.41,.44,.54,1.08,.84,1.92,.84,1.52,0,2.66-1.11,3.13-2.49l.67,.51c-.74,1.95-2.36,3.37-4.48,3.37-1.35,0-2.53-.47-3.47-1.45-.88-.91-1.52-1.85-1.42-4.72v-10.75h-2.32v-.47h2.32v-4.82c0-.91-.13-1.72,1.18-2.63-1.21,.24-2.36,.64-3.5,1.08Z"/><path class="d" d="M123.38,45.89c-2.56-.51-3.07-1.45-3.2-2.83-.17-1.58,1.15-3.17,3.87-3.17-2.73-1.38-3.91-3.1-3.91-5.42,0-4.04,3.6-6.67,7.11-6.67,1.48,0,2.96,.4,4.48,1.35,.27-2.12,2.06-3.37,3.87-3.37,1.18,0,1.79,.64,1.79,1.68,0,.51-.37,1.38-1.45,1.38-.77,0-1.28-.51-1.42-1.18-1.21,.03-1.82,1.01-2.09,2.05,1.25,1.21,1.92,2.59,1.92,4.18,0,3.87-3.37,6.4-7.11,6.4h-2.32c-1.65,0-2.8,.88-2.49,1.99,.37,1.08,2.26,1.21,5.36,1.35,5.19,.24,8.29,1.45,8.29,5.05s-4.31,5.63-8.25,5.63c-6.06,0-8.42-2.32-8.42-4.55,0-2.09,1.48-3.74,3.98-3.87Zm-1.31,3.47c.17,2.19,2.29,4.11,5.76,4.11,1.92,0,3.44-.44,4.51-1.31,1.04-.88,1.58-1.79,1.58-2.76,0-2.49-2.73-3-6.47-3.1-1.21-.03-1.79-.1-2.49-.14-2.12,.14-3,1.82-2.9,3.2Zm1.31-15.63c0,3.13,1.35,5.73,3.87,5.73,2.73,0,3.84-2.46,3.84-4.89,0-2.73-1.28-5.93-3.84-5.93-2.43,0-3.87,2.39-3.87,5.09Z"/><path class="d" d="M145.92,27.8c1.89,0,3.57,.61,4.82,1.82,1.28,1.21,2.02,3.37,2.02,4.89h-11.96c-.4,5.93,1.72,9.5,5.66,9.5,2.19,0,4.35-1.35,5.86-2.66l.64,.54c-1.99,2.32-4.18,3.84-7.31,3.84-4.65,0-8.22-3.47-8.22-8.93,0-4.72,3.44-8.99,8.49-8.99Zm-5.05,6.23h10.78c-.91-.1-1.48-.67-1.75-1.75-.47-1.95-1.75-3.64-3.94-3.64-2.59,0-4.38,1.92-5.09,5.39Z"/><path class="d" d="M161.11,27.8c.61,0,1.38,.17,2.29,.47s1.65,1.11,2.22,2.39c-.17-1.04-.47-1.58-1.21-2.32h2.22v5.53h-.84c-.3-3-1.58-4.82-4.51-4.82-2.06,0-3.3,1.21-3.3,2.56,0,2.09,2.22,2.96,4.58,3.91,2.56,1.08,5.26,2.22,5.26,5.26,0,3.4-2.96,4.95-5.83,4.95-2.26,0-4.31-.64-5.69-3.07,.2,1.18,.61,1.82,1.28,2.76h-2.22v-5.79h.84c.54,2.8,2.53,4.78,5.19,4.78,1.72,0,3.71-.84,3.71-2.66s-1.89-2.73-3.98-3.54c-2.7-1.04-5.76-2.12-5.76-5.53,0-1.89,1.21-4.89,5.76-4.89Z"/><path class="d" d="M178.26,27.8c1.25,0,3.17,.74,4.41,1.99v-6.27c0-.91-.13-1.72,1.18-2.63-1.21,.24-2.36,.64-3.5,1.08v-2.22h5.29v21.43c0,1.31-.03,2.43-1.68,2.86,1.52-.24,2.83-.57,4.01-1.08v2.22h-5.29v-1.52c-.44,1.38-2.46,2.05-3.98,2.05-4.55,0-8.76-3.64-8.76-9.37,0-5.36,3.13-8.56,8.32-8.56Zm-4.85,9.4c0,4.21,2.09,7.14,5.29,7.14,2.02,0,3.98-.88,3.98-4.45v-9.64c-1.04-1.18-2.59-1.92-4.08-1.92-3.91,0-5.19,5.73-5.19,8.86Z"/><path class="d" d="M194.74,28.34v12.84c0,1.31,.1,2.22-1.65,2.86,1.28-.24,2.49-.57,3.67-1.08v2.22h-7.24v-.84c2.56-.61,2.32-1.95,2.32-4.41v-7.82c0-.91-.13-1.72,1.18-2.63-1.21,.24-2.36,.64-3.5,1.08v-2.22h5.22Zm-1.65-7.48c.98,0,1.82,.84,1.82,1.82s-.84,1.82-1.82,1.82-1.82-.81-1.82-1.82,.81-1.82,1.82-1.82Z"/><path class="d" d="M200.73,39.93v-7.82c0-.91-.13-1.72,1.18-2.63-1.21,.24-2.36,.64-3.5,1.08v-2.22h5.26v3c.88-1.65,3.23-3.54,5.59-3.54,1.25,0,2.39,.61,2.39,2.09,0,.98-.78,1.65-1.72,1.65-.98-.1-1.65-.91-1.52-1.89-.44-.3-.88-.44-1.28-.44-1.45,0-2.7,1.55-3.47,2.59v9.37c0,1.25,.03,2.46-1.68,2.86,1.28-.24,2.49-.57,3.67-1.08v2.22h-7.24v-1.01c2.56-.27,2.32-1.85,2.32-4.25Z"/><path class="d" d="M220.88,27.8c1.89,0,3.57,.61,4.82,1.82,1.28,1.21,2.02,3.37,2.02,4.89h-11.96c-.4,5.93,1.72,9.5,5.66,9.5,2.19,0,4.35-1.35,5.86-2.66l.64,.54c-1.99,2.32-4.18,3.84-7.31,3.84-4.65,0-8.22-3.47-8.22-8.93,0-4.72,3.44-8.99,8.49-8.99Zm-5.05,6.23h10.78c-.91-.1-1.48-.67-1.75-1.75-.47-1.95-1.75-3.64-3.94-3.64-2.59,0-4.38,1.92-5.09,5.39Z"/><path class="d" d="M229.77,37.07c0-4.58,3.57-9.33,8.79-9.33,3.77,0,6.23,2.06,6.23,4.21,0,.77-.57,1.42-1.35,1.45-.94,0-1.52-.71-1.52-1.38,0-.44,.1-.71,.37-1.01-.77-1.79-2.22-2.29-3.67-2.29-3.07,0-5.42,2.83-5.42,7.51s2.22,7.78,5.49,8.05c2.36,0,4.48-1.04,5.79-3.03l.67,.51c-1.75,2.83-4.82,3.98-7.08,3.98-4.55,0-8.32-3.2-8.32-8.66Z"/><path class="d" d="M246.18,21.97v-2.22h5.29v8.59h5.66v.47h-5.66v10.28c-.03,2.02-.2,3.34,.67,4.41,.44,.54,1.08,.84,1.92,.84,1.52,0,2.66-1.11,3.13-2.49l.67,.51c-.74,1.95-2.36,3.37-4.48,3.37-1.35,0-2.53-.47-3.47-1.45-.88-.91-1.52-1.85-1.41-4.72v-10.75h-2.32v-.47h2.32v-4.82c0-.91-.14-1.72,1.18-2.63-1.21,.24-2.36,.64-3.5,1.08Z"/></g><g><polygon class="d" points="0 45.19 0 67.79 22.6 45.19 22.6 22.6 0 45.19"/><polygon class="d" points="45.19 22.6 45.19 45.19 33.89 33.89 22.6 45.19 22.6 67.79 45.19 67.79 67.79 45.19 67.79 22.6 67.79 0 45.19 22.6"/></g><g><path class="d" d="M76.63,64.1h3.39c.01,.52-.05,1-.2,1.46-.15,.46-.37,.87-.66,1.22s-.66,.64-1.1,.84c-.44,.2-.94,.31-1.5,.31-.53,0-1.02-.09-1.47-.27-.45-.18-.84-.43-1.17-.76-.33-.33-.59-.72-.77-1.17-.18-.45-.27-.94-.27-1.48s.09-1.03,.28-1.47c.18-.45,.44-.83,.78-1.16s.73-.58,1.18-.75c.45-.18,.94-.27,1.47-.27,.46,0,.88,.06,1.26,.19,.38,.13,.72,.31,1.01,.54,.29,.23,.55,.51,.75,.84l-.97,.64c-.19-.34-.46-.6-.81-.8s-.76-.3-1.25-.3c-.45,0-.86,.11-1.23,.32-.37,.21-.67,.51-.88,.88-.22,.38-.33,.83-.33,1.34s.11,.96,.32,1.34c.21,.39,.51,.68,.87,.9s.78,.32,1.25,.32c.31,0,.6-.04,.84-.13,.25-.09,.46-.21,.64-.37,.18-.16,.33-.35,.45-.55,.12-.21,.21-.43,.27-.66h-2.16v-1.01Z"/><path class="d" d="M82.4,60.74v7.04h-1.17v-7.04h1.17Zm-.43,0h3.55v1.05h-3.55v-1.05Zm0,2.75h3.35v1.03h-3.35v-1.03Zm0,3.24h3.55v1.05h-3.55v-1.05Z"/><path class="d" d="M87.94,66.22c.18,.2,.38,.36,.59,.47,.22,.11,.46,.17,.72,.17,.32,0,.58-.09,.78-.26,.2-.17,.3-.4,.3-.68,0-.25-.06-.46-.19-.62-.12-.16-.3-.29-.53-.4-.23-.11-.49-.22-.78-.33-.17-.06-.37-.14-.58-.25-.21-.1-.42-.23-.61-.39-.19-.16-.36-.35-.48-.58s-.19-.51-.19-.84c0-.37,.1-.7,.29-.99,.19-.28,.46-.51,.79-.67,.33-.16,.71-.24,1.13-.24s.78,.08,1.09,.23c.31,.15,.57,.34,.78,.57,.21,.23,.38,.47,.49,.71l-.95,.54c-.09-.17-.21-.34-.34-.49-.13-.15-.29-.27-.47-.36s-.38-.14-.62-.14c-.33,0-.57,.08-.72,.23-.15,.15-.23,.33-.23,.53,0,.18,.06,.34,.17,.49s.28,.28,.52,.41c.23,.13,.54,.26,.91,.39,.21,.07,.43,.17,.64,.28,.21,.11,.4,.25,.57,.42,.17,.17,.31,.37,.42,.6s.16,.5,.16,.81c0,.33-.07,.62-.2,.88s-.31,.48-.53,.66c-.22,.18-.47,.32-.75,.41s-.57,.15-.87,.15c-.41,0-.79-.08-1.14-.25-.35-.16-.66-.38-.93-.66-.26-.27-.47-.57-.63-.89l.88-.62c.15,.27,.32,.51,.5,.71Z"/><path class="d" d="M92.09,60.74h4.91v1.1h-1.86v5.94h-1.19v-5.94h-1.86v-1.1Z"/><path class="d" d="M99.07,60.74v7.04h-1.21v-7.04h1.21Z"/><path class="d" d="M100.5,62.8c.18-.44,.44-.83,.77-1.15,.33-.33,.72-.58,1.17-.76,.44-.18,.93-.28,1.44-.28s1.01,.09,1.46,.28c.44,.18,.83,.44,1.16,.76,.33,.33,.59,.71,.77,1.15,.18,.44,.27,.93,.27,1.46s-.09,1.01-.27,1.46c-.18,.45-.44,.84-.76,1.17-.33,.33-.71,.58-1.16,.77-.44,.18-.93,.28-1.47,.28s-1.01-.09-1.45-.28c-.45-.18-.83-.44-1.16-.77-.33-.33-.58-.72-.76-1.17-.18-.45-.27-.94-.27-1.46s.09-1.02,.27-1.46Zm1.3,2.74c.21,.38,.49,.67,.85,.89,.36,.22,.77,.33,1.23,.33s.88-.11,1.24-.33c.36-.22,.64-.51,.84-.89,.2-.37,.31-.8,.31-1.29s-.1-.91-.3-1.29c-.2-.38-.48-.68-.84-.89-.36-.21-.78-.32-1.25-.32s-.87,.11-1.23,.32c-.36,.21-.64,.51-.85,.89-.21,.38-.31,.81-.31,1.29s.1,.91,.31,1.29Zm1.66-5.56l-.61-.35,1.51-1.61,.91,.45-1.81,1.51Z"/><path class="d" d="M115,60.74v7.39l-5.14-5.08v4.72h-1.17v-7.39l5.14,5.08v-4.72h1.17Z"/><path class="d" d="M120.79,60.74v7.04h-1.21v-7.04h1.21Z"/><path class="d" d="M128.65,60.74v7.39l-5.14-5.08v4.72h-1.17v-7.39l5.14,5.08v-4.72h1.17Z"/><path class="d" d="M131.05,67.78h-1.23l.96-7.39,2.89,4.77,2.9-4.77,.97,7.39h-1.23l-.48-4.28-2.15,3.63-2.14-3.63-.48,4.28Z"/><path class="d" d="M138.57,62.8c.18-.44,.44-.83,.77-1.15,.33-.33,.72-.58,1.17-.76,.44-.18,.93-.28,1.44-.28s1.01,.09,1.46,.28c.44,.18,.83,.44,1.16,.76,.33,.33,.59,.71,.77,1.15,.18,.44,.27,.93,.27,1.46s-.09,1.01-.27,1.46c-.18,.45-.44,.84-.76,1.17-.33,.33-.71,.58-1.16,.77-.44,.18-.93,.28-1.47,.28s-1.01-.09-1.45-.28c-.45-.18-.83-.44-1.16-.77-.33-.33-.58-.72-.76-1.17-.18-.45-.27-.94-.27-1.46s.09-1.02,.27-1.46Zm1.3,2.74c.21,.38,.49,.67,.85,.89,.36,.22,.77,.33,1.23,.33s.88-.11,1.24-.33c.36-.22,.64-.51,.84-.89,.2-.37,.31-.8,.31-1.29s-.1-.91-.3-1.29c-.2-.38-.48-.68-.84-.89-.36-.21-.78-.32-1.25-.32s-.87,.11-1.23,.32c-.36,.21-.64,.51-.85,.89-.21,.38-.31,.81-.31,1.29s.1,.91,.31,1.29Z"/><path class="d" d="M147.67,63.57h1.14c.22,0,.42-.04,.58-.11,.17-.07,.3-.18,.39-.32s.14-.3,.14-.5c0-.29-.1-.52-.31-.68-.2-.16-.47-.24-.81-.24h-.85v5.08h.98c.27,0,.51-.04,.71-.13,.21-.09,.37-.22,.49-.39s.18-.39,.18-.65c0-.19-.03-.36-.1-.5s-.16-.26-.29-.36c-.13-.1-.27-.17-.44-.21-.17-.04-.35-.07-.55-.07h-1.27v-.66h1.34c.34,0,.67,.04,.97,.12,.31,.08,.57,.19,.81,.35,.23,.15,.42,.35,.55,.59s.2,.53,.2,.86c0,.46-.11,.84-.32,1.15-.21,.3-.51,.52-.89,.67-.38,.14-.82,.22-1.32,.22h-2.24v-7.04h2.12c.45,0,.84,.06,1.18,.19,.34,.13,.6,.32,.79,.58,.19,.26,.29,.59,.29,.99,0,.35-.1,.65-.29,.89-.19,.24-.45,.43-.79,.56-.34,.13-.73,.19-1.18,.19h-1.22v-.58Z"/><path class="d" d="M154.02,60.74v7.04h-1.21v-7.04h1.21Z"/><path class="d" d="M156.76,60.74v5.97h2.79v1.07h-3.98v-7.04h1.19Z"/><path class="d" d="M161.62,60.74v7.04h-1.21v-7.04h1.21Z"/><path class="d" d="M164.75,65.32l-.02,.26-.98,2.2h-1.34l3.44-7.43,3.45,7.43h-1.35l-.96-2.14-.02-.29-1.13-2.61-1.11,2.58Zm-.5-.35h3.27l.22,1.01h-3.72l.23-1.01Z"/><path class="d" d="M171.3,60.74v7.04h-1.19v-7.04h1.19Zm-.48,0h1.47c.52,0,.96,.09,1.34,.27s.67,.43,.88,.76,.32,.71,.32,1.15-.11,.83-.32,1.16c-.21,.33-.5,.58-.88,.76s-.82,.27-1.34,.27h-1.47v-.99h1.42c.27,0,.51-.05,.71-.14s.36-.22,.47-.4c.11-.18,.17-.39,.17-.64s-.06-.47-.17-.64c-.11-.17-.27-.31-.47-.4s-.44-.14-.71-.14h-1.42v-1.03Zm2.03,3.68l2.39,3.36h-1.44l-2.23-3.36h1.28Z"/><path class="d" d="M177.3,60.74v7.04h-1.21v-7.04h1.21Z"/><path class="d" d="M180.43,65.32l-.02,.26-.97,2.2h-1.34l3.44-7.43,3.45,7.43h-1.35l-.96-2.14-.02-.29-1.13-2.61-1.11,2.58Zm-.5-.35h3.27l.22,1.01h-3.72l.23-1.01Z"/></g></g></g></g></svg>